<svg width="1352" height="280" viewBox="0 0 1352 280" fill="none" xmlns="http://www.w3.org/2000/svg">
<g clip-path="url(#clip0_2_4032)">
<path d="M65 221H1347" stroke="#F0F0F0" stroke-dasharray="3 3"/>
<path d="M65 156.2H1347" stroke="#F0F0F0" stroke-dasharray="3 3"/>
<path d="M65 91.3999H1347" stroke="#F0F0F0" stroke-dasharray="3 3"/>
<path d="M65 5H1347" stroke="#F0F0F0" stroke-dasharray="3 3"/>
<path d="M65 5V221" stroke="#F0F0F0" stroke-dasharray="3 3"/>
<path d="M385.5 5V221" stroke="#F0F0F0" stroke-dasharray="3 3"/>
<path d="M706 5V221" stroke="#F0F0F0" stroke-dasharray="3 3"/>
<path d="M1026.5 5V221" stroke="#F0F0F0" stroke-dasharray="3 3"/>
<path d="M1347 5V221" stroke="#F0F0F0" stroke-dasharray="3 3"/>
<path d="M65 221H1347" stroke="#666666"/>
<path d="M65 227V221" stroke="#666666"/>
<path d="M52.0987 237.52V236.753L54.9794 233.6C55.3175 233.23 55.5959 232.909 55.8146 232.636C56.0334 232.361 56.1953 232.102 56.3004 231.861C56.4084 231.617 56.4624 231.361 56.4624 231.094C56.4624 230.787 56.3885 230.521 56.2408 230.297C56.0959 230.073 55.897 229.899 55.6442 229.777C55.3913 229.655 55.1072 229.594 54.7919 229.594C54.4567 229.594 54.1641 229.663 53.9141 229.803C53.6669 229.939 53.4751 230.131 53.3388 230.378C53.2053 230.625 53.1385 230.915 53.1385 231.247H52.1328C52.1328 230.736 52.2507 230.287 52.4865 229.901C52.7223 229.514 53.0433 229.213 53.4496 228.997C53.8587 228.781 54.3175 228.673 54.826 228.673C55.3374 228.673 55.7905 228.781 56.1854 228.997C56.5803 229.213 56.8899 229.504 57.1143 229.871C57.3388 230.237 57.451 230.645 57.451 231.094C57.451 231.415 57.3928 231.729 57.2763 232.036C57.1626 232.34 56.9638 232.679 56.6797 233.054C56.3984 233.426 56.0078 233.881 55.5078 234.418L53.5476 236.514V236.583H57.6044V237.52H52.0987ZM62.2109 237.639C61.5689 237.639 61.022 237.465 60.5703 237.115C60.1186 236.763 59.7734 236.253 59.5348 235.585C59.2962 234.915 59.1768 234.105 59.1768 233.156C59.1768 232.213 59.2962 231.408 59.5348 230.74C59.7763 230.07 60.1229 229.558 60.5746 229.206C61.0291 228.851 61.5746 228.673 62.2109 228.673C62.8473 228.673 63.3913 228.851 63.843 229.206C64.2976 229.558 64.6442 230.07 64.8828 230.74C65.1243 231.408 65.245 232.213 65.245 233.156C65.245 234.105 65.1257 234.915 64.8871 235.585C64.6484 236.253 64.3033 236.763 63.8516 237.115C63.3999 237.465 62.853 237.639 62.2109 237.639ZM62.2109 236.702C62.8473 236.702 63.3416 236.395 63.6939 235.781C64.0462 235.168 64.2223 234.293 64.2223 233.156C64.2223 232.401 64.1413 231.757 63.9794 231.226C63.8203 230.695 63.5902 230.29 63.2891 230.011C62.9908 229.733 62.6314 229.594 62.2109 229.594C61.5803 229.594 61.0874 229.905 60.7322 230.527C60.3771 231.146 60.1996 232.023 60.1996 233.156C60.1996 233.912 60.2791 234.554 60.4382 235.083C60.5973 235.611 60.826 236.013 61.1243 236.288C61.4254 236.564 61.7876 236.702 62.2109 236.702ZM66.8643 237.52V236.753L69.745 233.6C70.0831 233.23 70.3615 232.909 70.5803 232.636C70.799 232.361 70.9609 232.102 71.0661 231.861C71.174 231.617 71.228 231.361 71.228 231.094C71.228 230.787 71.1541 230.521 71.0064 230.297C70.8615 230.073 70.6626 229.899 70.4098 229.777C70.157 229.655 69.8729 229.594 69.5575 229.594C69.2223 229.594 68.9297 229.663 68.6797 229.803C68.4325 229.939 68.2408 230.131 68.1044 230.378C67.9709 230.625 67.9041 230.915 67.9041 231.247H66.8984C66.8984 230.736 67.0163 230.287 67.2521 229.901C67.4879 229.514 67.8089 229.213 68.2152 228.997C68.6243 228.781 69.0831 228.673 69.5916 228.673C70.103 228.673 70.5561 228.781 70.951 228.997C71.3459 229.213 71.6555 229.504 71.88 229.871C72.1044 230.237 72.2166 230.645 72.2166 231.094C72.2166 231.415 72.1584 231.729 72.0419 232.036C71.9283 232.34 71.7294 232.679 71.4453 233.054C71.1641 233.426 70.7734 233.881 70.2734 234.418L68.3132 236.514V236.583H72.37V237.52H66.8643ZM77.1982 228.793V237.52H76.1413V229.901H76.0902L73.9595 231.315V230.242L76.1413 228.793H77.1982Z" fill="#666666"/>
<path d="M385.5 227V221" stroke="#666666"/>
<path d="M371.755 237.52V236.753L374.636 233.6C374.974 233.23 375.252 232.909 375.471 232.636C375.69 232.361 375.852 232.102 375.957 231.861C376.065 231.617 376.119 231.361 376.119 231.094C376.119 230.787 376.045 230.521 375.897 230.297C375.752 230.073 375.553 229.899 375.3 229.777C375.048 229.655 374.763 229.594 374.448 229.594C374.113 229.594 373.82 229.663 373.57 229.803C373.323 229.939 373.131 230.131 372.995 230.378C372.862 230.625 372.795 230.915 372.795 231.247H371.789C371.789 230.736 371.907 230.287 372.143 229.901C372.379 229.514 372.7 229.213 373.106 228.997C373.515 228.781 373.974 228.673 374.482 228.673C374.994 228.673 375.447 228.781 375.842 228.997C376.237 229.213 376.546 229.504 376.771 229.871C376.995 230.237 377.107 230.645 377.107 231.094C377.107 231.415 377.049 231.729 376.933 232.036C376.819 232.34 376.62 232.679 376.336 233.054C376.055 233.426 375.664 233.881 375.164 234.418L373.204 236.514V236.583H377.261V237.52H371.755ZM381.867 237.639C381.225 237.639 380.678 237.465 380.227 237.115C379.775 236.763 379.43 236.253 379.191 235.585C378.952 234.915 378.833 234.105 378.833 233.156C378.833 232.213 378.952 231.408 379.191 230.74C379.433 230.07 379.779 229.558 380.231 229.206C380.685 228.851 381.231 228.673 381.867 228.673C382.504 228.673 383.048 228.851 383.499 229.206C383.954 229.558 384.3 230.07 384.539 230.74C384.781 231.408 384.901 232.213 384.901 233.156C384.901 234.105 384.782 234.915 384.543 235.585C384.305 236.253 383.96 236.763 383.508 237.115C383.056 237.465 382.509 237.639 381.867 237.639ZM381.867 236.702C382.504 236.702 382.998 236.395 383.35 235.781C383.702 235.168 383.879 234.293 383.879 233.156C383.879 232.401 383.798 231.757 383.636 231.226C383.477 230.695 383.246 230.29 382.945 230.011C382.647 229.733 382.288 229.594 381.867 229.594C381.237 229.594 380.744 229.905 380.388 230.527C380.033 231.146 379.856 232.023 379.856 233.156C379.856 233.912 379.935 234.554 380.094 235.083C380.254 235.611 380.482 236.013 380.781 236.288C381.082 236.564 381.444 236.702 381.867 236.702ZM386.521 237.52V236.753L389.401 233.6C389.739 233.23 390.018 232.909 390.237 232.636C390.455 232.361 390.617 232.102 390.722 231.861C390.83 231.617 390.884 231.361 390.884 231.094C390.884 230.787 390.81 230.521 390.663 230.297C390.518 230.073 390.319 229.899 390.066 229.777C389.813 229.655 389.529 229.594 389.214 229.594C388.879 229.594 388.586 229.663 388.336 229.803C388.089 229.939 387.897 230.131 387.761 230.378C387.627 230.625 387.56 230.915 387.56 231.247H386.555C386.555 230.736 386.673 230.287 386.908 229.901C387.144 229.514 387.465 229.213 387.871 228.997C388.281 228.781 388.739 228.673 389.248 228.673C389.759 228.673 390.212 228.781 390.607 228.997C391.002 229.213 391.312 229.504 391.536 229.871C391.761 230.237 391.873 230.645 391.873 231.094C391.873 231.415 391.815 231.729 391.698 232.036C391.585 232.34 391.386 232.679 391.102 233.054C390.82 233.426 390.43 233.881 389.93 234.418L387.969 236.514V236.583H392.026V237.52H386.521ZM393.786 237.52V236.753L396.667 233.6C397.005 233.23 397.283 232.909 397.502 232.636C397.721 232.361 397.883 232.102 397.988 231.861C398.096 231.617 398.15 231.361 398.15 231.094C398.15 230.787 398.076 230.521 397.928 230.297C397.783 230.073 397.585 229.899 397.332 229.777C397.079 229.655 396.795 229.594 396.479 229.594C396.144 229.594 395.852 229.663 395.602 229.803C395.354 229.939 395.163 230.131 395.026 230.378C394.893 230.625 394.826 230.915 394.826 231.247H393.82C393.82 230.736 393.938 230.287 394.174 229.901C394.41 229.514 394.731 229.213 395.137 228.997C395.546 228.781 396.005 228.673 396.513 228.673C397.025 228.673 397.478 228.781 397.873 228.997C398.268 229.213 398.577 229.504 398.802 229.871C399.026 230.237 399.138 230.645 399.138 231.094C399.138 231.415 399.08 231.729 398.964 232.036C398.85 232.34 398.651 232.679 398.367 233.054C398.086 233.426 397.695 233.881 397.195 234.418L395.235 236.514V236.583H399.292V237.52H393.786Z" fill="#666666"/>
<path d="M706 227V221" stroke="#666666"/>
<path d="M692.067 237.52V236.753L694.948 233.6C695.286 233.23 695.565 232.909 695.783 232.636C696.002 232.361 696.164 232.102 696.269 231.861C696.377 231.617 696.431 231.361 696.431 231.094C696.431 230.787 696.357 230.521 696.21 230.297C696.065 230.073 695.866 229.899 695.613 229.777C695.36 229.655 695.076 229.594 694.761 229.594C694.425 229.594 694.133 229.663 693.883 229.803C693.636 229.939 693.444 230.131 693.308 230.378C693.174 230.625 693.107 230.915 693.107 231.247H692.102C692.102 230.736 692.219 230.287 692.455 229.901C692.691 229.514 693.012 229.213 693.418 228.997C693.827 228.781 694.286 228.673 694.795 228.673C695.306 228.673 695.759 228.781 696.154 228.997C696.549 229.213 696.859 229.504 697.083 229.871C697.308 230.237 697.42 230.645 697.42 231.094C697.42 231.415 697.362 231.729 697.245 232.036C697.131 232.34 696.933 232.679 696.648 233.054C696.367 233.426 695.977 233.881 695.477 234.418L693.516 236.514V236.583H697.573V237.52H692.067ZM702.18 237.639C701.538 237.639 700.991 237.465 700.539 237.115C700.087 236.763 699.742 236.253 699.504 235.585C699.265 234.915 699.146 234.105 699.146 233.156C699.146 232.213 699.265 231.408 699.504 230.74C699.745 230.07 700.092 229.558 700.543 229.206C700.998 228.851 701.543 228.673 702.18 228.673C702.816 228.673 703.36 228.851 703.812 229.206C704.266 229.558 704.613 230.07 704.852 230.74C705.093 231.408 705.214 232.213 705.214 233.156C705.214 234.105 705.094 234.915 704.856 235.585C704.617 236.253 704.272 236.763 703.82 237.115C703.369 237.465 702.822 237.639 702.18 237.639ZM702.18 236.702C702.816 236.702 703.31 236.395 703.663 235.781C704.015 235.168 704.191 234.293 704.191 233.156C704.191 232.401 704.11 231.757 703.948 231.226C703.789 230.695 703.559 230.29 703.258 230.011C702.96 229.733 702.6 229.594 702.18 229.594C701.549 229.594 701.056 229.905 700.701 230.527C700.346 231.146 700.168 232.023 700.168 233.156C700.168 233.912 700.248 234.554 700.407 235.083C700.566 235.611 700.795 236.013 701.093 236.288C701.394 236.564 701.756 236.702 702.18 236.702ZM706.833 237.52V236.753L709.714 233.6C710.052 233.23 710.33 232.909 710.549 232.636C710.768 232.361 710.93 232.102 711.035 231.861C711.143 231.617 711.197 231.361 711.197 231.094C711.197 230.787 711.123 230.521 710.975 230.297C710.83 230.073 710.631 229.899 710.379 229.777C710.126 229.655 709.842 229.594 709.526 229.594C709.191 229.594 708.898 229.663 708.648 229.803C708.401 229.939 708.21 230.131 708.073 230.378C707.94 230.625 707.873 230.915 707.873 231.247H706.867C706.867 230.736 706.985 230.287 707.221 229.901C707.457 229.514 707.778 229.213 708.184 228.997C708.593 228.781 709.052 228.673 709.56 228.673C710.072 228.673 710.525 228.781 710.92 228.997C711.315 229.213 711.624 229.504 711.849 229.871C712.073 230.237 712.185 230.645 712.185 231.094C712.185 231.415 712.127 231.729 712.011 232.036C711.897 232.34 711.698 232.679 711.414 233.054C711.133 233.426 710.742 233.881 710.242 234.418L708.282 236.514V236.583H712.339V237.52H706.833ZM717.048 237.639C716.485 237.639 715.984 237.543 715.543 237.35C715.106 237.156 714.758 236.888 714.499 236.544C714.244 236.198 714.104 235.796 714.082 235.338H715.156C715.178 235.619 715.275 235.862 715.445 236.067C715.616 236.269 715.839 236.425 716.114 236.536C716.39 236.646 716.695 236.702 717.031 236.702C717.406 236.702 717.738 236.636 718.028 236.506C718.317 236.375 718.545 236.193 718.71 235.96C718.874 235.727 718.957 235.458 718.957 235.151C718.957 234.83 718.877 234.547 718.718 234.303C718.559 234.056 718.326 233.862 718.019 233.723C717.712 233.584 717.337 233.514 716.894 233.514H716.195V232.577H716.894C717.241 232.577 717.545 232.514 717.806 232.389C718.07 232.264 718.276 232.088 718.424 231.861C718.575 231.634 718.65 231.367 718.65 231.06C718.65 230.764 718.585 230.507 718.454 230.288C718.323 230.07 718.138 229.899 717.9 229.777C717.664 229.655 717.386 229.594 717.065 229.594C716.763 229.594 716.479 229.649 716.212 229.76C715.948 229.868 715.732 230.026 715.565 230.233C715.397 230.438 715.306 230.685 715.292 230.975H714.269C714.286 230.517 714.424 230.117 714.683 229.773C714.941 229.426 715.279 229.156 715.697 228.963C716.117 228.77 716.579 228.673 717.082 228.673C717.621 228.673 718.085 228.783 718.471 229.002C718.857 229.217 719.154 229.503 719.362 229.858C719.569 230.213 719.673 230.597 719.673 231.009C719.673 231.5 719.543 231.919 719.285 232.266C719.029 232.612 718.681 232.852 718.241 232.986V233.054C718.792 233.145 719.222 233.379 719.532 233.757C719.842 234.132 719.996 234.597 719.996 235.151C719.996 235.625 719.867 236.051 719.609 236.429C719.353 236.804 719.004 237.1 718.56 237.315C718.117 237.531 717.613 237.639 717.048 237.639Z" fill="#666666"/>
<path d="M1026.5 227V221" stroke="#666666"/>
<path d="M1012.63 237.52V236.753L1015.51 233.6C1015.85 233.23 1016.13 232.909 1016.35 232.636C1016.57 232.361 1016.73 232.102 1016.83 231.861C1016.94 231.617 1017 231.361 1017 231.094C1017 230.787 1016.92 230.521 1016.77 230.297C1016.63 230.073 1016.43 229.899 1016.18 229.777C1015.92 229.655 1015.64 229.594 1015.33 229.594C1014.99 229.594 1014.7 229.663 1014.45 229.803C1014.2 229.939 1014.01 230.131 1013.87 230.378C1013.74 230.625 1013.67 230.915 1013.67 231.247H1012.67C1012.67 230.736 1012.78 230.287 1013.02 229.901C1013.26 229.514 1013.58 229.213 1013.98 228.997C1014.39 228.781 1014.85 228.673 1015.36 228.673C1015.87 228.673 1016.32 228.781 1016.72 228.997C1017.11 229.213 1017.42 229.504 1017.65 229.871C1017.87 230.237 1017.98 230.645 1017.98 231.094C1017.98 231.415 1017.93 231.729 1017.81 232.036C1017.7 232.34 1017.5 232.679 1017.21 233.054C1016.93 233.426 1016.54 233.881 1016.04 234.418L1014.08 236.514V236.583H1018.14V237.52H1012.63ZM1022.74 237.639C1022.1 237.639 1021.56 237.465 1021.1 237.115C1020.65 236.763 1020.31 236.253 1020.07 235.585C1019.83 234.915 1019.71 234.105 1019.71 233.156C1019.71 232.213 1019.83 231.408 1020.07 230.74C1020.31 230.07 1020.66 229.558 1021.11 229.206C1021.56 228.851 1022.11 228.673 1022.74 228.673C1023.38 228.673 1023.92 228.851 1024.38 229.206C1024.83 229.558 1025.18 230.07 1025.42 230.74C1025.66 231.408 1025.78 232.213 1025.78 233.156C1025.78 234.105 1025.66 234.915 1025.42 235.585C1025.18 236.253 1024.84 236.763 1024.38 237.115C1023.93 237.465 1023.39 237.639 1022.74 237.639ZM1022.74 236.702C1023.38 236.702 1023.87 236.395 1024.23 235.781C1024.58 235.168 1024.76 234.293 1024.76 233.156C1024.76 232.401 1024.67 231.757 1024.51 231.226C1024.35 230.695 1024.12 230.29 1023.82 230.011C1023.52 229.733 1023.16 229.594 1022.74 229.594C1022.11 229.594 1021.62 229.905 1021.27 230.527C1020.91 231.146 1020.73 232.023 1020.73 233.156C1020.73 233.912 1020.81 234.554 1020.97 235.083C1021.13 235.611 1021.36 236.013 1021.66 236.288C1021.96 236.564 1022.32 236.702 1022.74 236.702ZM1027.4 237.52V236.753L1030.28 233.6C1030.62 233.23 1030.89 232.909 1031.11 232.636C1031.33 232.361 1031.49 232.102 1031.6 231.861C1031.71 231.617 1031.76 231.361 1031.76 231.094C1031.76 230.787 1031.69 230.521 1031.54 230.297C1031.39 230.073 1031.2 229.899 1030.94 229.777C1030.69 229.655 1030.41 229.594 1030.09 229.594C1029.76 229.594 1029.46 229.663 1029.21 229.803C1028.97 229.939 1028.77 230.131 1028.64 230.378C1028.5 230.625 1028.44 230.915 1028.44 231.247H1027.43C1027.43 230.736 1027.55 230.287 1027.79 229.901C1028.02 229.514 1028.34 229.213 1028.75 228.997C1029.16 228.781 1029.62 228.673 1030.12 228.673C1030.64 228.673 1031.09 228.781 1031.48 228.997C1031.88 229.213 1032.19 229.504 1032.41 229.871C1032.64 230.237 1032.75 230.645 1032.75 231.094C1032.75 231.415 1032.69 231.729 1032.58 232.036C1032.46 232.34 1032.26 232.679 1031.98 233.054C1031.7 233.426 1031.31 233.881 1030.81 234.418L1028.85 236.514V236.583H1032.9V237.52H1027.4ZM1034.27 235.73V234.861L1038.11 228.793H1038.74V230.139H1038.31L1035.41 234.725V234.793H1040.58V235.73H1034.27ZM1038.38 237.52V235.466V235.061V228.793H1039.38V237.52H1038.38Z" fill="#666666"/>
<path d="M1347 227V221" stroke="#666666"/>
<path d="M1324.07 237.52V236.753L1326.95 233.6C1327.28 233.23 1327.56 232.909 1327.78 232.636C1328 232.361 1328.16 232.102 1328.27 231.861C1328.38 231.617 1328.43 231.361 1328.43 231.094C1328.43 230.787 1328.36 230.521 1328.21 230.297C1328.06 230.073 1327.86 229.899 1327.61 229.777C1327.36 229.655 1327.07 229.594 1326.76 229.594C1326.42 229.594 1326.13 229.663 1325.88 229.803C1325.63 229.939 1325.44 230.131 1325.31 230.378C1325.17 230.625 1325.11 230.915 1325.11 231.247H1324.1C1324.1 230.736 1324.22 230.287 1324.45 229.901C1324.69 229.514 1325.01 229.213 1325.42 228.997C1325.83 228.781 1326.28 228.673 1326.79 228.673C1327.3 228.673 1327.76 228.781 1328.15 228.997C1328.55 229.213 1328.86 229.504 1329.08 229.871C1329.31 230.237 1329.42 230.645 1329.42 231.094C1329.42 231.415 1329.36 231.729 1329.24 232.036C1329.13 232.34 1328.93 232.679 1328.65 233.054C1328.37 233.426 1327.97 233.881 1327.47 234.418L1325.51 236.514V236.583H1329.57V237.52H1324.07ZM1334.18 237.639C1333.54 237.639 1332.99 237.465 1332.54 237.115C1332.09 236.763 1331.74 236.253 1331.5 235.585C1331.26 234.915 1331.14 234.105 1331.14 233.156C1331.14 232.213 1331.26 231.408 1331.5 230.74C1331.74 230.07 1332.09 229.558 1332.54 229.206C1333 228.851 1333.54 228.673 1334.18 228.673C1334.81 228.673 1335.36 228.851 1335.81 229.206C1336.26 229.558 1336.61 230.07 1336.85 230.74C1337.09 231.408 1337.21 232.213 1337.21 233.156C1337.21 234.105 1337.09 234.915 1336.85 235.585C1336.62 236.253 1336.27 236.763 1335.82 237.115C1335.37 237.465 1334.82 237.639 1334.18 237.639ZM1334.18 236.702C1334.81 236.702 1335.31 236.395 1335.66 235.781C1336.01 235.168 1336.19 234.293 1336.19 233.156C1336.19 232.401 1336.11 231.757 1335.95 231.226C1335.79 230.695 1335.56 230.29 1335.26 230.011C1334.96 229.733 1334.6 229.594 1334.18 229.594C1333.55 229.594 1333.05 229.905 1332.7 230.527C1332.34 231.146 1332.17 232.023 1332.17 233.156C1332.17 233.912 1332.25 234.554 1332.41 235.083C1332.56 235.611 1332.79 236.013 1333.09 236.288C1333.39 236.564 1333.75 236.702 1334.18 236.702ZM1338.83 237.52V236.753L1341.71 233.6C1342.05 233.23 1342.33 232.909 1342.55 232.636C1342.77 232.361 1342.93 232.102 1343.03 231.861C1343.14 231.617 1343.19 231.361 1343.19 231.094C1343.19 230.787 1343.12 230.521 1342.97 230.297C1342.83 230.073 1342.63 229.899 1342.38 229.777C1342.12 229.655 1341.84 229.594 1341.52 229.594C1341.19 229.594 1340.9 229.663 1340.65 229.803C1340.4 229.939 1340.21 230.131 1340.07 230.378C1339.94 230.625 1339.87 230.915 1339.87 231.247H1338.87C1338.87 230.736 1338.98 230.287 1339.22 229.901C1339.45 229.514 1339.78 229.213 1340.18 228.997C1340.59 228.781 1341.05 228.673 1341.56 228.673C1342.07 228.673 1342.52 228.781 1342.92 228.997C1343.31 229.213 1343.62 229.504 1343.85 229.871C1344.07 230.237 1344.18 230.645 1344.18 231.094C1344.18 231.415 1344.13 231.729 1344.01 232.036C1343.9 232.34 1343.7 232.679 1343.41 233.054C1343.13 233.426 1342.74 233.881 1342.24 234.418L1340.28 236.514V236.583H1344.34V237.52H1338.83ZM1348.82 237.639C1348.32 237.639 1347.87 237.54 1347.47 237.341C1347.07 237.142 1346.75 236.869 1346.51 236.523C1346.27 236.176 1346.14 235.781 1346.11 235.338H1347.14C1347.18 235.733 1347.36 236.06 1347.67 236.318C1347.99 236.574 1348.38 236.702 1348.82 236.702C1349.18 236.702 1349.5 236.618 1349.78 236.45C1350.06 236.283 1350.28 236.053 1350.44 235.76C1350.6 235.465 1350.68 235.131 1350.68 234.759C1350.68 234.378 1350.6 234.038 1350.43 233.74C1350.27 233.439 1350.04 233.202 1349.75 233.029C1349.46 232.855 1349.13 232.767 1348.76 232.764C1348.49 232.761 1348.21 232.803 1347.93 232.888C1347.65 232.97 1347.42 233.077 1347.24 233.208L1346.25 233.088L1346.78 228.793H1351.31V229.73H1347.66L1347.36 232.304H1347.41C1347.59 232.162 1347.81 232.044 1348.08 231.95C1348.35 231.857 1348.63 231.81 1348.93 231.81C1349.46 231.81 1349.94 231.938 1350.35 232.193C1350.77 232.446 1351.1 232.793 1351.34 233.233C1351.58 233.673 1351.7 234.176 1351.7 234.742C1351.7 235.298 1351.58 235.796 1351.33 236.233C1351.08 236.668 1350.74 237.011 1350.31 237.264C1349.87 237.514 1349.38 237.639 1348.82 237.639Z" fill="#666666"/>
<path d="M65 5V221" stroke="#666666"/>
<path d="M59 221H65" stroke="#666666"/>
<path d="M45.75 224.649C45.215 224.649 44.7592 224.504 44.3828 224.213C44.0064 223.919 43.7188 223.494 43.5199 222.938C43.321 222.379 43.2216 221.704 43.2216 220.914C43.2216 220.128 43.321 219.457 43.5199 218.9C43.7211 218.341 44.0099 217.915 44.3864 217.622C44.7652 217.326 45.2197 217.178 45.75 217.178C46.2803 217.178 46.7337 217.326 47.1101 217.622C47.4889 217.915 47.7777 218.341 47.9766 218.9C48.1778 219.457 48.2784 220.128 48.2784 220.914C48.2784 221.704 48.179 222.379 47.9801 222.938C47.7812 223.494 47.4936 223.919 47.1172 224.213C46.7408 224.504 46.285 224.649 45.75 224.649ZM45.75 223.868C46.2803 223.868 46.6922 223.613 46.9858 223.101C47.2794 222.59 47.4261 221.861 47.4261 220.914C47.4261 220.284 47.3587 219.748 47.2237 219.305C47.0911 218.862 46.8994 218.525 46.6484 218.293C46.3999 218.061 46.1004 217.945 45.75 217.945C45.2244 217.945 44.8137 218.204 44.5178 218.723C44.2218 219.239 44.0739 219.969 44.0739 220.914C44.0739 221.543 44.1402 222.078 44.2727 222.519C44.4053 222.959 44.5959 223.294 44.8445 223.524C45.0954 223.753 45.3973 223.868 45.75 223.868ZM53.3352 223.186V222.803C53.3352 222.538 53.3897 222.295 53.4986 222.075C53.6098 221.852 53.7708 221.675 53.9815 221.542C54.1946 221.407 54.4527 221.34 54.7557 221.34C55.0634 221.34 55.3215 221.407 55.5298 221.542C55.7382 221.675 55.8956 221.852 56.0021 222.075C56.1087 222.295 56.1619 222.538 56.1619 222.803V223.186C56.1619 223.452 56.1075 223.695 55.9986 223.918C55.892 224.138 55.7334 224.316 55.5227 224.451C55.3144 224.583 55.0587 224.649 54.7557 224.649C54.4479 224.649 54.1887 224.583 53.978 224.451C53.7673 224.316 53.6075 224.138 53.4986 223.918C53.3897 223.695 53.3352 223.452 53.3352 223.186ZM54.0597 222.803V223.186C54.0597 223.407 54.1117 223.604 54.2159 223.779C54.3201 223.952 54.5 224.039 54.7557 224.039C55.0043 224.039 55.1795 223.952 55.2812 223.779C55.3854 223.604 55.4375 223.407 55.4375 223.186V222.803C55.4375 222.583 55.3878 222.386 55.2884 222.213C55.1889 222.038 55.0114 221.951 54.7557 221.951C54.5071 221.951 54.3284 222.038 54.2195 222.213C54.1129 222.386 54.0597 222.583 54.0597 222.803ZM49.7131 219.024V218.641C49.7131 218.376 49.7675 218.133 49.8764 217.913C49.9877 217.69 50.1487 217.513 50.3594 217.38C50.5724 217.245 50.8305 217.178 51.1335 217.178C51.4413 217.178 51.6993 217.245 51.9077 217.38C52.116 217.513 52.2734 217.69 52.38 217.913C52.4865 218.133 52.5398 218.376 52.5398 218.641V219.024C52.5398 219.29 52.4853 219.533 52.3764 219.756C52.2699 219.976 52.1113 220.154 51.9006 220.289C51.6922 220.421 51.4366 220.488 51.1335 220.488C50.8258 220.488 50.5665 220.421 50.3558 220.289C50.1451 220.154 49.9853 219.976 49.8764 219.756C49.7675 219.533 49.7131 219.29 49.7131 219.024ZM50.4375 218.641V219.024C50.4375 219.245 50.4896 219.442 50.5938 219.618C50.6979 219.79 50.8778 219.877 51.1335 219.877C51.3821 219.877 51.5573 219.79 51.6591 219.618C51.7633 219.442 51.8153 219.245 51.8153 219.024V218.641C51.8153 218.421 51.7656 218.224 51.6662 218.051C51.5668 217.876 51.3892 217.789 51.1335 217.789C50.8849 217.789 50.7062 217.876 50.5973 218.051C50.4908 218.224 50.4375 218.421 50.4375 218.641ZM49.983 224.55L54.983 217.277H55.7926L50.7926 224.55H49.983Z" fill="#666666"/>
<path d="M59 156.2H65" stroke="#666666"/>
<path d="M41.4522 152.477V159.75H40.5716V153.401H40.5289L38.7534 154.58V153.685L40.5716 152.477H41.4522ZM45.8166 159.849C45.3999 159.849 45.0247 159.767 44.6909 159.601C44.3571 159.435 44.0895 159.208 43.8883 158.919C43.6871 158.63 43.577 158.301 43.5581 157.932H44.4103C44.4435 158.261 44.5926 158.533 44.8578 158.749C45.1253 158.962 45.4449 159.068 45.8166 159.068C46.1149 159.068 46.38 158.998 46.612 158.859C46.8464 158.719 47.0299 158.527 47.1625 158.283C47.2974 158.037 47.3649 157.759 47.3649 157.449C47.3649 157.132 47.295 156.849 47.1554 156.6C47.0181 156.349 46.8287 156.152 46.5872 156.007C46.3457 155.863 46.0699 155.789 45.7598 155.787C45.5372 155.785 45.3088 155.819 45.0744 155.89C44.84 155.959 44.6471 156.047 44.4956 156.156L43.6717 156.057L44.112 152.477H47.8904V153.259H44.8507L44.595 155.403H44.6376C44.7868 155.285 44.9738 155.187 45.1987 155.109C45.4236 155.031 45.658 154.991 45.9018 154.991C46.3469 154.991 46.7434 155.098 47.0914 155.311C47.4418 155.522 47.7164 155.811 47.9153 156.178C48.1165 156.545 48.2172 156.964 48.2172 157.435C48.2172 157.899 48.113 158.313 47.9047 158.678C47.6987 159.04 47.4146 159.326 47.0524 159.537C46.6902 159.745 46.2782 159.849 45.8166 159.849ZM53.3352 158.386V158.003C53.3352 157.738 53.3897 157.495 53.4986 157.275C53.6098 157.052 53.7708 156.875 53.9815 156.742C54.1946 156.607 54.4527 156.54 54.7557 156.54C55.0634 156.54 55.3215 156.607 55.5298 156.742C55.7382 156.875 55.8956 157.052 56.0021 157.275C56.1087 157.495 56.1619 157.738 56.1619 158.003V158.386C56.1619 158.652 56.1075 158.895 55.9986 159.118C55.892 159.338 55.7334 159.516 55.5227 159.651C55.3144 159.783 55.0587 159.849 54.7557 159.849C54.4479 159.849 54.1887 159.783 53.978 159.651C53.7673 159.516 53.6075 159.338 53.4986 159.118C53.3897 158.895 53.3352 158.652 53.3352 158.386ZM54.0597 158.003V158.386C54.0597 158.607 54.1117 158.804 54.2159 158.979C54.3201 159.152 54.5 159.239 54.7557 159.239C55.0043 159.239 55.1795 159.152 55.2812 158.979C55.3854 158.804 55.4375 158.607 55.4375 158.386V158.003C55.4375 157.783 55.3878 157.586 55.2884 157.413C55.1889 157.238 55.0114 157.151 54.7557 157.151C54.5071 157.151 54.3284 157.238 54.2195 157.413C54.1129 157.586 54.0597 157.783 54.0597 158.003ZM49.7131 154.224V153.841C49.7131 153.576 49.7675 153.333 49.8764 153.113C49.9877 152.89 50.1487 152.713 50.3594 152.58C50.5724 152.445 50.8305 152.378 51.1335 152.378C51.4413 152.378 51.6993 152.445 51.9077 152.58C52.116 152.713 52.2734 152.89 52.38 153.113C52.4865 153.333 52.5398 153.576 52.5398 153.841V154.224C52.5398 154.49 52.4853 154.733 52.3764 154.956C52.2699 155.176 52.1113 155.354 51.9006 155.489C51.6922 155.621 51.4366 155.688 51.1335 155.688C50.8258 155.688 50.5665 155.621 50.3558 155.489C50.1451 155.354 49.9853 155.176 49.8764 154.956C49.7675 154.733 49.7131 154.49 49.7131 154.224ZM50.4375 153.841V154.224C50.4375 154.445 50.4896 154.642 50.5938 154.817C50.6979 154.99 50.8778 155.077 51.1335 155.077C51.3821 155.077 51.5573 154.99 51.6591 154.817C51.7633 154.642 51.8153 154.445 51.8153 154.224V153.841C51.8153 153.621 51.7656 153.424 51.6662 153.251C51.5668 153.076 51.3892 152.989 51.1335 152.989C50.8849 152.989 50.7062 153.076 50.5973 153.251C50.4908 153.424 50.4375 153.621 50.4375 153.841ZM49.983 159.75L54.983 152.477H55.7926L50.7926 159.75H49.983Z" fill="#666666"/>
<path d="M59 91.3999H65" stroke="#666666"/>
<path d="M39.468 95.0494C38.9993 95.0494 38.5814 94.9689 38.2145 94.8079C37.8499 94.6469 37.5599 94.4232 37.3445 94.1367C37.1314 93.8479 37.0154 93.5129 36.9964 93.1318H37.8913C37.9103 93.3661 37.9908 93.5686 38.1328 93.739C38.2749 93.9071 38.4607 94.0373 38.6903 94.1296C38.92 94.222 39.1745 94.2681 39.4538 94.2681C39.7663 94.2681 40.0433 94.2137 40.2848 94.1048C40.5263 93.9959 40.7157 93.8444 40.853 93.6502C40.9903 93.4561 41.0589 93.2312 41.0589 92.9755C41.0589 92.708 40.9927 92.4724 40.8601 92.2688C40.7275 92.0629 40.5334 91.9019 40.2777 91.7859C40.022 91.6699 39.7095 91.6119 39.3402 91.6119H38.7578V90.8306H39.3402C39.629 90.8306 39.8823 90.7785 40.1001 90.6744C40.3203 90.5702 40.492 90.4234 40.6151 90.234C40.7405 90.0446 40.8033 89.8221 40.8033 89.5664C40.8033 89.3202 40.7488 89.106 40.6399 88.9237C40.531 88.7414 40.3771 88.5993 40.1783 88.4975C39.9818 88.3957 39.7498 88.3448 39.4822 88.3448C39.2313 88.3448 38.9946 88.391 38.772 88.4833C38.5518 88.5733 38.3719 88.7047 38.2322 88.8775C38.0926 89.048 38.0168 89.2539 38.005 89.4954H37.1527C37.1669 89.1143 37.2817 88.7804 37.4972 88.494C37.7126 88.2052 37.9943 87.9803 38.3423 87.8193C38.6927 87.6583 39.0774 87.5778 39.4964 87.5778C39.9463 87.5778 40.3321 87.6689 40.6541 87.8512C40.9761 88.0312 41.2235 88.2691 41.3963 88.565C41.5691 88.8609 41.6555 89.1805 41.6555 89.5238C41.6555 89.9334 41.5478 90.2826 41.3324 90.5714C41.1193 90.8602 40.8293 91.0603 40.4624 91.1715V91.2284C40.9216 91.3041 41.2803 91.4994 41.5384 91.8143C41.7964 92.1268 41.9254 92.5139 41.9254 92.9755C41.9254 93.3709 41.8177 93.726 41.6023 94.0409C41.3892 94.3534 41.098 94.5996 40.7287 94.7795C40.3594 94.9594 39.9392 95.0494 39.468 95.0494ZM45.75 95.0494C45.215 95.0494 44.7592 94.9038 44.3828 94.6126C44.0064 94.319 43.7188 93.8941 43.5199 93.3377C43.321 92.779 43.2216 92.1043 43.2216 91.3136C43.2216 90.5276 43.321 89.8564 43.5199 89.3001C43.7211 88.7414 44.0099 88.3152 44.3864 88.0217C44.7652 87.7258 45.2197 87.5778 45.75 87.5778C46.2803 87.5778 46.7337 87.7258 47.1101 88.0217C47.4889 88.3152 47.7777 88.7414 47.9766 89.3001C48.1778 89.8564 48.2784 90.5276 48.2784 91.3136C48.2784 92.1043 48.179 92.779 47.9801 93.3377C47.7812 93.8941 47.4936 94.319 47.1172 94.6126C46.7408 94.9038 46.285 95.0494 45.75 95.0494ZM45.75 94.2681C46.2803 94.2681 46.6922 94.0125 46.9858 93.5011C47.2794 92.9897 47.4261 92.2606 47.4261 91.3136C47.4261 90.6839 47.3587 90.1476 47.2237 89.7049C47.0911 89.2622 46.8994 88.9249 46.6484 88.6928C46.3999 88.4608 46.1004 88.3448 45.75 88.3448C45.2244 88.3448 44.8137 88.6041 44.5178 89.1225C44.2218 89.6386 44.0739 90.369 44.0739 91.3136C44.0739 91.9433 44.1402 92.4784 44.2727 92.9187C44.4053 93.359 44.5959 93.694 44.8445 93.9237C45.0954 94.1533 45.3973 94.2681 45.75 94.2681ZM53.3352 93.5863V93.2028C53.3352 92.9376 53.3897 92.695 53.4986 92.4748C53.6098 92.2523 53.7708 92.0747 53.9815 91.9421C54.1946 91.8072 54.4527 91.7397 54.7557 91.7397C55.0634 91.7397 55.3215 91.8072 55.5298 91.9421C55.7382 92.0747 55.8956 92.2523 56.0021 92.4748C56.1087 92.695 56.1619 92.9376 56.1619 93.2028V93.5863C56.1619 93.8515 56.1075 94.0953 55.9986 94.3178C55.892 94.538 55.7334 94.7156 55.5227 94.8505C55.3144 94.9831 55.0587 95.0494 54.7557 95.0494C54.4479 95.0494 54.1887 94.9831 53.978 94.8505C53.7673 94.7156 53.6075 94.538 53.4986 94.3178C53.3897 94.0953 53.3352 93.8515 53.3352 93.5863ZM54.0597 93.2028V93.5863C54.0597 93.8065 54.1117 94.0042 54.2159 94.1794C54.3201 94.3522 54.5 94.4386 54.7557 94.4386C55.0043 94.4386 55.1795 94.3522 55.2812 94.1794C55.3854 94.0042 55.4375 93.8065 55.4375 93.5863V93.2028C55.4375 92.9826 55.3878 92.7861 55.2884 92.6133C55.1889 92.4381 55.0114 92.3505 54.7557 92.3505C54.5071 92.3505 54.3284 92.4381 54.2195 92.6133C54.1129 92.7861 54.0597 92.9826 54.0597 93.2028ZM49.7131 89.4244V89.0409C49.7131 88.7757 49.7675 88.533 49.8764 88.3129C49.9877 88.0903 50.1487 87.9128 50.3594 87.7802C50.5724 87.6453 50.8305 87.5778 51.1335 87.5778C51.4413 87.5778 51.6993 87.6453 51.9077 87.7802C52.116 87.9128 52.2734 88.0903 52.38 88.3129C52.4865 88.533 52.5398 88.7757 52.5398 89.0409V89.4244C52.5398 89.6895 52.4853 89.9334 52.3764 90.1559C52.2699 90.3761 52.1113 90.5536 51.9006 90.6886C51.6922 90.8212 51.4366 90.8875 51.1335 90.8875C50.8258 90.8875 50.5665 90.8212 50.3558 90.6886C50.1451 90.5536 49.9853 90.3761 49.8764 90.1559C49.7675 89.9334 49.7131 89.6895 49.7131 89.4244ZM50.4375 89.0409V89.4244C50.4375 89.6446 50.4896 89.8422 50.5938 90.0174C50.6979 90.1902 50.8778 90.2767 51.1335 90.2767C51.3821 90.2767 51.5573 90.1902 51.6591 90.0174C51.7633 89.8422 51.8153 89.6446 51.8153 89.4244V89.0409C51.8153 88.8207 51.7656 88.6242 51.6662 88.4514C51.5668 88.2762 51.3892 88.1886 51.1335 88.1886C50.8849 88.1886 50.7062 88.2762 50.5973 88.4514C50.4908 88.6242 50.4375 88.8207 50.4375 89.0409ZM49.983 94.95L54.983 87.6772H55.7926L50.7926 94.95H49.983Z" fill="#666666"/>
<path d="M59 5H65" stroke="#666666"/>
<path d="M39.5666 11.1495C39.1499 11.1495 38.7747 11.0666 38.4409 10.9009C38.1071 10.7352 37.8395 10.5079 37.6383 10.2191C37.4371 9.93026 37.327 9.60119 37.3081 9.23187H38.1603C38.1935 9.56094 38.3426 9.83319 38.6078 10.0486C38.8753 10.2617 39.1949 10.3682 39.5666 10.3682C39.8649 10.3682 40.13 10.2984 40.362 10.1587C40.5964 10.019 40.7799 9.82727 40.9125 9.58343C41.0474 9.33722 41.1149 9.05905 41.1149 8.74891C41.1149 8.43168 41.045 8.14877 40.9054 7.90019C40.7681 7.64924 40.5787 7.45156 40.3372 7.30715C40.0957 7.16274 39.8199 7.08935 39.5098 7.08698C39.2872 7.08461 39.0588 7.11894 38.8244 7.18996C38.59 7.25862 38.3971 7.3474 38.2456 7.4563L37.4217 7.35687L37.862 3.77732H41.6404V4.55857H38.6007L38.345 6.70346H38.3876C38.5368 6.58509 38.7238 6.48684 38.9487 6.40871C39.1736 6.33059 39.408 6.29153 39.6518 6.29153C40.0969 6.29153 40.4934 6.39806 40.8414 6.61113C41.1918 6.82183 41.4664 7.11065 41.6653 7.47761C41.8665 7.84456 41.9672 8.26359 41.9672 8.73471C41.9672 9.19872 41.863 9.61302 41.6547 9.97761C41.4487 10.3398 41.1646 10.6263 40.8024 10.837C40.4402 11.0453 40.0282 11.1495 39.5666 11.1495ZM45.75 11.1495C45.215 11.1495 44.7592 11.0039 44.3828 10.7127C44.0064 10.4191 43.7188 9.99418 43.5199 9.43783C43.321 8.87912 43.2216 8.2044 43.2216 7.41369C43.2216 6.6277 43.321 5.95654 43.5199 5.40019C43.7211 4.84148 44.0099 4.41534 44.3864 4.12178C44.7652 3.82585 45.2197 3.67789 45.75 3.67789C46.2803 3.67789 46.7337 3.82585 47.1101 4.12178C47.4889 4.41534 47.7777 4.84148 47.9766 5.40019C48.1778 5.95654 48.2784 6.6277 48.2784 7.41369C48.2784 8.2044 48.179 8.87912 47.9801 9.43783C47.7812 9.99418 47.4936 10.4191 47.1172 10.7127C46.7408 11.0039 46.285 11.1495 45.75 11.1495ZM45.75 10.3682C46.2803 10.3682 46.6922 10.1125 46.9858 9.60119C47.2794 9.08982 47.4261 8.36065 47.4261 7.41369C47.4261 6.78395 47.3587 6.24773 47.2237 5.80502C47.0911 5.36231 46.8994 5.02495 46.6484 4.79295C46.3999 4.56094 46.1004 4.44494 45.75 4.44494C45.2244 4.44494 44.8137 4.70417 44.5178 5.22263C44.2218 5.73873 44.0739 6.46908 44.0739 7.41369C44.0739 8.04342 44.1402 8.57846 44.2727 9.0188C44.4053 9.45914 44.5959 9.79413 44.8445 10.0238C45.0954 10.2534 45.3973 10.3682 45.75 10.3682ZM53.3352 9.68641V9.30289C53.3352 9.03774 53.3897 8.79508 53.4986 8.57491C53.6098 8.35237 53.7708 8.17481 53.9815 8.04224C54.1946 7.90729 54.4527 7.83982 54.7557 7.83982C55.0634 7.83982 55.3215 7.90729 55.5298 8.04224C55.7382 8.17481 55.8956 8.35237 56.0021 8.57491C56.1087 8.79508 56.1619 9.03774 56.1619 9.30289V9.68641C56.1619 9.95156 56.1075 10.1954 55.9986 10.4179C55.892 10.6381 55.7334 10.8157 55.5227 10.9506C55.3144 11.0832 55.0587 11.1495 54.7557 11.1495C54.4479 11.1495 54.1887 11.0832 53.978 10.9506C53.7673 10.8157 53.6075 10.6381 53.4986 10.4179C53.3897 10.1954 53.3352 9.95156 53.3352 9.68641ZM54.0597 9.30289V9.68641C54.0597 9.90658 54.1117 10.1043 54.2159 10.2795C54.3201 10.4523 54.5 10.5387 54.7557 10.5387C55.0043 10.5387 55.1795 10.4523 55.2812 10.2795C55.3854 10.1043 55.4375 9.90658 55.4375 9.68641V9.30289C55.4375 9.08272 55.3878 8.88622 55.2884 8.7134C55.1889 8.53821 55.0114 8.45062 54.7557 8.45062C54.5071 8.45062 54.3284 8.53821 54.2195 8.7134C54.1129 8.88622 54.0597 9.08272 54.0597 9.30289ZM49.7131 5.52448V5.14096C49.7131 4.87581 49.7675 4.63315 49.8764 4.41297C49.9877 4.19044 50.1487 4.01288 50.3594 3.8803C50.5724 3.74536 50.8305 3.67789 51.1335 3.67789C51.4413 3.67789 51.6993 3.74536 51.9077 3.8803C52.116 4.01288 52.2734 4.19044 52.38 4.41297C52.4865 4.63315 52.5398 4.87581 52.5398 5.14096V5.52448C52.5398 5.78963 52.4853 6.03348 52.3764 6.25601C52.2699 6.47619 52.1113 6.65374 51.9006 6.78869C51.6922 6.92126 51.4366 6.98755 51.1335 6.98755C50.8258 6.98755 50.5665 6.92126 50.3558 6.78869C50.1451 6.65374 49.9853 6.47619 49.8764 6.25601C49.7675 6.03348 49.7131 5.78963 49.7131 5.52448ZM50.4375 5.14096V5.52448C50.4375 5.74465 50.4896 5.94233 50.5938 6.11752C50.6979 6.29034 50.8778 6.37675 51.1335 6.37675C51.3821 6.37675 51.5573 6.29034 51.6591 6.11752C51.7633 5.94233 51.8153 5.74465 51.8153 5.52448V5.14096C51.8153 4.92079 51.7656 4.72429 51.6662 4.55147C51.5668 4.37628 51.3892 4.28869 51.1335 4.28869C50.8849 4.28869 50.7062 4.37628 50.5973 4.55147C50.4908 4.72429 50.4375 4.92079 50.4375 5.14096ZM49.983 11.05L54.983 3.77732H55.7926L50.7926 11.05H49.983Z" fill="#666666"/>
<path d="M65 49.4961C171.833 50.6121 278.667 51.7281 385.5 53.8161C492.333 55.9041 599.167 62.0241 706 62.0241C812.833 62.0241 919.667 41.2881 1026.5 41.2881C1133.33 41.2881 1240.17 60.5121 1347 79.7361" stroke="#009189" stroke-width="2.5"/>
<path d="M65 53.4961C67.2091 53.4961 69 51.7052 69 49.4961C69 47.287 67.2091 45.4961 65 45.4961C62.7909 45.4961 61 47.287 61 49.4961C61 51.7052 62.7909 53.4961 65 53.4961Z" fill="white" stroke="#009189" stroke-width="2.5"/>
<path d="M385.5 57.8162C387.709 57.8162 389.5 56.0253 389.5 53.8162C389.5 51.607 387.709 49.8162 385.5 49.8162C383.291 49.8162 381.5 51.607 381.5 53.8162C381.5 56.0253 383.291 57.8162 385.5 57.8162Z" fill="white" stroke="#009189" stroke-width="2.5"/>
<path d="M706 66.0242C708.209 66.0242 710 64.2333 710 62.0242C710 59.815 708.209 58.0242 706 58.0242C703.791 58.0242 702 59.815 702 62.0242C702 64.2333 703.791 66.0242 706 66.0242Z" fill="white" stroke="#009189" stroke-width="2.5"/>
<path d="M1026.5 45.2881C1028.71 45.2881 1030.5 43.4972 1030.5 41.2881C1030.5 39.0789 1028.71 37.2881 1026.5 37.2881C1024.29 37.2881 1022.5 39.0789 1022.5 41.2881C1022.5 43.4972 1024.29 45.2881 1026.5 45.2881Z" fill="white" stroke="#009189" stroke-width="2.5"/>
<path d="M1347 83.7361C1349.21 83.7361 1351 81.9452 1351 79.7361C1351 77.5269 1349.21 75.7361 1347 75.7361C1344.79 75.7361 1343 77.5269 1343 79.7361C1343 81.9452 1344.79 83.7361 1347 83.7361Z" fill="white" stroke="#009189" stroke-width="2.5"/>
<path d="M65 49.4961C171.833 50.6121 278.667 51.7281 385.5 53.8161C492.333 55.9041 599.167 62.0241 706 62.0241C812.833 62.0241 919.667 41.2881 1026.5 41.2881C1133.33 41.2881 1240.17 60.5121 1347 79.7361" stroke="#20419A" stroke-width="2" stroke-dasharray="4 2 4 2 4 2 4 2"/>
<path d="M65 53.4961C67.2091 53.4961 69 51.7052 69 49.4961C69 47.287 67.2091 45.4961 65 45.4961C62.7909 45.4961 61 47.287 61 49.4961C61 51.7052 62.7909 53.4961 65 53.4961Z" fill="white" stroke="#20419A" stroke-width="2" stroke-dasharray="4 2"/>
<path d="M385.5 57.8162C387.709 57.8162 389.5 56.0253 389.5 53.8162C389.5 51.607 387.709 49.8162 385.5 49.8162C383.291 49.8162 381.5 51.607 381.5 53.8162C381.5 56.0253 383.291 57.8162 385.5 57.8162Z" fill="white" stroke="#20419A" stroke-width="2" stroke-dasharray="4 2"/>
<path d="M706 66.0242C708.209 66.0242 710 64.2333 710 62.0242C710 59.815 708.209 58.0242 706 58.0242C703.791 58.0242 702 59.815 702 62.0242C702 64.2333 703.791 66.0242 706 66.0242Z" fill="white" stroke="#20419A" stroke-width="2" stroke-dasharray="4 2"/>
<path d="M1026.5 45.2881C1028.71 45.2881 1030.5 43.4972 1030.5 41.2881C1030.5 39.0789 1028.71 37.2881 1026.5 37.2881C1024.29 37.2881 1022.5 39.0789 1022.5 41.2881C1022.5 43.4972 1024.29 45.2881 1026.5 45.2881Z" fill="white" stroke="#20419A" stroke-width="2" stroke-dasharray="4 2"/>
<path d="M1347 83.7361C1349.21 83.7361 1351 81.9452 1351 79.7361C1351 77.5269 1349.21 75.7361 1347 75.7361C1344.79 75.7361 1343 77.5269 1343 79.7361C1343 81.9452 1344.79 83.7361 1347 83.7361Z" fill="white" stroke="#20419A" stroke-width="2" stroke-dasharray="4 2"/>
</g>
<g clip-path="url(#clip1_2_4032)">
<path d="M502.25 263.797H506.917M506.917 263.797C506.917 263.178 507.162 262.585 507.6 262.147C508.038 261.709 508.631 261.464 509.25 261.464C509.869 261.464 510.462 261.709 510.9 262.147C511.338 262.585 511.583 263.178 511.583 263.797M506.917 263.797C506.917 264.416 507.162 265.009 507.6 265.447C508.038 265.884 508.631 266.13 509.25 266.13C509.869 266.13 510.462 265.884 510.9 265.447C511.338 265.009 511.583 264.416 511.583 263.797M511.583 263.797H516.25" stroke="#009189" stroke-width="1.75"/>
</g>
<path d="M527.369 269.096C526.515 269.096 525.726 268.957 525.001 268.68C524.286 268.392 523.662 267.992 523.129 267.48C522.606 266.968 522.195 266.365 521.897 265.672C521.609 264.979 521.465 264.221 521.465 263.4C521.465 262.579 521.609 261.821 521.897 261.128C522.195 260.435 522.611 259.832 523.145 259.32C523.678 258.808 524.302 258.413 525.017 258.136C525.742 257.848 526.531 257.704 527.385 257.704C528.238 257.704 529.017 257.837 529.721 258.104C530.435 258.371 531.043 258.776 531.545 259.32L530.809 260.072C530.339 259.603 529.822 259.267 529.257 259.064C528.691 258.861 528.083 258.76 527.433 258.76C526.739 258.76 526.099 258.877 525.513 259.112C524.937 259.336 524.43 259.661 523.993 260.088C523.566 260.504 523.23 260.995 522.985 261.56C522.75 262.115 522.633 262.728 522.633 263.4C522.633 264.061 522.75 264.675 522.985 265.24C523.23 265.805 523.566 266.301 523.993 266.728C524.43 267.144 524.937 267.469 525.513 267.704C526.099 267.928 526.734 268.04 527.417 268.04C528.057 268.04 528.659 267.944 529.225 267.752C529.801 267.56 530.329 267.235 530.809 266.776L531.481 267.672C530.947 268.141 530.323 268.499 529.609 268.744C528.894 268.979 528.147 269.096 527.369 269.096ZM530.345 267.528V263.4H531.481V267.672L530.345 267.528ZM534.592 269V260.6H535.68V262.888L535.568 262.488C535.802 261.848 536.197 261.363 536.752 261.032C537.306 260.691 537.994 260.52 538.816 260.52V261.624C538.773 261.624 538.73 261.624 538.688 261.624C538.645 261.613 538.602 261.608 538.56 261.608C537.674 261.608 536.981 261.88 536.48 262.424C535.978 262.957 535.728 263.72 535.728 264.712V269H534.592ZM544.235 269.08C543.424 269.08 542.693 268.899 542.043 268.536C541.403 268.163 540.896 267.656 540.523 267.016C540.149 266.365 539.963 265.624 539.963 264.792C539.963 263.949 540.149 263.208 540.523 262.568C540.896 261.928 541.403 261.427 542.043 261.064C542.683 260.701 543.413 260.52 544.235 260.52C545.067 260.52 545.803 260.701 546.443 261.064C547.093 261.427 547.6 261.928 547.963 262.568C548.336 263.208 548.523 263.949 548.523 264.792C548.523 265.624 548.336 266.365 547.963 267.016C547.6 267.656 547.093 268.163 546.443 268.536C545.792 268.899 545.056 269.08 544.235 269.08ZM544.235 268.072C544.843 268.072 545.381 267.939 545.851 267.672C546.32 267.395 546.688 267.011 546.955 266.52C547.232 266.019 547.371 265.443 547.371 264.792C547.371 264.131 547.232 263.555 546.955 263.064C546.688 262.573 546.32 262.195 545.851 261.928C545.381 261.651 544.848 261.512 544.251 261.512C543.653 261.512 543.12 261.651 542.651 261.928C542.181 262.195 541.808 262.573 541.531 263.064C541.253 263.555 541.115 264.131 541.115 264.792C541.115 265.443 541.253 266.019 541.531 266.52C541.808 267.011 542.181 267.395 542.651 267.672C543.12 267.939 543.648 268.072 544.235 268.072ZM553.098 269.08C552.404 269.08 551.748 268.984 551.13 268.792C550.511 268.589 550.026 268.339 549.674 268.04L550.186 267.144C550.527 267.4 550.964 267.624 551.498 267.816C552.031 267.997 552.591 268.088 553.178 268.088C553.978 268.088 554.554 267.965 554.906 267.72C555.258 267.464 555.434 267.128 555.434 266.712C555.434 266.403 555.332 266.163 555.13 265.992C554.938 265.811 554.682 265.677 554.362 265.592C554.042 265.496 553.684 265.416 553.29 265.352C552.895 265.288 552.5 265.213 552.106 265.128C551.722 265.043 551.37 264.92 551.05 264.76C550.73 264.589 550.468 264.36 550.266 264.072C550.074 263.784 549.978 263.4 549.978 262.92C549.978 262.461 550.106 262.051 550.362 261.688C550.618 261.325 550.991 261.043 551.482 260.84C551.983 260.627 552.591 260.52 553.306 260.52C553.85 260.52 554.394 260.595 554.938 260.744C555.482 260.883 555.93 261.069 556.282 261.304L555.786 262.216C555.412 261.96 555.012 261.779 554.586 261.672C554.159 261.555 553.732 261.496 553.306 261.496C552.548 261.496 551.988 261.629 551.626 261.896C551.274 262.152 551.098 262.483 551.098 262.888C551.098 263.208 551.194 263.459 551.386 263.64C551.588 263.821 551.85 263.965 552.17 264.072C552.5 264.168 552.858 264.248 553.242 264.312C553.636 264.376 554.026 264.456 554.41 264.552C554.804 264.637 555.162 264.76 555.482 264.92C555.812 265.069 556.074 265.288 556.266 265.576C556.468 265.853 556.57 266.221 556.57 266.68C556.57 267.171 556.431 267.597 556.154 267.96C555.887 268.312 555.492 268.589 554.97 268.792C554.458 268.984 553.834 269.08 553.098 269.08ZM560.91 269.08C560.217 269.08 559.561 268.984 558.942 268.792C558.324 268.589 557.838 268.339 557.486 268.04L557.998 267.144C558.34 267.4 558.777 267.624 559.31 267.816C559.844 267.997 560.404 268.088 560.99 268.088C561.79 268.088 562.366 267.965 562.718 267.72C563.07 267.464 563.246 267.128 563.246 266.712C563.246 266.403 563.145 266.163 562.942 265.992C562.75 265.811 562.494 265.677 562.174 265.592C561.854 265.496 561.497 265.416 561.102 265.352C560.708 265.288 560.313 265.213 559.918 265.128C559.534 265.043 559.182 264.92 558.862 264.76C558.542 264.589 558.281 264.36 558.078 264.072C557.886 263.784 557.79 263.4 557.79 262.92C557.79 262.461 557.918 262.051 558.174 261.688C558.43 261.325 558.804 261.043 559.294 260.84C559.796 260.627 560.404 260.52 561.118 260.52C561.662 260.52 562.206 260.595 562.75 260.744C563.294 260.883 563.742 261.069 564.094 261.304L563.598 262.216C563.225 261.96 562.825 261.779 562.398 261.672C561.972 261.555 561.545 261.496 561.118 261.496C560.361 261.496 559.801 261.629 559.438 261.896C559.086 262.152 558.91 262.483 558.91 262.888C558.91 263.208 559.006 263.459 559.198 263.64C559.401 263.821 559.662 263.965 559.982 264.072C560.313 264.168 560.67 264.248 561.054 264.312C561.449 264.376 561.838 264.456 562.222 264.552C562.617 264.637 562.974 264.76 563.294 264.92C563.625 265.069 563.886 265.288 564.078 265.576C564.281 265.853 564.382 266.221 564.382 266.68C564.382 267.171 564.244 267.597 563.966 267.96C563.7 268.312 563.305 268.589 562.782 268.792C562.27 268.984 561.646 269.08 560.91 269.08ZM570.894 269V257.8H575.086C576.036 257.8 576.852 257.955 577.534 258.264C578.217 258.563 578.74 259 579.102 259.576C579.476 260.141 579.662 260.829 579.662 261.64C579.662 262.429 579.476 263.112 579.102 263.688C578.74 264.253 578.217 264.691 577.534 265C576.852 265.309 576.036 265.464 575.086 265.464H571.55L572.078 264.904V269H570.894ZM572.078 265L571.55 264.424H575.054C576.174 264.424 577.022 264.184 577.598 263.704C578.185 263.213 578.478 262.525 578.478 261.64C578.478 260.744 578.185 260.051 577.598 259.56C577.022 259.069 576.174 258.824 575.054 258.824H571.55L572.078 258.264V265ZM581.764 269V260.6H582.852V262.888L582.74 262.488C582.974 261.848 583.369 261.363 583.924 261.032C584.478 260.691 585.166 260.52 585.988 260.52V261.624C585.945 261.624 585.902 261.624 585.86 261.624C585.817 261.613 585.774 261.608 585.732 261.608C584.846 261.608 584.153 261.88 583.652 262.424C583.15 262.957 582.9 263.72 582.9 264.712V269H581.764ZM591.406 269.08C590.596 269.08 589.865 268.899 589.214 268.536C588.574 268.163 588.068 267.656 587.694 267.016C587.321 266.365 587.134 265.624 587.134 264.792C587.134 263.949 587.321 263.208 587.694 262.568C588.068 261.928 588.574 261.427 589.214 261.064C589.854 260.701 590.585 260.52 591.406 260.52C592.238 260.52 592.974 260.701 593.614 261.064C594.265 261.427 594.772 261.928 595.134 262.568C595.508 263.208 595.694 263.949 595.694 264.792C595.694 265.624 595.508 266.365 595.134 267.016C594.772 267.656 594.265 268.163 593.614 268.536C592.964 268.899 592.228 269.08 591.406 269.08ZM591.406 268.072C592.014 268.072 592.553 267.939 593.022 267.672C593.492 267.395 593.86 267.011 594.126 266.52C594.404 266.019 594.542 265.443 594.542 264.792C594.542 264.131 594.404 263.555 594.126 263.064C593.86 262.573 593.492 262.195 593.022 261.928C592.553 261.651 592.02 261.512 591.422 261.512C590.825 261.512 590.292 261.651 589.822 261.928C589.353 262.195 588.98 262.573 588.702 263.064C588.425 263.555 588.286 264.131 588.286 264.792C588.286 265.443 588.425 266.019 588.702 266.52C588.98 267.011 589.353 267.395 589.822 267.672C590.292 267.939 590.82 268.072 591.406 268.072ZM598.206 269V259.544C598.206 258.797 598.424 258.195 598.862 257.736C599.299 257.277 599.928 257.048 600.75 257.048C601.07 257.048 601.379 257.091 601.678 257.176C601.976 257.261 602.227 257.395 602.43 257.576L602.046 258.424C601.886 258.285 601.699 258.184 601.486 258.12C601.272 258.045 601.043 258.008 600.798 258.008C600.318 258.008 599.95 258.141 599.694 258.408C599.438 258.675 599.31 259.069 599.31 259.592V260.872L599.342 261.4V269H598.206ZM596.702 261.544V260.6H601.902V261.544H596.702ZM603.438 269V260.6H604.574V269H603.438ZM604.014 258.744C603.779 258.744 603.582 258.664 603.422 258.504C603.262 258.344 603.182 258.152 603.182 257.928C603.182 257.704 603.262 257.517 603.422 257.368C603.582 257.208 603.779 257.128 604.014 257.128C604.248 257.128 604.446 257.203 604.606 257.352C604.766 257.501 604.846 257.688 604.846 257.912C604.846 258.147 604.766 258.344 604.606 258.504C604.456 258.664 604.259 258.744 604.014 258.744ZM610.42 269.08C609.63 269.08 609.022 268.867 608.596 268.44C608.169 268.013 607.956 267.411 607.956 266.632V258.744H609.092V266.568C609.092 267.059 609.214 267.437 609.46 267.704C609.716 267.971 610.078 268.104 610.548 268.104C611.049 268.104 611.465 267.96 611.796 267.672L612.196 268.488C611.972 268.691 611.7 268.84 611.38 268.936C611.07 269.032 610.75 269.08 610.42 269.08ZM606.452 261.544V260.6H611.652V261.544H606.452ZM618.691 269V257.8H619.667L624.787 266.536H624.275L629.347 257.8H630.323V269H629.187V259.576H629.459L624.787 267.576H624.227L619.523 259.576H619.827V269H618.691ZM638.996 269V267.144L638.948 266.84V263.736C638.948 263.021 638.746 262.472 638.34 262.088C637.946 261.704 637.354 261.512 636.564 261.512C636.02 261.512 635.503 261.603 635.012 261.784C634.522 261.965 634.106 262.205 633.764 262.504L633.252 261.656C633.679 261.293 634.191 261.016 634.788 260.824C635.386 260.621 636.015 260.52 636.676 260.52C637.764 260.52 638.602 260.792 639.188 261.336C639.786 261.869 640.084 262.685 640.084 263.784V269H638.996ZM636.1 269.08C635.471 269.08 634.922 268.979 634.452 268.776C633.994 268.563 633.642 268.275 633.396 267.912C633.151 267.539 633.028 267.112 633.028 266.632C633.028 266.195 633.13 265.8 633.332 265.448C633.546 265.085 633.887 264.797 634.356 264.584C634.836 264.36 635.476 264.248 636.276 264.248H639.172V265.096H636.308C635.498 265.096 634.932 265.24 634.612 265.528C634.303 265.816 634.148 266.173 634.148 266.6C634.148 267.08 634.335 267.464 634.708 267.752C635.082 268.04 635.604 268.184 636.276 268.184C636.916 268.184 637.466 268.04 637.924 267.752C638.394 267.453 638.735 267.027 638.948 266.472L639.204 267.256C638.991 267.811 638.618 268.253 638.084 268.584C637.562 268.915 636.9 269.08 636.1 269.08ZM643.17 269V260.6H644.258V262.888L644.146 262.488C644.381 261.848 644.775 261.363 645.33 261.032C645.885 260.691 646.573 260.52 647.394 260.52V261.624C647.351 261.624 647.309 261.624 647.266 261.624C647.223 261.613 647.181 261.608 647.138 261.608C646.253 261.608 645.559 261.88 645.058 262.424C644.557 262.957 644.306 263.72 644.306 264.712V269H643.17ZM652.973 272.184C652.205 272.184 651.469 272.072 650.765 271.848C650.061 271.624 649.49 271.304 649.053 270.888L649.629 270.024C650.023 270.376 650.509 270.653 651.085 270.856C651.671 271.069 652.29 271.176 652.941 271.176C654.007 271.176 654.791 270.925 655.293 270.424C655.794 269.933 656.045 269.165 656.045 268.12V266.024L656.205 264.584L656.093 263.144V260.6H657.181V267.976C657.181 269.427 656.823 270.488 656.109 271.16C655.405 271.843 654.359 272.184 652.973 272.184ZM652.765 268.68C651.965 268.68 651.245 268.509 650.605 268.168C649.965 267.816 649.458 267.331 649.085 266.712C648.722 266.093 648.541 265.384 648.541 264.584C648.541 263.784 648.722 263.08 649.085 262.472C649.458 261.853 649.965 261.373 650.605 261.032C651.245 260.691 651.965 260.52 652.765 260.52C653.511 260.52 654.183 260.675 654.781 260.984C655.378 261.293 655.853 261.752 656.205 262.36C656.557 262.968 656.733 263.709 656.733 264.584C656.733 265.459 656.557 266.2 656.205 266.808C655.853 267.416 655.378 267.88 654.781 268.2C654.183 268.52 653.511 268.68 652.765 268.68ZM652.877 267.672C653.495 267.672 654.045 267.544 654.525 267.288C655.005 267.021 655.383 266.659 655.661 266.2C655.938 265.731 656.077 265.192 656.077 264.584C656.077 263.976 655.938 263.443 655.661 262.984C655.383 262.525 655.005 262.168 654.525 261.912C654.045 261.645 653.495 261.512 652.877 261.512C652.269 261.512 651.719 261.645 651.229 261.912C650.749 262.168 650.37 262.525 650.093 262.984C649.826 263.443 649.693 263.976 649.693 264.584C649.693 265.192 649.826 265.731 650.093 266.2C650.37 266.659 650.749 267.021 651.229 267.288C651.719 267.544 652.269 267.672 652.877 267.672ZM660.342 269V260.6H661.478V269H660.342ZM660.918 258.744C660.683 258.744 660.486 258.664 660.326 258.504C660.166 258.344 660.086 258.152 660.086 257.928C660.086 257.704 660.166 257.517 660.326 257.368C660.486 257.208 660.683 257.128 660.918 257.128C661.152 257.128 661.35 257.203 661.51 257.352C661.67 257.501 661.75 257.688 661.75 257.912C661.75 258.147 661.67 258.344 661.51 258.504C661.36 258.664 661.163 258.744 660.918 258.744ZM668.927 260.52C669.609 260.52 670.207 260.653 670.719 260.92C671.241 261.176 671.647 261.571 671.935 262.104C672.233 262.637 672.383 263.309 672.383 264.12V269H671.247V264.232C671.247 263.347 671.023 262.68 670.575 262.232C670.137 261.773 669.519 261.544 668.719 261.544C668.121 261.544 667.599 261.667 667.151 261.912C666.713 262.147 666.372 262.493 666.127 262.952C665.892 263.4 665.775 263.944 665.775 264.584V269H664.639V260.6H665.727V262.904L665.551 262.472C665.817 261.864 666.244 261.389 666.831 261.048C667.417 260.696 668.116 260.52 668.927 260.52Z" fill="#009189"/>
<g clip-path="url(#clip2_2_4032)">
<path d="M683.531 263.797H688.198M688.198 263.797C688.198 263.178 688.444 262.585 688.881 262.147C689.319 261.709 689.912 261.464 690.531 261.464C691.15 261.464 691.744 261.709 692.181 262.147C692.619 262.585 692.865 263.178 692.865 263.797M688.198 263.797C688.198 264.416 688.444 265.009 688.881 265.447C689.319 265.884 689.912 266.13 690.531 266.13C691.15 266.13 691.744 265.884 692.181 265.447C692.619 265.009 692.865 264.416 692.865 263.797M692.865 263.797H697.531" stroke="#20419A" stroke-width="1.75"/>
</g>
<path d="M703.777 269V257.8H704.753L712.481 267.528H711.969V257.8H713.137V269H712.161L704.449 259.272H704.961V269H703.777ZM720.121 269.08C719.246 269.08 718.478 268.899 717.817 268.536C717.155 268.163 716.638 267.656 716.265 267.016C715.891 266.365 715.705 265.624 715.705 264.792C715.705 263.96 715.881 263.224 716.233 262.584C716.595 261.944 717.086 261.443 717.705 261.08C718.334 260.707 719.038 260.52 719.817 260.52C720.606 260.52 721.305 260.701 721.913 261.064C722.531 261.416 723.017 261.917 723.369 262.568C723.721 263.208 723.897 263.949 723.897 264.792C723.897 264.845 723.891 264.904 723.881 264.968C723.881 265.021 723.881 265.08 723.881 265.144H716.569V264.296H723.273L722.825 264.632C722.825 264.024 722.691 263.485 722.425 263.016C722.169 262.536 721.817 262.163 721.369 261.896C720.921 261.629 720.403 261.496 719.817 261.496C719.241 261.496 718.723 261.629 718.265 261.896C717.806 262.163 717.449 262.536 717.193 263.016C716.937 263.496 716.809 264.045 716.809 264.664V264.84C716.809 265.48 716.947 266.045 717.225 266.536C717.513 267.016 717.907 267.395 718.409 267.672C718.921 267.939 719.502 268.072 720.153 268.072C720.665 268.072 721.139 267.981 721.577 267.8C722.025 267.619 722.409 267.341 722.729 266.968L723.369 267.704C722.995 268.152 722.526 268.493 721.961 268.728C721.406 268.963 720.793 269.08 720.121 269.08ZM728.865 269.08C728.076 269.08 727.468 268.867 727.041 268.44C726.614 268.013 726.401 267.411 726.401 266.632V258.744H727.537V266.568C727.537 267.059 727.66 267.437 727.905 267.704C728.161 267.971 728.524 268.104 728.993 268.104C729.494 268.104 729.91 267.96 730.241 267.672L730.641 268.488C730.417 268.691 730.145 268.84 729.825 268.936C729.516 269.032 729.196 269.08 728.865 269.08ZM724.897 261.544V260.6H730.097V261.544H724.897ZM737.137 269V257.8H741.329C742.278 257.8 743.094 257.955 743.777 258.264C744.459 258.563 744.982 259 745.345 259.576C745.718 260.141 745.905 260.829 745.905 261.64C745.905 262.429 745.718 263.112 745.345 263.688C744.982 264.253 744.459 264.691 743.777 265C743.094 265.309 742.278 265.464 741.329 265.464H737.793L738.321 264.904V269H737.137ZM738.321 265L737.793 264.424H741.297C742.417 264.424 743.265 264.184 743.841 263.704C744.427 263.213 744.72 262.525 744.72 261.64C744.72 260.744 744.427 260.051 743.841 259.56C743.265 259.069 742.417 258.824 741.297 258.824H737.793L738.321 258.264V265ZM748.006 269V260.6H749.094V262.888L748.982 262.488C749.217 261.848 749.611 261.363 750.166 261.032C750.721 260.691 751.409 260.52 752.23 260.52V261.624C752.187 261.624 752.145 261.624 752.102 261.624C752.059 261.613 752.017 261.608 751.974 261.608C751.089 261.608 750.395 261.88 749.894 262.424C749.393 262.957 749.142 263.72 749.142 264.712V269H748.006ZM757.649 269.08C756.838 269.08 756.107 268.899 755.457 268.536C754.817 268.163 754.31 267.656 753.937 267.016C753.563 266.365 753.377 265.624 753.377 264.792C753.377 263.949 753.563 263.208 753.937 262.568C754.31 261.928 754.817 261.427 755.457 261.064C756.097 260.701 756.827 260.52 757.649 260.52C758.481 260.52 759.217 260.701 759.857 261.064C760.507 261.427 761.014 261.928 761.377 262.568C761.75 263.208 761.937 263.949 761.937 264.792C761.937 265.624 761.75 266.365 761.377 267.016C761.014 267.656 760.507 268.163 759.857 268.536C759.206 268.899 758.47 269.08 757.649 269.08ZM757.649 268.072C758.257 268.072 758.795 267.939 759.265 267.672C759.734 267.395 760.102 267.011 760.369 266.52C760.646 266.019 760.785 265.443 760.785 264.792C760.785 264.131 760.646 263.555 760.369 263.064C760.102 262.573 759.734 262.195 759.265 261.928C758.795 261.651 758.262 261.512 757.665 261.512C757.067 261.512 756.534 261.651 756.065 261.928C755.595 262.195 755.222 262.573 754.945 263.064C754.667 263.555 754.529 264.131 754.529 264.792C754.529 265.443 754.667 266.019 754.945 266.52C755.222 267.011 755.595 267.395 756.065 267.672C756.534 267.939 757.062 268.072 757.649 268.072ZM764.448 269V259.544C764.448 258.797 764.667 258.195 765.104 257.736C765.541 257.277 766.171 257.048 766.992 257.048C767.312 257.048 767.621 257.091 767.92 257.176C768.219 257.261 768.469 257.395 768.672 257.576L768.288 258.424C768.128 258.285 767.941 258.184 767.728 258.12C767.515 258.045 767.285 258.008 767.04 258.008C766.56 258.008 766.192 258.141 765.936 258.408C765.68 258.675 765.552 259.069 765.552 259.592V260.872L765.584 261.4V269H764.448ZM762.944 261.544V260.6H768.144V261.544H762.944ZM769.68 269V260.6H770.816V269H769.68ZM770.256 258.744C770.021 258.744 769.824 258.664 769.664 258.504C769.504 258.344 769.424 258.152 769.424 257.928C769.424 257.704 769.504 257.517 769.664 257.368C769.824 257.208 770.021 257.128 770.256 257.128C770.491 257.128 770.688 257.203 770.848 257.352C771.008 257.501 771.088 257.688 771.088 257.912C771.088 258.147 771.008 258.344 770.848 258.504C770.699 258.664 770.501 258.744 770.256 258.744ZM776.662 269.08C775.873 269.08 775.265 268.867 774.838 268.44C774.411 268.013 774.198 267.411 774.198 266.632V258.744H775.334V266.568C775.334 267.059 775.457 267.437 775.702 267.704C775.958 267.971 776.321 268.104 776.79 268.104C777.291 268.104 777.707 267.96 778.038 267.672L778.438 268.488C778.214 268.691 777.942 268.84 777.622 268.936C777.313 269.032 776.993 269.08 776.662 269.08ZM772.694 261.544V260.6H777.894V261.544H772.694ZM784.933 269V257.8H785.909L791.029 266.536H790.517L795.589 257.8H796.565V269H795.429V259.576H795.701L791.029 267.576H790.469L785.765 259.576H786.069V269H784.933ZM805.239 269V267.144L805.191 266.84V263.736C805.191 263.021 804.988 262.472 804.583 262.088C804.188 261.704 803.596 261.512 802.807 261.512C802.263 261.512 801.745 261.603 801.255 261.784C800.764 261.965 800.348 262.205 800.007 262.504L799.495 261.656C799.921 261.293 800.433 261.016 801.031 260.824C801.628 260.621 802.257 260.52 802.919 260.52C804.007 260.52 804.844 260.792 805.431 261.336C806.028 261.869 806.327 262.685 806.327 263.784V269H805.239ZM802.343 269.08C801.713 269.08 801.164 268.979 800.695 268.776C800.236 268.563 799.884 268.275 799.639 267.912C799.393 267.539 799.271 267.112 799.271 266.632C799.271 266.195 799.372 265.8 799.575 265.448C799.788 265.085 800.129 264.797 800.599 264.584C801.079 264.36 801.719 264.248 802.519 264.248H805.415V265.096H802.551C801.74 265.096 801.175 265.24 800.855 265.528C800.545 265.816 800.391 266.173 800.391 266.6C800.391 267.08 800.577 267.464 800.951 267.752C801.324 268.04 801.847 268.184 802.519 268.184C803.159 268.184 803.708 268.04 804.167 267.752C804.636 267.453 804.977 267.027 805.191 266.472L805.447 267.256C805.233 267.811 804.86 268.253 804.327 268.584C803.804 268.915 803.143 269.08 802.343 269.08ZM809.412 269V260.6H810.5V262.888L810.388 262.488C810.623 261.848 811.017 261.363 811.572 261.032C812.127 260.691 812.815 260.52 813.636 260.52V261.624C813.593 261.624 813.551 261.624 813.508 261.624C813.465 261.613 813.423 261.608 813.38 261.608C812.495 261.608 811.801 261.88 811.3 262.424C810.799 262.957 810.548 263.72 810.548 264.712V269H809.412ZM819.215 272.184C818.447 272.184 817.711 272.072 817.007 271.848C816.303 271.624 815.732 271.304 815.295 270.888L815.871 270.024C816.266 270.376 816.751 270.653 817.327 270.856C817.914 271.069 818.532 271.176 819.183 271.176C820.25 271.176 821.034 270.925 821.535 270.424C822.036 269.933 822.287 269.165 822.287 268.12V266.024L822.447 264.584L822.335 263.144V260.6H823.423V267.976C823.423 269.427 823.066 270.488 822.351 271.16C821.647 271.843 820.602 272.184 819.215 272.184ZM819.007 268.68C818.207 268.68 817.487 268.509 816.847 268.168C816.207 267.816 815.7 267.331 815.327 266.712C814.964 266.093 814.783 265.384 814.783 264.584C814.783 263.784 814.964 263.08 815.327 262.472C815.7 261.853 816.207 261.373 816.847 261.032C817.487 260.691 818.207 260.52 819.007 260.52C819.754 260.52 820.426 260.675 821.023 260.984C821.62 261.293 822.095 261.752 822.447 262.36C822.799 262.968 822.975 263.709 822.975 264.584C822.975 265.459 822.799 266.2 822.447 266.808C822.095 267.416 821.62 267.88 821.023 268.2C820.426 268.52 819.754 268.68 819.007 268.68ZM819.119 267.672C819.738 267.672 820.287 267.544 820.767 267.288C821.247 267.021 821.626 266.659 821.903 266.2C822.18 265.731 822.319 265.192 822.319 264.584C822.319 263.976 822.18 263.443 821.903 262.984C821.626 262.525 821.247 262.168 820.767 261.912C820.287 261.645 819.738 261.512 819.119 261.512C818.511 261.512 817.962 261.645 817.471 261.912C816.991 262.168 816.612 262.525 816.335 262.984C816.068 263.443 815.935 263.976 815.935 264.584C815.935 265.192 816.068 265.731 816.335 266.2C816.612 266.659 816.991 267.021 817.471 267.288C817.962 267.544 818.511 267.672 819.119 267.672ZM826.584 269V260.6H827.72V269H826.584ZM827.16 258.744C826.925 258.744 826.728 258.664 826.568 258.504C826.408 258.344 826.328 258.152 826.328 257.928C826.328 257.704 826.408 257.517 826.568 257.368C826.728 257.208 826.925 257.128 827.16 257.128C827.395 257.128 827.592 257.203 827.752 257.352C827.912 257.501 827.992 257.688 827.992 257.912C827.992 258.147 827.912 258.344 827.752 258.504C827.603 258.664 827.405 258.744 827.16 258.744ZM835.169 260.52C835.852 260.52 836.449 260.653 836.961 260.92C837.484 261.176 837.889 261.571 838.177 262.104C838.476 262.637 838.625 263.309 838.625 264.12V269H837.489V264.232C837.489 263.347 837.265 262.68 836.817 262.232C836.38 261.773 835.761 261.544 834.961 261.544C834.364 261.544 833.841 261.667 833.393 261.912C832.956 262.147 832.614 262.493 832.369 262.952C832.134 263.4 832.017 263.944 832.017 264.584V269H830.881V260.6H831.969V262.904L831.793 262.472C832.06 261.864 832.486 261.389 833.073 261.048C833.66 260.696 834.358 260.52 835.169 260.52Z" fill="#20419A"/>
<defs>
<clipPath id="clip0_2_4032">
<rect width="1352" height="280" fill="white"/>
</clipPath>
<clipPath id="clip1_2_4032">
<rect width="14" height="14" fill="white" transform="translate(502.25 256.797)"/>
</clipPath>
<clipPath id="clip2_2_4032">
<rect width="14" height="14" fill="white" transform="translate(683.531 256.797)"/>
</clipPath>
</defs>
</svg>
