<svg width="1352" height="300" viewBox="0 0 1352 300" fill="none" xmlns="http://www.w3.org/2000/svg">
<path d="M65 241H1347" stroke="#F0F0F0" stroke-dasharray="3 3"/>
<path d="M65 182H1347" stroke="#F0F0F0" stroke-dasharray="3 3"/>
<path d="M65 123H1347" stroke="#F0F0F0" stroke-dasharray="3 3"/>
<path d="M65 64H1347" stroke="#F0F0F0" stroke-dasharray="3 3"/>
<path d="M65 5H1347" stroke="#F0F0F0" stroke-dasharray="3 3"/>
<path d="M225.25 5V241" stroke="#F0F0F0" stroke-dasharray="3 3"/>
<path d="M545.75 5V241" stroke="#F0F0F0" stroke-dasharray="3 3"/>
<path d="M866.25 5V241" stroke="#F0F0F0" stroke-dasharray="3 3"/>
<path d="M1186.75 5V241" stroke="#F0F0F0" stroke-dasharray="3 3"/>
<path d="M65 5V241" stroke="#F0F0F0" stroke-dasharray="3 3"/>
<path d="M1347 5V241" stroke="#F0F0F0" stroke-dasharray="3 3"/>
<path d="M65 241H1347" stroke="#666666"/>
<path d="M225.25 247V241" stroke="#666666"/>
<path d="M203.854 256.81V248.81H206.557C207.182 248.81 207.695 248.917 208.096 249.13C208.497 249.341 208.794 249.632 208.986 250.001C209.179 250.371 209.275 250.792 209.275 251.263C209.275 251.735 209.179 252.153 208.986 252.517C208.794 252.882 208.498 253.168 208.1 253.376C207.701 253.582 207.192 253.685 206.572 253.685H204.385V252.81H206.541C206.968 252.81 207.312 252.748 207.572 252.623C207.835 252.498 208.025 252.32 208.143 252.091C208.262 251.86 208.322 251.583 208.322 251.263C208.322 250.943 208.262 250.663 208.143 250.423C208.023 250.184 207.831 249.999 207.568 249.869C207.305 249.736 206.958 249.669 206.525 249.669H204.822V256.81H203.854ZM207.619 253.216L209.588 256.81H208.463L206.525 253.216H207.619ZM213.216 256.935C212.638 256.935 212.139 256.807 211.72 256.552C211.303 256.294 210.981 255.935 210.755 255.474C210.531 255.011 210.419 254.472 210.419 253.857C210.419 253.242 210.531 252.701 210.755 252.232C210.981 251.761 211.297 251.393 211.7 251.13C212.106 250.865 212.58 250.732 213.122 250.732C213.435 250.732 213.743 250.784 214.048 250.888C214.353 250.992 214.63 251.162 214.88 251.396C215.13 251.628 215.329 251.935 215.478 252.318C215.626 252.701 215.7 253.172 215.7 253.732V254.123H211.075V253.326H214.763C214.763 252.987 214.695 252.685 214.56 252.419C214.427 252.154 214.237 251.944 213.989 251.791C213.744 251.637 213.455 251.56 213.122 251.56C212.755 251.56 212.437 251.651 212.169 251.833C211.903 252.013 211.699 252.248 211.556 252.537C211.412 252.826 211.341 253.136 211.341 253.466V253.998C211.341 254.451 211.419 254.835 211.575 255.15C211.734 255.462 211.954 255.701 212.235 255.865C212.517 256.026 212.843 256.107 213.216 256.107C213.458 256.107 213.677 256.073 213.872 256.005C214.07 255.935 214.241 255.831 214.384 255.693C214.527 255.552 214.638 255.378 214.716 255.169L215.606 255.419C215.513 255.722 215.355 255.987 215.134 256.216C214.912 256.443 214.639 256.62 214.313 256.748C213.988 256.873 213.622 256.935 213.216 256.935ZM221.826 250.81L219.607 256.81H218.67L216.451 250.81H217.451L219.107 255.591H219.17L220.826 250.81H221.826ZM225.344 256.935C224.766 256.935 224.267 256.807 223.848 256.552C223.431 256.294 223.109 255.935 222.883 255.474C222.659 255.011 222.547 254.472 222.547 253.857C222.547 253.242 222.659 252.701 222.883 252.232C223.109 251.761 223.424 251.393 223.828 251.13C224.234 250.865 224.708 250.732 225.25 250.732C225.563 250.732 225.871 250.784 226.176 250.888C226.48 250.992 226.758 251.162 227.008 251.396C227.258 251.628 227.457 251.935 227.605 252.318C227.754 252.701 227.828 253.172 227.828 253.732V254.123H223.203V253.326H226.891C226.891 252.987 226.823 252.685 226.688 252.419C226.555 252.154 226.365 251.944 226.117 251.791C225.872 251.637 225.583 251.56 225.25 251.56C224.883 251.56 224.565 251.651 224.297 251.833C224.031 252.013 223.827 252.248 223.684 252.537C223.54 252.826 223.469 253.136 223.469 253.466V253.998C223.469 254.451 223.547 254.835 223.703 255.15C223.862 255.462 224.082 255.701 224.363 255.865C224.645 256.026 224.971 256.107 225.344 256.107C225.586 256.107 225.805 256.073 226 256.005C226.198 255.935 226.368 255.831 226.512 255.693C226.655 255.552 226.766 255.378 226.844 255.169L227.734 255.419C227.641 255.722 227.483 255.987 227.262 256.216C227.04 256.443 226.767 256.62 226.441 256.748C226.116 256.873 225.75 256.935 225.344 256.935ZM230.152 253.201V256.81H229.23V250.81H230.121V251.748H230.199C230.34 251.443 230.553 251.198 230.84 251.013C231.126 250.826 231.496 250.732 231.949 250.732C232.355 250.732 232.711 250.815 233.016 250.982C233.32 251.146 233.557 251.396 233.727 251.732C233.896 252.065 233.98 252.487 233.98 252.998V256.81H233.059V253.06C233.059 252.589 232.936 252.222 232.691 251.958C232.447 251.693 232.111 251.56 231.684 251.56C231.389 251.56 231.126 251.624 230.895 251.751C230.665 251.879 230.484 252.065 230.352 252.31C230.219 252.555 230.152 252.852 230.152 253.201ZM239.446 254.357V250.81H240.368V256.81H239.446V255.794H239.384C239.243 256.099 239.024 256.358 238.728 256.572C238.431 256.783 238.056 256.888 237.603 256.888C237.228 256.888 236.894 256.806 236.603 256.642C236.311 256.475 236.082 256.225 235.915 255.892C235.748 255.556 235.665 255.133 235.665 254.623V250.81H236.587V254.56C236.587 254.998 236.709 255.347 236.954 255.607C237.201 255.867 237.517 255.998 237.899 255.998C238.129 255.998 238.362 255.939 238.599 255.822C238.838 255.705 239.039 255.525 239.2 255.283C239.364 255.041 239.446 254.732 239.446 254.357ZM244.572 256.935C243.994 256.935 243.495 256.807 243.076 256.552C242.66 256.294 242.338 255.935 242.111 255.474C241.887 255.011 241.775 254.472 241.775 253.857C241.775 253.242 241.887 252.701 242.111 252.232C242.338 251.761 242.653 251.393 243.057 251.13C243.463 250.865 243.937 250.732 244.479 250.732C244.791 250.732 245.1 250.784 245.404 250.888C245.709 250.992 245.986 251.162 246.236 251.396C246.486 251.628 246.686 251.935 246.834 252.318C246.982 252.701 247.057 253.172 247.057 253.732V254.123H242.432V253.326H246.119C246.119 252.987 246.051 252.685 245.916 252.419C245.783 252.154 245.593 251.944 245.346 251.791C245.101 251.637 244.812 251.56 244.479 251.56C244.111 251.56 243.794 251.651 243.525 251.833C243.26 252.013 243.055 252.248 242.912 252.537C242.769 252.826 242.697 253.136 242.697 253.466V253.998C242.697 254.451 242.775 254.835 242.932 255.15C243.09 255.462 243.311 255.701 243.592 255.865C243.873 256.026 244.2 256.107 244.572 256.107C244.814 256.107 245.033 256.073 245.229 256.005C245.426 255.935 245.597 255.831 245.74 255.693C245.883 255.552 245.994 255.378 246.072 255.169L246.963 255.419C246.869 255.722 246.712 255.987 246.49 256.216C246.269 256.443 245.995 256.62 245.67 256.748C245.344 256.873 244.979 256.935 244.572 256.935Z" fill="#666666"/>
<path d="M545.75 247V241" stroke="#666666"/>
<path d="M521.556 251.31C521.47 251.047 521.357 250.811 521.216 250.603C521.078 250.392 520.913 250.212 520.72 250.064C520.53 249.916 520.314 249.802 520.072 249.724C519.83 249.646 519.564 249.607 519.275 249.607C518.801 249.607 518.37 249.729 517.982 249.974C517.594 250.219 517.285 250.58 517.056 251.056C516.827 251.533 516.712 252.117 516.712 252.81C516.712 253.503 516.828 254.087 517.06 254.564C517.292 255.041 517.606 255.401 518.001 255.646C518.397 255.891 518.843 256.013 519.337 256.013C519.796 256.013 520.199 255.916 520.548 255.72C520.9 255.522 521.173 255.244 521.369 254.884C521.567 254.522 521.666 254.097 521.666 253.607L521.962 253.669H519.556V252.81H522.603V253.669C522.603 254.328 522.462 254.901 522.181 255.388C521.903 255.875 521.517 256.253 521.025 256.521C520.535 256.787 519.973 256.919 519.337 256.919C518.629 256.919 518.007 256.753 517.47 256.419C516.936 256.086 516.52 255.612 516.22 254.998C515.923 254.383 515.775 253.654 515.775 252.81C515.775 252.177 515.86 251.608 516.029 251.103C516.201 250.595 516.443 250.163 516.755 249.806C517.068 249.449 517.438 249.176 517.865 248.986C518.292 248.796 518.762 248.701 519.275 248.701C519.697 248.701 520.09 248.764 520.455 248.892C520.822 249.017 521.149 249.195 521.435 249.427C521.724 249.656 521.965 249.931 522.158 250.251C522.35 250.569 522.483 250.922 522.556 251.31H521.556ZM524.137 256.81V250.81H525.028V251.716H525.09C525.2 251.419 525.398 251.179 525.684 250.994C525.971 250.809 526.293 250.716 526.653 250.716C526.721 250.716 526.805 250.718 526.907 250.72C527.008 250.723 527.085 250.727 527.137 250.732V251.669C527.106 251.662 527.034 251.65 526.922 251.634C526.813 251.616 526.697 251.607 526.575 251.607C526.283 251.607 526.023 251.668 525.793 251.791C525.567 251.91 525.387 252.077 525.254 252.291C525.124 252.501 525.059 252.742 525.059 253.013V256.81H524.137ZM530.485 256.935C529.943 256.935 529.468 256.806 529.059 256.548C528.653 256.291 528.335 255.93 528.106 255.466C527.879 255.003 527.766 254.461 527.766 253.841C527.766 253.216 527.879 252.671 528.106 252.205C528.335 251.738 528.653 251.376 529.059 251.119C529.468 250.861 529.943 250.732 530.485 250.732C531.027 250.732 531.5 250.861 531.907 251.119C532.316 251.376 532.633 251.738 532.86 252.205C533.089 252.671 533.204 253.216 533.204 253.841C533.204 254.461 533.089 255.003 532.86 255.466C532.633 255.93 532.316 256.291 531.907 256.548C531.5 256.806 531.027 256.935 530.485 256.935ZM530.485 256.107C530.896 256.107 531.235 256.001 531.5 255.791C531.766 255.58 531.963 255.302 532.09 254.958C532.218 254.615 532.282 254.242 532.282 253.841C532.282 253.44 532.218 253.067 532.09 252.72C531.963 252.374 531.766 252.094 531.5 251.88C531.235 251.667 530.896 251.56 530.485 251.56C530.073 251.56 529.735 251.667 529.469 251.88C529.204 252.094 529.007 252.374 528.879 252.72C528.752 253.067 528.688 253.44 528.688 253.841C528.688 254.242 528.752 254.615 528.879 254.958C529.007 255.302 529.204 255.58 529.469 255.791C529.735 256.001 530.073 256.107 530.485 256.107ZM538.861 252.154L538.033 252.388C537.981 252.25 537.904 252.116 537.802 251.986C537.703 251.853 537.568 251.744 537.396 251.658C537.224 251.572 537.004 251.529 536.736 251.529C536.369 251.529 536.063 251.613 535.818 251.783C535.576 251.949 535.455 252.162 535.455 252.419C535.455 252.649 535.538 252.83 535.705 252.962C535.871 253.095 536.132 253.206 536.486 253.294L537.376 253.513C537.913 253.643 538.313 253.843 538.576 254.111C538.839 254.376 538.97 254.719 538.97 255.138C538.97 255.482 538.871 255.789 538.673 256.06C538.478 256.331 538.205 256.544 537.853 256.701C537.501 256.857 537.093 256.935 536.626 256.935C536.014 256.935 535.508 256.802 535.107 256.537C534.706 256.271 534.452 255.883 534.345 255.373L535.22 255.154C535.304 255.477 535.461 255.719 535.693 255.88C535.927 256.042 536.233 256.123 536.611 256.123C537.041 256.123 537.382 256.031 537.634 255.849C537.889 255.664 538.017 255.443 538.017 255.185C538.017 254.977 537.944 254.802 537.798 254.662C537.653 254.518 537.429 254.412 537.126 254.341L536.126 254.107C535.577 253.977 535.173 253.775 534.916 253.501C534.66 253.225 534.533 252.88 534.533 252.466C534.533 252.128 534.628 251.828 534.818 251.568C535.011 251.307 535.272 251.103 535.603 250.955C535.936 250.806 536.314 250.732 536.736 250.732C537.33 250.732 537.796 250.862 538.134 251.123C538.475 251.383 538.718 251.727 538.861 252.154ZM544.608 252.154L543.78 252.388C543.728 252.25 543.651 252.116 543.549 251.986C543.45 251.853 543.315 251.744 543.143 251.658C542.971 251.572 542.751 251.529 542.483 251.529C542.116 251.529 541.81 251.613 541.565 251.783C541.323 251.949 541.202 252.162 541.202 252.419C541.202 252.649 541.285 252.83 541.452 252.962C541.618 253.095 541.879 253.206 542.233 253.294L543.124 253.513C543.66 253.643 544.06 253.843 544.323 254.111C544.586 254.376 544.717 254.719 544.717 255.138C544.717 255.482 544.618 255.789 544.42 256.06C544.225 256.331 543.952 256.544 543.6 256.701C543.249 256.857 542.84 256.935 542.374 256.935C541.762 256.935 541.255 256.802 540.854 256.537C540.453 256.271 540.199 255.883 540.092 255.373L540.967 255.154C541.051 255.477 541.208 255.719 541.44 255.88C541.674 256.042 541.98 256.123 542.358 256.123C542.788 256.123 543.129 256.031 543.381 255.849C543.637 255.664 543.764 255.443 543.764 255.185C543.764 254.977 543.691 254.802 543.545 254.662C543.4 254.518 543.176 254.412 542.874 254.341L541.874 254.107C541.324 253.977 540.92 253.775 540.663 253.501C540.407 253.225 540.28 252.88 540.28 252.466C540.28 252.128 540.375 251.828 540.565 251.568C540.758 251.307 541.019 251.103 541.35 250.955C541.683 250.806 542.061 250.732 542.483 250.732C543.077 250.732 543.543 250.862 543.881 251.123C544.222 251.383 544.465 251.727 544.608 252.154ZM549.324 256.81V248.81H552.027C552.654 248.81 553.167 248.923 553.566 249.15C553.967 249.374 554.264 249.677 554.457 250.06C554.649 250.443 554.746 250.87 554.746 251.341C554.746 251.813 554.649 252.241 554.457 252.626C554.266 253.012 553.972 253.319 553.574 253.548C553.175 253.775 552.665 253.888 552.042 253.888H550.105V253.029H552.011C552.441 253.029 552.786 252.955 553.046 252.806C553.307 252.658 553.496 252.457 553.613 252.205C553.733 251.949 553.792 251.662 553.792 251.341C553.792 251.021 553.733 250.735 553.613 250.482C553.496 250.229 553.306 250.031 553.042 249.888C552.779 249.742 552.431 249.669 551.996 249.669H550.292V256.81H549.324ZM556.181 256.81V250.81H557.072V251.716H557.134C557.244 251.419 557.442 251.179 557.728 250.994C558.014 250.809 558.337 250.716 558.697 250.716C558.764 250.716 558.849 250.718 558.951 250.72C559.052 250.723 559.129 250.727 559.181 250.732V251.669C559.15 251.662 559.078 251.65 558.966 251.634C558.857 251.616 558.741 251.607 558.619 251.607C558.327 251.607 558.067 251.668 557.837 251.791C557.611 251.91 557.431 252.077 557.298 252.291C557.168 252.501 557.103 252.742 557.103 253.013V256.81H556.181ZM562.529 256.935C561.987 256.935 561.512 256.806 561.103 256.548C560.697 256.291 560.379 255.93 560.15 255.466C559.923 255.003 559.81 254.461 559.81 253.841C559.81 253.216 559.923 252.671 560.15 252.205C560.379 251.738 560.697 251.376 561.103 251.119C561.512 250.861 561.987 250.732 562.529 250.732C563.07 250.732 563.544 250.861 563.951 251.119C564.36 251.376 564.677 251.738 564.904 252.205C565.133 252.671 565.248 253.216 565.248 253.841C565.248 254.461 565.133 255.003 564.904 255.466C564.677 255.93 564.36 256.291 563.951 256.548C563.544 256.806 563.07 256.935 562.529 256.935ZM562.529 256.107C562.94 256.107 563.279 256.001 563.544 255.791C563.81 255.58 564.007 255.302 564.134 254.958C564.262 254.615 564.326 254.242 564.326 253.841C564.326 253.44 564.262 253.067 564.134 252.72C564.007 252.374 563.81 252.094 563.544 251.88C563.279 251.667 562.94 251.56 562.529 251.56C562.117 251.56 561.779 251.667 561.513 251.88C561.248 252.094 561.051 252.374 560.923 252.72C560.796 253.067 560.732 253.44 560.732 253.841C560.732 254.242 560.796 254.615 560.923 254.958C561.051 255.302 561.248 255.58 561.513 255.791C561.779 256.001 562.117 256.107 562.529 256.107ZM569.327 250.81V251.591H566.092V250.81H569.327ZM567.061 256.81V249.982C567.061 249.638 567.142 249.352 567.303 249.123C567.465 248.893 567.674 248.722 567.932 248.607C568.19 248.492 568.462 248.435 568.749 248.435C568.975 248.435 569.16 248.453 569.303 248.49C569.446 248.526 569.553 248.56 569.624 248.591L569.358 249.388C569.311 249.373 569.246 249.353 569.163 249.33C569.082 249.306 568.975 249.294 568.842 249.294C568.538 249.294 568.318 249.371 568.182 249.525C568.049 249.679 567.983 249.904 567.983 250.201V256.81H567.061ZM570.619 256.81V250.81H571.541V256.81H570.619ZM571.087 249.81C570.908 249.81 570.753 249.749 570.623 249.626C570.495 249.504 570.431 249.357 570.431 249.185C570.431 249.013 570.495 248.866 570.623 248.744C570.753 248.621 570.908 248.56 571.087 248.56C571.267 248.56 571.421 248.621 571.548 248.744C571.679 248.866 571.744 249.013 571.744 249.185C571.744 249.357 571.679 249.504 571.548 249.626C571.421 249.749 571.267 249.81 571.087 249.81ZM575.838 250.81V251.591H572.729V250.81H575.838ZM573.635 249.373H574.557V255.091C574.557 255.352 574.595 255.547 574.67 255.677C574.749 255.805 574.847 255.891 574.967 255.935C575.09 255.977 575.219 255.998 575.354 255.998C575.456 255.998 575.539 255.992 575.604 255.982C575.669 255.969 575.721 255.958 575.76 255.951L575.948 256.779C575.885 256.802 575.798 256.826 575.686 256.849C575.574 256.875 575.432 256.888 575.26 256.888C575 256.888 574.745 256.832 574.495 256.72C574.247 256.608 574.042 256.438 573.877 256.208C573.716 255.979 573.635 255.69 573.635 255.341V249.373Z" fill="#666666"/>
<path d="M866.25 247V241" stroke="#666666"/>
<path d="M832.649 252.81C832.649 253.654 832.497 254.383 832.192 254.998C831.887 255.612 831.469 256.086 830.938 256.419C830.407 256.753 829.8 256.919 829.118 256.919C828.435 256.919 827.829 256.753 827.297 256.419C826.766 256.086 826.348 255.612 826.043 254.998C825.739 254.383 825.586 253.654 825.586 252.81C825.586 251.966 825.739 251.237 826.043 250.623C826.348 250.008 826.766 249.534 827.297 249.201C827.829 248.867 828.435 248.701 829.118 248.701C829.8 248.701 830.407 248.867 830.938 249.201C831.469 249.534 831.887 250.008 832.192 250.623C832.497 251.237 832.649 251.966 832.649 252.81ZM831.711 252.81C831.711 252.117 831.596 251.533 831.364 251.056C831.135 250.58 830.823 250.219 830.43 249.974C830.04 249.729 829.602 249.607 829.118 249.607C828.633 249.607 828.194 249.729 827.801 249.974C827.411 250.219 827.099 250.58 826.868 251.056C826.639 251.533 826.524 252.117 826.524 252.81C826.524 253.503 826.639 254.087 826.868 254.564C827.099 255.041 827.411 255.401 827.801 255.646C828.194 255.891 828.633 256.013 829.118 256.013C829.602 256.013 830.04 255.891 830.43 255.646C830.823 255.401 831.135 255.041 831.364 254.564C831.596 254.087 831.711 253.503 831.711 252.81ZM834.153 259.06V250.81H835.043V251.763H835.153C835.221 251.659 835.314 251.526 835.434 251.365C835.556 251.201 835.731 251.055 835.958 250.927C836.187 250.797 836.497 250.732 836.887 250.732C837.392 250.732 837.838 250.858 838.223 251.111C838.609 251.363 838.909 251.722 839.125 252.185C839.342 252.649 839.45 253.195 839.45 253.826C839.45 254.461 839.342 255.012 839.125 255.478C838.909 255.942 838.61 256.301 838.227 256.556C837.844 256.809 837.403 256.935 836.903 256.935C836.517 256.935 836.209 256.871 835.977 256.744C835.745 256.613 835.567 256.466 835.442 256.302C835.317 256.136 835.221 255.998 835.153 255.888H835.075V259.06H834.153ZM835.059 253.81C835.059 254.263 835.125 254.663 835.258 255.009C835.391 255.353 835.585 255.623 835.84 255.818C836.096 256.011 836.408 256.107 836.778 256.107C837.163 256.107 837.485 256.005 837.743 255.802C838.003 255.597 838.198 255.32 838.329 254.974C838.461 254.625 838.528 254.237 838.528 253.81C838.528 253.388 838.463 253.008 838.333 252.669C838.205 252.328 838.011 252.059 837.75 251.861C837.493 251.66 837.168 251.56 836.778 251.56C836.403 251.56 836.088 251.655 835.833 251.845C835.577 252.033 835.385 252.296 835.254 252.634C835.124 252.97 835.059 253.362 835.059 253.81ZM843.372 256.935C842.793 256.935 842.295 256.807 841.875 256.552C841.459 256.294 841.137 255.935 840.911 255.474C840.687 255.011 840.575 254.472 840.575 253.857C840.575 253.242 840.687 252.701 840.911 252.232C841.137 251.761 841.452 251.393 841.856 251.13C842.262 250.865 842.736 250.732 843.278 250.732C843.59 250.732 843.899 250.784 844.204 250.888C844.508 250.992 844.786 251.162 845.036 251.396C845.286 251.628 845.485 251.935 845.633 252.318C845.782 252.701 845.856 253.172 845.856 253.732V254.123H841.231V253.326H844.918C844.918 252.987 844.851 252.685 844.715 252.419C844.583 252.154 844.392 251.944 844.145 251.791C843.9 251.637 843.611 251.56 843.278 251.56C842.911 251.56 842.593 251.651 842.325 251.833C842.059 252.013 841.855 252.248 841.711 252.537C841.568 252.826 841.497 253.136 841.497 253.466V253.998C841.497 254.451 841.575 254.835 841.731 255.15C841.89 255.462 842.11 255.701 842.391 255.865C842.672 256.026 842.999 256.107 843.372 256.107C843.614 256.107 843.833 256.073 844.028 256.005C844.226 255.935 844.396 255.831 844.54 255.693C844.683 255.552 844.793 255.378 844.872 255.169L845.762 255.419C845.668 255.722 845.511 255.987 845.29 256.216C845.068 256.443 844.795 256.62 844.469 256.748C844.144 256.873 843.778 256.935 843.372 256.935ZM847.258 256.81V250.81H848.149V251.716H848.211C848.321 251.419 848.519 251.179 848.805 250.994C849.092 250.809 849.415 250.716 849.774 250.716C849.842 250.716 849.926 250.718 850.028 250.72C850.129 250.723 850.206 250.727 850.258 250.732V251.669C850.227 251.662 850.155 251.65 850.043 251.634C849.934 251.616 849.818 251.607 849.696 251.607C849.404 251.607 849.144 251.668 848.915 251.791C848.688 251.91 848.508 252.077 848.375 252.291C848.245 252.501 848.18 252.742 848.18 253.013V256.81H847.258ZM853.117 256.951C852.736 256.951 852.391 256.879 852.082 256.736C851.772 256.59 851.526 256.38 851.343 256.107C851.161 255.831 851.07 255.498 851.07 255.107C851.07 254.763 851.138 254.485 851.273 254.271C851.408 254.055 851.589 253.886 851.816 253.763C852.042 253.641 852.292 253.55 852.566 253.49C852.842 253.427 853.119 253.378 853.398 253.341C853.763 253.294 854.058 253.259 854.285 253.236C854.514 253.21 854.681 253.167 854.785 253.107C854.891 253.047 854.945 252.943 854.945 252.794V252.763C854.945 252.378 854.839 252.078 854.628 251.865C854.42 251.651 854.104 251.544 853.679 251.544C853.239 251.544 852.894 251.641 852.644 251.833C852.394 252.026 852.218 252.232 852.117 252.451L851.242 252.138C851.398 251.774 851.606 251.49 851.867 251.287C852.13 251.081 852.416 250.938 852.726 250.857C853.039 250.774 853.346 250.732 853.648 250.732C853.841 250.732 854.062 250.755 854.312 250.802C854.565 250.847 854.808 250.939 855.042 251.08C855.279 251.22 855.476 251.432 855.632 251.716C855.789 252 855.867 252.38 855.867 252.857V256.81H854.945V255.998H854.898C854.835 256.128 854.731 256.267 854.585 256.416C854.44 256.564 854.246 256.69 854.003 256.794C853.761 256.899 853.466 256.951 853.117 256.951ZM853.257 256.123C853.622 256.123 853.929 256.051 854.179 255.908C854.432 255.764 854.622 255.58 854.75 255.353C854.88 255.126 854.945 254.888 854.945 254.638V253.794C854.906 253.841 854.82 253.884 854.687 253.923C854.557 253.96 854.406 253.992 854.234 254.021C854.065 254.047 853.899 254.07 853.738 254.091C853.579 254.11 853.45 254.125 853.351 254.138C853.111 254.169 852.888 254.22 852.679 254.291C852.473 254.358 852.307 254.461 852.179 254.599C852.054 254.735 851.992 254.919 851.992 255.154C851.992 255.474 852.11 255.716 852.347 255.88C852.587 256.042 852.89 256.123 853.257 256.123ZM860.159 250.81V251.591H857.049V250.81H860.159ZM857.956 249.373H858.877V255.091C858.877 255.352 858.915 255.547 858.991 255.677C859.069 255.805 859.168 255.891 859.288 255.935C859.41 255.977 859.539 255.998 859.674 255.998C859.776 255.998 859.859 255.992 859.924 255.982C859.989 255.969 860.042 255.958 860.081 255.951L860.268 256.779C860.206 256.802 860.118 256.826 860.006 256.849C859.894 256.875 859.752 256.888 859.581 256.888C859.32 256.888 859.065 256.832 858.815 256.72C858.568 256.608 858.362 256.438 858.198 256.208C858.036 255.979 857.956 255.69 857.956 255.341V249.373ZM861.545 256.81V250.81H862.467V256.81H861.545ZM862.014 249.81C861.834 249.81 861.68 249.749 861.549 249.626C861.422 249.504 861.358 249.357 861.358 249.185C861.358 249.013 861.422 248.866 861.549 248.744C861.68 248.621 861.834 248.56 862.014 248.56C862.194 248.56 862.347 248.621 862.475 248.744C862.605 248.866 862.67 249.013 862.67 249.185C862.67 249.357 862.605 249.504 862.475 249.626C862.347 249.749 862.194 249.81 862.014 249.81ZM865.078 253.201V256.81H864.156V250.81H865.046V251.748H865.125C865.265 251.443 865.479 251.198 865.765 251.013C866.052 250.826 866.421 250.732 866.875 250.732C867.281 250.732 867.636 250.815 867.941 250.982C868.246 251.146 868.483 251.396 868.652 251.732C868.821 252.065 868.906 252.487 868.906 252.998V256.81H867.984V253.06C867.984 252.589 867.861 252.222 867.617 251.958C867.372 251.693 867.036 251.56 866.609 251.56C866.315 251.56 866.052 251.624 865.82 251.751C865.591 251.879 865.41 252.065 865.277 252.31C865.144 252.555 865.078 252.852 865.078 253.201ZM873.012 259.185C872.567 259.185 872.184 259.128 871.864 259.013C871.543 258.901 871.277 258.753 871.063 258.568C870.852 258.386 870.684 258.19 870.559 257.982L871.293 257.466C871.377 257.576 871.482 257.701 871.61 257.841C871.737 257.985 871.912 258.108 872.133 258.212C872.357 258.319 872.65 258.373 873.012 258.373C873.497 258.373 873.896 258.255 874.211 258.021C874.527 257.787 874.684 257.419 874.684 256.919V255.701H874.606C874.538 255.81 874.442 255.945 874.317 256.107C874.194 256.266 874.017 256.408 873.786 256.533C873.556 256.655 873.247 256.716 872.856 256.716C872.372 256.716 871.937 256.602 871.551 256.373C871.168 256.143 870.865 255.81 870.641 255.373C870.42 254.935 870.309 254.404 870.309 253.779C870.309 253.164 870.417 252.629 870.633 252.173C870.849 251.715 871.15 251.361 871.536 251.111C871.921 250.858 872.366 250.732 872.872 250.732C873.262 250.732 873.572 250.797 873.801 250.927C874.033 251.055 874.21 251.201 874.333 251.365C874.458 251.526 874.554 251.659 874.622 251.763H874.715V250.81H875.606V256.982C875.606 257.498 875.489 257.917 875.254 258.24C875.023 258.565 874.71 258.804 874.317 258.955C873.926 259.108 873.491 259.185 873.012 259.185ZM872.981 255.888C873.351 255.888 873.663 255.804 873.918 255.634C874.174 255.465 874.368 255.222 874.5 254.904C874.633 254.586 874.7 254.206 874.7 253.763C874.7 253.331 874.635 252.949 874.504 252.619C874.374 252.288 874.181 252.029 873.926 251.841C873.671 251.654 873.356 251.56 872.981 251.56C872.59 251.56 872.265 251.659 872.004 251.857C871.747 252.055 871.553 252.32 871.422 252.654C871.295 252.987 871.231 253.357 871.231 253.763C871.231 254.18 871.296 254.548 871.426 254.869C871.559 255.186 871.754 255.436 872.012 255.619C872.273 255.798 872.596 255.888 872.981 255.888ZM880.512 256.81V248.81H883.215C883.843 248.81 884.356 248.923 884.754 249.15C885.155 249.374 885.452 249.677 885.645 250.06C885.838 250.443 885.934 250.87 885.934 251.341C885.934 251.813 885.838 252.241 885.645 252.626C885.455 253.012 885.161 253.319 884.762 253.548C884.364 253.775 883.853 253.888 883.231 253.888H881.293V253.029H883.2C883.629 253.029 883.974 252.955 884.235 252.806C884.495 252.658 884.684 252.457 884.801 252.205C884.921 251.949 884.981 251.662 884.981 251.341C884.981 251.021 884.921 250.735 884.801 250.482C884.684 250.229 884.494 250.031 884.231 249.888C883.968 249.742 883.619 249.669 883.184 249.669H881.481V256.81H880.512ZM887.37 256.81V250.81H888.26V251.716H888.323C888.432 251.419 888.63 251.179 888.917 250.994C889.203 250.809 889.526 250.716 889.885 250.716C889.953 250.716 890.038 250.718 890.139 250.72C890.241 250.723 890.318 250.727 890.37 250.732V251.669C890.338 251.662 890.267 251.65 890.155 251.634C890.045 251.616 889.93 251.607 889.807 251.607C889.515 251.607 889.255 251.668 889.026 251.791C888.799 251.91 888.62 252.077 888.487 252.291C888.357 252.501 888.292 252.742 888.292 253.013V256.81H887.37ZM893.717 256.935C893.176 256.935 892.7 256.806 892.292 256.548C891.885 256.291 891.568 255.93 891.338 255.466C891.112 255.003 890.999 254.461 890.999 253.841C890.999 253.216 891.112 252.671 891.338 252.205C891.568 251.738 891.885 251.376 892.292 251.119C892.7 250.861 893.176 250.732 893.717 250.732C894.259 250.732 894.733 250.861 895.139 251.119C895.548 251.376 895.866 251.738 896.092 252.205C896.321 252.671 896.436 253.216 896.436 253.841C896.436 254.461 896.321 255.003 896.092 255.466C895.866 255.93 895.548 256.291 895.139 256.548C894.733 256.806 894.259 256.935 893.717 256.935ZM893.717 256.107C894.129 256.107 894.467 256.001 894.733 255.791C894.999 255.58 895.195 255.302 895.323 254.958C895.45 254.615 895.514 254.242 895.514 253.841C895.514 253.44 895.45 253.067 895.323 252.72C895.195 252.374 894.999 252.094 894.733 251.88C894.467 251.667 894.129 251.56 893.717 251.56C893.306 251.56 892.967 251.667 892.702 251.88C892.436 252.094 892.239 252.374 892.112 252.72C891.984 253.067 891.92 253.44 891.92 253.841C891.92 254.242 891.984 254.615 892.112 254.958C892.239 255.302 892.436 255.58 892.702 255.791C892.967 256.001 893.306 256.107 893.717 256.107ZM900.515 250.81V251.591H897.281V250.81H900.515ZM898.25 256.81V249.982C898.25 249.638 898.33 249.352 898.492 249.123C898.653 248.893 898.863 248.722 899.121 248.607C899.378 248.492 899.651 248.435 899.937 248.435C900.164 248.435 900.348 248.453 900.492 248.49C900.635 248.526 900.742 248.56 900.812 248.591L900.546 249.388C900.5 249.373 900.434 249.353 900.351 249.33C900.27 249.306 900.164 249.294 900.031 249.294C899.726 249.294 899.506 249.371 899.371 249.525C899.238 249.679 899.171 249.904 899.171 250.201V256.81H898.25ZM901.807 256.81V250.81H902.729V256.81H901.807ZM902.276 249.81C902.096 249.81 901.941 249.749 901.811 249.626C901.683 249.504 901.62 249.357 901.62 249.185C901.62 249.013 901.683 248.866 901.811 248.744C901.941 248.621 902.096 248.56 902.276 248.56C902.456 248.56 902.609 248.621 902.737 248.744C902.867 248.866 902.932 249.013 902.932 249.185C902.932 249.357 902.867 249.504 902.737 249.626C902.609 249.749 902.456 249.81 902.276 249.81ZM907.027 250.81V251.591H903.917V250.81H907.027ZM904.824 249.373H905.746V255.091C905.746 255.352 905.783 255.547 905.859 255.677C905.937 255.805 906.036 255.891 906.156 255.935C906.278 255.977 906.407 255.998 906.542 255.998C906.644 255.998 906.727 255.992 906.792 255.982C906.858 255.969 906.91 255.958 906.949 255.951L907.136 256.779C907.074 256.802 906.986 256.826 906.875 256.849C906.763 256.875 906.621 256.888 906.449 256.888C906.188 256.888 905.933 256.832 905.683 256.72C905.436 256.608 905.23 256.438 905.066 256.208C904.904 255.979 904.824 255.69 904.824 255.341V249.373Z" fill="#666666"/>
<path d="M1186.75 247V241" stroke="#666666"/>
<path d="M1169.16 248.81V256.81H1168.22L1163.87 250.529H1163.79V256.81H1162.82V248.81H1163.76L1168.13 255.107H1168.21V248.81H1169.16ZM1173.49 256.935C1172.91 256.935 1172.41 256.807 1172 256.552C1171.58 256.294 1171.26 255.935 1171.03 255.474C1170.81 255.011 1170.69 254.472 1170.69 253.857C1170.69 253.242 1170.81 252.701 1171.03 252.232C1171.26 251.761 1171.57 251.393 1171.98 251.13C1172.38 250.865 1172.86 250.732 1173.4 250.732C1173.71 250.732 1174.02 250.784 1174.32 250.888C1174.63 250.992 1174.91 251.162 1175.16 251.396C1175.41 251.628 1175.6 251.935 1175.75 252.318C1175.9 252.701 1175.98 253.172 1175.98 253.732V254.123H1171.35V253.326H1175.04C1175.04 252.987 1174.97 252.685 1174.83 252.419C1174.7 252.154 1174.51 251.944 1174.26 251.791C1174.02 251.637 1173.73 251.56 1173.4 251.56C1173.03 251.56 1172.71 251.651 1172.44 251.833C1172.18 252.013 1171.97 252.248 1171.83 252.537C1171.69 252.826 1171.62 253.136 1171.62 253.466V253.998C1171.62 254.451 1171.69 254.835 1171.85 255.15C1172.01 255.462 1172.23 255.701 1172.51 255.865C1172.79 256.026 1173.12 256.107 1173.49 256.107C1173.73 256.107 1173.95 256.073 1174.15 256.005C1174.35 255.935 1174.52 255.831 1174.66 255.693C1174.8 255.552 1174.91 255.378 1174.99 255.169L1175.88 255.419C1175.79 255.722 1175.63 255.987 1175.41 256.216C1175.19 256.443 1174.91 256.62 1174.59 256.748C1174.26 256.873 1173.9 256.935 1173.49 256.935ZM1179.99 250.81V251.591H1176.88V250.81H1179.99ZM1177.78 249.373H1178.71V255.091C1178.71 255.352 1178.74 255.547 1178.82 255.677C1178.9 255.805 1179 255.891 1179.12 255.935C1179.24 255.977 1179.37 255.998 1179.5 255.998C1179.6 255.998 1179.69 255.992 1179.75 255.982C1179.82 255.969 1179.87 255.958 1179.91 255.951L1180.1 256.779C1180.03 256.802 1179.95 256.826 1179.83 256.849C1179.72 256.875 1179.58 256.888 1179.41 256.888C1179.15 256.888 1178.89 256.832 1178.64 256.72C1178.4 256.608 1178.19 256.438 1178.03 256.208C1177.86 255.979 1177.78 255.69 1177.78 255.341V249.373ZM1184.59 256.81V248.81H1187.3C1187.92 248.81 1188.44 248.923 1188.83 249.15C1189.24 249.374 1189.53 249.677 1189.73 250.06C1189.92 250.443 1190.01 250.87 1190.01 251.341C1190.01 251.813 1189.92 252.241 1189.73 252.626C1189.54 253.012 1189.24 253.319 1188.84 253.548C1188.44 253.775 1187.93 253.888 1187.31 253.888H1185.37V253.029H1187.28C1187.71 253.029 1188.06 252.955 1188.32 252.806C1188.58 252.658 1188.76 252.457 1188.88 252.205C1189 251.949 1189.06 251.662 1189.06 251.341C1189.06 251.021 1189 250.735 1188.88 250.482C1188.76 250.229 1188.57 250.031 1188.31 249.888C1188.05 249.742 1187.7 249.669 1187.26 249.669H1185.56V256.81H1184.59ZM1191.45 256.81V250.81H1192.34V251.716H1192.4C1192.51 251.419 1192.71 251.179 1193 250.994C1193.28 250.809 1193.61 250.716 1193.97 250.716C1194.03 250.716 1194.12 250.718 1194.22 250.72C1194.32 250.723 1194.4 250.727 1194.45 250.732V251.669C1194.42 251.662 1194.35 251.65 1194.24 251.634C1194.13 251.616 1194.01 251.607 1193.89 251.607C1193.6 251.607 1193.34 251.668 1193.11 251.791C1192.88 251.91 1192.7 252.077 1192.57 252.291C1192.44 252.501 1192.37 252.742 1192.37 253.013V256.81H1191.45ZM1197.8 256.935C1197.26 256.935 1196.78 256.806 1196.37 256.548C1195.97 256.291 1195.65 255.93 1195.42 255.466C1195.19 255.003 1195.08 254.461 1195.08 253.841C1195.08 253.216 1195.19 252.671 1195.42 252.205C1195.65 251.738 1195.97 251.376 1196.37 251.119C1196.78 250.861 1197.26 250.732 1197.8 250.732C1198.34 250.732 1198.81 250.861 1199.22 251.119C1199.63 251.376 1199.95 251.738 1200.17 252.205C1200.4 252.671 1200.52 253.216 1200.52 253.841C1200.52 254.461 1200.4 255.003 1200.17 255.466C1199.95 255.93 1199.63 256.291 1199.22 256.548C1198.81 256.806 1198.34 256.935 1197.8 256.935ZM1197.8 256.107C1198.21 256.107 1198.55 256.001 1198.81 255.791C1199.08 255.58 1199.28 255.302 1199.4 254.958C1199.53 254.615 1199.59 254.242 1199.59 253.841C1199.59 253.44 1199.53 253.067 1199.4 252.72C1199.28 252.374 1199.08 252.094 1198.81 251.88C1198.55 251.667 1198.21 251.56 1197.8 251.56C1197.39 251.56 1197.05 251.667 1196.78 251.88C1196.52 252.094 1196.32 252.374 1196.19 252.72C1196.06 253.067 1196 253.44 1196 253.841C1196 254.242 1196.06 254.615 1196.19 254.958C1196.32 255.302 1196.52 255.58 1196.78 255.791C1197.05 256.001 1197.39 256.107 1197.8 256.107ZM1204.6 250.81V251.591H1201.36V250.81H1204.6ZM1202.33 256.81V249.982C1202.33 249.638 1202.41 249.352 1202.57 249.123C1202.73 248.893 1202.94 248.722 1203.2 248.607C1203.46 248.492 1203.73 248.435 1204.02 248.435C1204.24 248.435 1204.43 248.453 1204.57 248.49C1204.72 248.526 1204.82 248.56 1204.89 248.591L1204.63 249.388C1204.58 249.373 1204.51 249.353 1204.43 249.33C1204.35 249.306 1204.24 249.294 1204.11 249.294C1203.81 249.294 1203.59 249.371 1203.45 249.525C1203.32 249.679 1203.25 249.904 1203.25 250.201V256.81H1202.33ZM1205.89 256.81V250.81H1206.81V256.81H1205.89ZM1206.36 249.81C1206.18 249.81 1206.02 249.749 1205.89 249.626C1205.76 249.504 1205.7 249.357 1205.7 249.185C1205.7 249.013 1205.76 248.866 1205.89 248.744C1206.02 248.621 1206.18 248.56 1206.36 248.56C1206.54 248.56 1206.69 248.621 1206.82 248.744C1206.95 248.866 1207.01 249.013 1207.01 249.185C1207.01 249.357 1206.95 249.504 1206.82 249.626C1206.69 249.749 1206.54 249.81 1206.36 249.81ZM1211.11 250.81V251.591H1208V250.81H1211.11ZM1208.9 249.373H1209.83V255.091C1209.83 255.352 1209.86 255.547 1209.94 255.677C1210.02 255.805 1210.12 255.891 1210.24 255.935C1210.36 255.977 1210.49 255.998 1210.62 255.998C1210.72 255.998 1210.81 255.992 1210.87 255.982C1210.94 255.969 1210.99 255.958 1211.03 255.951L1211.22 256.779C1211.15 256.802 1211.07 256.826 1210.96 256.849C1210.84 256.875 1210.7 256.888 1210.53 256.888C1210.27 256.888 1210.01 256.832 1209.76 256.72C1209.52 256.608 1209.31 256.438 1209.15 256.208C1208.99 255.979 1208.9 255.69 1208.9 255.341V249.373Z" fill="#666666"/>
<path d="M65 5V241" stroke="#666666"/>
<path d="M59 241H65" stroke="#666666"/>
<path d="M44.9785 244.649C44.4435 244.649 43.9877 244.504 43.6113 244.213C43.2349 243.919 42.9473 243.494 42.7484 242.938C42.5495 242.379 42.4501 241.704 42.4501 240.914C42.4501 240.128 42.5495 239.457 42.7484 238.9C42.9496 238.341 43.2385 237.915 43.6149 237.622C43.9937 237.326 44.4482 237.178 44.9785 237.178C45.5088 237.178 45.9622 237.326 46.3386 237.622C46.7174 237.915 47.0062 238.341 47.2051 238.9C47.4063 239.457 47.5069 240.128 47.5069 240.914C47.5069 241.704 47.4075 242.379 47.2086 242.938C47.0098 243.494 46.7221 243.919 46.3457 244.213C45.9693 244.504 45.5136 244.649 44.9785 244.649ZM44.9785 243.868C45.5088 243.868 45.9208 243.613 46.2143 243.101C46.5079 242.59 46.6547 241.861 46.6547 240.914C46.6547 240.284 46.5872 239.748 46.4522 239.305C46.3197 238.862 46.1279 238.525 45.877 238.293C45.6284 238.061 45.3289 237.945 44.9785 237.945C44.4529 237.945 44.0422 238.204 43.7463 238.723C43.4503 239.239 43.3024 239.969 43.3024 240.914C43.3024 241.543 43.3687 242.078 43.5012 242.519C43.6338 242.959 43.8244 243.294 44.073 243.524C44.3239 243.753 44.6258 243.868 44.9785 243.868ZM48.9842 237.277H50.0353L52.5069 243.314H52.5922L55.0637 237.277H56.1149V244.55H55.291V239.024H55.22L52.9473 244.55H52.1518L49.8791 239.024H49.8081V244.55H48.9842V237.277Z" fill="#666666"/>
<path d="M59 182H65" stroke="#666666"/>
<path d="M30.3017 185.55V184.911L32.7022 182.283C32.984 181.975 33.216 181.708 33.3983 181.48C33.5806 181.251 33.7155 181.035 33.8031 180.834C33.8931 180.631 33.938 180.417 33.938 180.195C33.938 179.939 33.8765 179.718 33.7534 179.531C33.6326 179.344 33.4669 179.199 33.2562 179.098C33.0455 178.996 32.8088 178.945 32.546 178.945C32.2666 178.945 32.0228 179.003 31.8145 179.119C31.6085 179.233 31.4487 179.392 31.335 179.598C31.2238 179.804 31.1681 180.046 31.1681 180.323H30.3301C30.3301 179.897 30.4283 179.523 30.6248 179.201C30.8213 178.879 31.0888 178.628 31.4274 178.448C31.7683 178.268 32.1506 178.178 32.5744 178.178C33.0005 178.178 33.3781 178.268 33.7072 178.448C34.0363 178.628 34.2943 178.87 34.4814 179.176C34.6684 179.481 34.7619 179.821 34.7619 180.195C34.7619 180.462 34.7134 180.724 34.6163 180.98C34.5216 181.233 34.3559 181.516 34.1191 181.828C33.8848 182.139 33.5592 182.517 33.1426 182.965L31.5091 184.712V184.769H34.8897V185.55H30.3017ZM38.7285 185.649C38.1935 185.649 37.7377 185.504 37.3613 185.213C36.9849 184.919 36.6973 184.494 36.4984 183.938C36.2995 183.379 36.2001 182.704 36.2001 181.914C36.2001 181.128 36.2995 180.457 36.4984 179.9C36.6996 179.341 36.9885 178.915 37.3649 178.622C37.7437 178.326 38.1982 178.178 38.7285 178.178C39.2588 178.178 39.7122 178.326 40.0886 178.622C40.4674 178.915 40.7562 179.341 40.9551 179.9C41.1563 180.457 41.2569 181.128 41.2569 181.914C41.2569 182.704 41.1575 183.379 40.9586 183.938C40.7598 184.494 40.4721 184.919 40.0957 185.213C39.7193 185.504 39.2636 185.649 38.7285 185.649ZM38.7285 184.868C39.2588 184.868 39.6708 184.613 39.9643 184.101C40.2579 183.59 40.4047 182.861 40.4047 181.914C40.4047 181.284 40.3372 180.748 40.2022 180.305C40.0697 179.862 39.8779 179.525 39.627 179.293C39.3784 179.061 39.0789 178.945 38.7285 178.945C38.2029 178.945 37.7922 179.204 37.4963 179.723C37.2003 180.239 37.0524 180.969 37.0524 181.914C37.0524 182.543 37.1187 183.078 37.2512 183.519C37.3838 183.959 37.5744 184.294 37.823 184.524C38.0739 184.753 38.3758 184.868 38.7285 184.868ZM44.9785 185.649C44.4435 185.649 43.9877 185.504 43.6113 185.213C43.2349 184.919 42.9473 184.494 42.7484 183.938C42.5495 183.379 42.4501 182.704 42.4501 181.914C42.4501 181.128 42.5495 180.457 42.7484 179.9C42.9496 179.341 43.2385 178.915 43.6149 178.622C43.9937 178.326 44.4482 178.178 44.9785 178.178C45.5088 178.178 45.9622 178.326 46.3386 178.622C46.7174 178.915 47.0062 179.341 47.2051 179.9C47.4063 180.457 47.5069 181.128 47.5069 181.914C47.5069 182.704 47.4075 183.379 47.2086 183.938C47.0098 184.494 46.7221 184.919 46.3457 185.213C45.9693 185.504 45.5136 185.649 44.9785 185.649ZM44.9785 184.868C45.5088 184.868 45.9208 184.613 46.2143 184.101C46.5079 183.59 46.6547 182.861 46.6547 181.914C46.6547 181.284 46.5872 180.748 46.4522 180.305C46.3197 179.862 46.1279 179.525 45.877 179.293C45.6284 179.061 45.3289 178.945 44.9785 178.945C44.4529 178.945 44.0422 179.204 43.7463 179.723C43.4503 180.239 43.3024 180.969 43.3024 181.914C43.3024 182.543 43.3687 183.078 43.5012 183.519C43.6338 183.959 43.8244 184.294 44.073 184.524C44.3239 184.753 44.6258 184.868 44.9785 184.868ZM48.9842 178.277H50.0353L52.5069 184.314H52.5922L55.0637 178.277H56.1149V185.55H55.291V180.024H55.22L52.9473 185.55H52.1518L49.8791 180.024H49.8081V185.55H48.9842V178.277Z" fill="#666666"/>
<path d="M59 123H65" stroke="#666666"/>
<path d="M29.7699 125.059V124.334L32.9659 119.277H33.4915V120.399H33.1364L30.7216 124.221V124.277H35.0256V125.059H29.7699ZM33.1932 126.55V124.838V124.501V119.277H34.0312V126.55H33.1932ZM38.7285 126.649C38.1935 126.649 37.7377 126.504 37.3613 126.213C36.9849 125.919 36.6973 125.494 36.4984 124.938C36.2995 124.379 36.2001 123.704 36.2001 122.914C36.2001 122.128 36.2995 121.457 36.4984 120.9C36.6996 120.341 36.9885 119.915 37.3649 119.622C37.7437 119.326 38.1982 119.178 38.7285 119.178C39.2588 119.178 39.7122 119.326 40.0886 119.622C40.4674 119.915 40.7562 120.341 40.9551 120.9C41.1563 121.457 41.2569 122.128 41.2569 122.914C41.2569 123.704 41.1575 124.379 40.9586 124.938C40.7598 125.494 40.4721 125.919 40.0957 126.213C39.7193 126.504 39.2636 126.649 38.7285 126.649ZM38.7285 125.868C39.2588 125.868 39.6708 125.613 39.9643 125.101C40.2579 124.59 40.4047 123.861 40.4047 122.914C40.4047 122.284 40.3372 121.748 40.2022 121.305C40.0697 120.862 39.8779 120.525 39.627 120.293C39.3784 120.061 39.0789 119.945 38.7285 119.945C38.2029 119.945 37.7922 120.204 37.4963 120.723C37.2003 121.239 37.0524 121.969 37.0524 122.914C37.0524 123.543 37.1187 124.078 37.2512 124.519C37.3838 124.959 37.5744 125.294 37.823 125.524C38.0739 125.753 38.3758 125.868 38.7285 125.868ZM44.9785 126.649C44.4435 126.649 43.9877 126.504 43.6113 126.213C43.2349 125.919 42.9473 125.494 42.7484 124.938C42.5495 124.379 42.4501 123.704 42.4501 122.914C42.4501 122.128 42.5495 121.457 42.7484 120.9C42.9496 120.341 43.2385 119.915 43.6149 119.622C43.9937 119.326 44.4482 119.178 44.9785 119.178C45.5088 119.178 45.9622 119.326 46.3386 119.622C46.7174 119.915 47.0062 120.341 47.2051 120.9C47.4063 121.457 47.5069 122.128 47.5069 122.914C47.5069 123.704 47.4075 124.379 47.2086 124.938C47.0098 125.494 46.7221 125.919 46.3457 126.213C45.9693 126.504 45.5136 126.649 44.9785 126.649ZM44.9785 125.868C45.5088 125.868 45.9208 125.613 46.2143 125.101C46.5079 124.59 46.6547 123.861 46.6547 122.914C46.6547 122.284 46.5872 121.748 46.4522 121.305C46.3197 120.862 46.1279 120.525 45.877 120.293C45.6284 120.061 45.3289 119.945 44.9785 119.945C44.4529 119.945 44.0422 120.204 43.7463 120.723C43.4503 121.239 43.3024 121.969 43.3024 122.914C43.3024 123.543 43.3687 124.078 43.5012 124.519C43.6338 124.959 43.8244 125.294 44.073 125.524C44.3239 125.753 44.6258 125.868 44.9785 125.868ZM48.9842 119.277H50.0353L52.5069 125.314H52.5922L55.0637 119.277H56.1149V126.55H55.291V121.024H55.22L52.9473 126.55H52.1518L49.8791 121.024H49.8081V126.55H48.9842V119.277Z" fill="#666666"/>
<path d="M59 64H65" stroke="#666666"/>
<path d="M32.5309 67.6495C32.2326 67.6447 31.9343 67.5879 31.636 67.479C31.3377 67.3701 31.0655 67.1866 30.8192 66.9286C30.573 66.6682 30.3754 66.3166 30.2262 65.8739C30.0771 65.4288 30.0025 64.8701 30.0025 64.1978C30.0025 63.5538 30.0629 62.9833 30.1836 62.4861C30.3043 61.9866 30.4795 61.5664 30.7092 61.2255C30.9388 60.8822 31.2158 60.6218 31.5401 60.4442C31.8668 60.2667 32.235 60.1779 32.6445 60.1779C33.0517 60.1779 33.4139 60.2596 33.7312 60.4229C34.0508 60.5839 34.3112 60.8088 34.5124 61.0976C34.7137 61.3865 34.8439 61.7191 34.9031 62.0955H34.0366C33.9561 61.7688 33.7998 61.4977 33.5678 61.2823C33.3358 61.0669 33.0281 60.9591 32.6445 60.9591C32.0811 60.9591 31.6372 61.2042 31.3129 61.6942C30.9909 62.1843 30.8287 62.872 30.8263 63.7574H30.8832C31.0157 63.5562 31.1732 63.3846 31.3555 63.2425C31.5401 63.0981 31.7437 62.9868 31.9663 62.9087C32.1888 62.8306 32.4244 62.7915 32.6729 62.7915C33.0896 62.7915 33.4708 62.8957 33.8164 63.104C34.1621 63.31 34.439 63.5953 34.6474 63.9598C34.8557 64.3221 34.9599 64.7375 34.9599 65.2063C34.9599 65.6561 34.8593 66.068 34.658 66.4421C34.4568 66.8138 34.1739 67.1097 33.8093 67.3299C33.4471 67.5477 33.021 67.6542 32.5309 67.6495ZM32.5309 66.8682C32.8292 66.8682 33.0967 66.7937 33.3335 66.6445C33.5726 66.4954 33.7608 66.2953 33.8981 66.0444C34.0378 65.7934 34.1076 65.5141 34.1076 65.2063C34.1076 64.9056 34.0401 64.6322 33.9052 64.386C33.7726 64.1374 33.5891 63.9397 33.3548 63.7929C33.1228 63.6462 32.8576 63.5728 32.5593 63.5728C32.3344 63.5728 32.1249 63.6178 31.9308 63.7077C31.7366 63.7953 31.5662 63.9161 31.4194 64.0699C31.275 64.2238 31.1613 64.4002 31.0785 64.5991C30.9956 64.7956 30.9542 65.0027 30.9542 65.2205C30.9542 65.5093 31.0217 65.7792 31.1566 66.0302C31.2939 66.2811 31.4809 66.4835 31.7177 66.6374C31.9568 66.7913 32.2279 66.8682 32.5309 66.8682ZM38.7285 67.6495C38.1935 67.6495 37.7377 67.5039 37.3613 67.2127C36.9849 66.9191 36.6973 66.4942 36.4984 65.9378C36.2995 65.3791 36.2001 64.7044 36.2001 63.9137C36.2001 63.1277 36.2995 62.4565 36.4984 61.9002C36.6996 61.3415 36.9885 60.9153 37.3649 60.6218C37.7437 60.3259 38.1982 60.1779 38.7285 60.1779C39.2588 60.1779 39.7122 60.3259 40.0886 60.6218C40.4674 60.9153 40.7562 61.3415 40.9551 61.9002C41.1563 62.4565 41.2569 63.1277 41.2569 63.9137C41.2569 64.7044 41.1575 65.3791 40.9586 65.9378C40.7598 66.4942 40.4721 66.9191 40.0957 67.2127C39.7193 67.5039 39.2636 67.6495 38.7285 67.6495ZM38.7285 66.8682C39.2588 66.8682 39.6708 66.6125 39.9643 66.1012C40.2579 65.5898 40.4047 64.8607 40.4047 63.9137C40.4047 63.284 40.3372 62.7477 40.2022 62.305C40.0697 61.8623 39.8779 61.525 39.627 61.2929C39.3784 61.0609 39.0789 60.9449 38.7285 60.9449C38.2029 60.9449 37.7922 61.2042 37.4963 61.7226C37.2003 62.2387 37.0524 62.9691 37.0524 63.9137C37.0524 64.5434 37.1187 65.0785 37.2512 65.5188C37.3838 65.9591 37.5744 66.2941 37.823 66.5238C38.0739 66.7534 38.3758 66.8682 38.7285 66.8682ZM44.9785 67.6495C44.4435 67.6495 43.9877 67.5039 43.6113 67.2127C43.2349 66.9191 42.9473 66.4942 42.7484 65.9378C42.5495 65.3791 42.4501 64.7044 42.4501 63.9137C42.4501 63.1277 42.5495 62.4565 42.7484 61.9002C42.9496 61.3415 43.2385 60.9153 43.6149 60.6218C43.9937 60.3259 44.4482 60.1779 44.9785 60.1779C45.5088 60.1779 45.9622 60.3259 46.3386 60.6218C46.7174 60.9153 47.0062 61.3415 47.2051 61.9002C47.4063 62.4565 47.5069 63.1277 47.5069 63.9137C47.5069 64.7044 47.4075 65.3791 47.2086 65.9378C47.0098 66.4942 46.7221 66.9191 46.3457 67.2127C45.9693 67.5039 45.5136 67.6495 44.9785 67.6495ZM44.9785 66.8682C45.5088 66.8682 45.9208 66.6125 46.2143 66.1012C46.5079 65.5898 46.6547 64.8607 46.6547 63.9137C46.6547 63.284 46.5872 62.7477 46.4522 62.305C46.3197 61.8623 46.1279 61.525 45.877 61.2929C45.6284 61.0609 45.3289 60.9449 44.9785 60.9449C44.4529 60.9449 44.0422 61.2042 43.7463 61.7226C43.4503 62.2387 43.3024 62.9691 43.3024 63.9137C43.3024 64.5434 43.3687 65.0785 43.5012 65.5188C43.6338 65.9591 43.8244 66.2941 44.073 66.5238C44.3239 66.7534 44.6258 66.8682 44.9785 66.8682ZM48.9842 60.2773H50.0353L52.5069 66.3143H52.5922L55.0637 60.2773H56.1149V67.55H55.291V62.0245H55.22L52.9473 67.55H52.1518L49.8791 62.0245H49.8081V67.55H48.9842V60.2773Z" fill="#666666"/>
<path d="M59 5H65" stroke="#666666"/>
<path d="M32.5238 11.1495C32.0361 11.1495 31.6052 11.0631 31.2312 10.8902C30.8595 10.7151 30.5695 10.4748 30.3612 10.1694C30.1528 9.8616 30.0498 9.51122 30.0522 9.11823C30.0498 8.81047 30.1102 8.52637 30.2333 8.26596C30.3564 8.00317 30.5245 7.78419 30.7376 7.609C30.953 7.43144 31.1933 7.31899 31.4585 7.27164V7.22903C31.1104 7.13906 30.8335 6.94375 30.6275 6.64309C30.4215 6.34006 30.3197 5.9956 30.3221 5.60971C30.3197 5.24039 30.4132 4.91013 30.6026 4.61894C30.792 4.32775 31.0524 4.09811 31.3839 3.93002C31.7177 3.76193 32.0977 3.67789 32.5238 3.67789C32.9452 3.67789 33.3216 3.76193 33.6531 3.93002C33.9845 4.09811 34.2449 4.32775 34.4343 4.61894C34.6261 4.91013 34.7231 5.24039 34.7255 5.60971C34.7231 5.9956 34.6178 6.34006 34.4094 6.64309C34.2035 6.94375 33.93 7.13906 33.5891 7.22903V7.27164C33.8519 7.31899 34.0887 7.43144 34.2994 7.609C34.5101 7.78419 34.6781 8.00317 34.8036 8.26596C34.9291 8.52637 34.993 8.81047 34.9954 9.11823C34.993 9.51122 34.8865 9.8616 34.6758 10.1694C34.4674 10.4748 34.1774 10.7151 33.8058 10.8902C33.4364 11.0631 33.0091 11.1495 32.5238 11.1495ZM32.5238 10.3682C32.8529 10.3682 33.137 10.315 33.3761 10.2084C33.6152 10.1019 33.7998 9.95156 33.93 9.75744C34.0603 9.56331 34.1265 9.33603 34.1289 9.07562C34.1265 8.801 34.0555 8.55833 33.9158 8.34763C33.7762 8.13693 33.5856 7.97121 33.3441 7.85047C33.105 7.72974 32.8316 7.66937 32.5238 7.66937C32.2137 7.66937 31.9367 7.72974 31.6928 7.85047C31.4513 7.97121 31.2608 8.13693 31.1211 8.34763C30.9838 8.55833 30.9163 8.801 30.9187 9.07562C30.9163 9.33603 30.979 9.56331 31.1069 9.75744C31.2371 9.95156 31.4229 10.1019 31.6644 10.2084C31.9059 10.315 32.1924 10.3682 32.5238 10.3682ZM32.5238 6.91653C32.7842 6.91653 33.015 6.86444 33.2163 6.76028C33.4199 6.65611 33.5797 6.51051 33.6957 6.32349C33.8117 6.13646 33.8709 5.91747 33.8732 5.66653C33.8709 5.42031 33.8129 5.20606 33.6992 5.02377C33.5856 4.83911 33.4281 4.69707 33.2269 4.59763C33.0257 4.49583 32.7913 4.44494 32.5238 4.44494C32.2515 4.44494 32.0136 4.49583 31.81 4.59763C31.6064 4.69707 31.449 4.83911 31.3377 5.02377C31.2264 5.20606 31.172 5.42031 31.1744 5.66653C31.172 5.91747 31.2276 6.13646 31.3413 6.32349C31.4573 6.51051 31.6171 6.65611 31.8207 6.76028C32.0243 6.86444 32.2586 6.91653 32.5238 6.91653ZM38.7285 11.1495C38.1935 11.1495 37.7377 11.0039 37.3613 10.7127C36.9849 10.4191 36.6973 9.99418 36.4984 9.43783C36.2995 8.87912 36.2001 8.2044 36.2001 7.41369C36.2001 6.6277 36.2995 5.95654 36.4984 5.40019C36.6996 4.84148 36.9885 4.41534 37.3649 4.12178C37.7437 3.82585 38.1982 3.67789 38.7285 3.67789C39.2588 3.67789 39.7122 3.82585 40.0886 4.12178C40.4674 4.41534 40.7562 4.84148 40.9551 5.40019C41.1563 5.95654 41.2569 6.6277 41.2569 7.41369C41.2569 8.2044 41.1575 8.87912 40.9586 9.43783C40.7598 9.99418 40.4721 10.4191 40.0957 10.7127C39.7193 11.0039 39.2636 11.1495 38.7285 11.1495ZM38.7285 10.3682C39.2588 10.3682 39.6708 10.1125 39.9643 9.60119C40.2579 9.08982 40.4047 8.36065 40.4047 7.41369C40.4047 6.78395 40.3372 6.24773 40.2022 5.80502C40.0697 5.36231 39.8779 5.02495 39.627 4.79295C39.3784 4.56094 39.0789 4.44494 38.7285 4.44494C38.2029 4.44494 37.7922 4.70417 37.4963 5.22263C37.2003 5.73873 37.0524 6.46908 37.0524 7.41369C37.0524 8.04342 37.1187 8.57846 37.2512 9.0188C37.3838 9.45914 37.5744 9.79413 37.823 10.0238C38.0739 10.2534 38.3758 10.3682 38.7285 10.3682ZM44.9785 11.1495C44.4435 11.1495 43.9877 11.0039 43.6113 10.7127C43.2349 10.4191 42.9473 9.99418 42.7484 9.43783C42.5495 8.87912 42.4501 8.2044 42.4501 7.41369C42.4501 6.6277 42.5495 5.95654 42.7484 5.40019C42.9496 4.84148 43.2385 4.41534 43.6149 4.12178C43.9937 3.82585 44.4482 3.67789 44.9785 3.67789C45.5088 3.67789 45.9622 3.82585 46.3386 4.12178C46.7174 4.41534 47.0062 4.84148 47.2051 5.40019C47.4063 5.95654 47.5069 6.6277 47.5069 7.41369C47.5069 8.2044 47.4075 8.87912 47.2086 9.43783C47.0098 9.99418 46.7221 10.4191 46.3457 10.7127C45.9693 11.0039 45.5136 11.1495 44.9785 11.1495ZM44.9785 10.3682C45.5088 10.3682 45.9208 10.1125 46.2143 9.60119C46.5079 9.08982 46.6547 8.36065 46.6547 7.41369C46.6547 6.78395 46.5872 6.24773 46.4522 5.80502C46.3197 5.36231 46.1279 5.02495 45.877 4.79295C45.6284 4.56094 45.3289 4.44494 44.9785 4.44494C44.4529 4.44494 44.0422 4.70417 43.7463 5.22263C43.4503 5.73873 43.3024 6.46908 43.3024 7.41369C43.3024 8.04342 43.3687 8.57846 43.5012 9.0188C43.6338 9.45914 43.8244 9.79413 44.073 10.0238C44.3239 10.2534 44.6258 10.3682 44.9785 10.3682ZM48.9842 3.77732H50.0353L52.5069 9.81425H52.5922L55.0637 3.77732H56.1149V11.05H55.291V5.52448H55.22L52.9473 11.05H52.1518L49.8791 5.52448H49.8081V11.05H48.9842V3.77732Z" fill="#666666"/>
<path d="M97.0508 11.6504C97.0508 10.8547 97.3668 10.0917 97.9295 9.52907C98.4921 8.96646 99.2551 8.65039 100.051 8.65039H220.051C220.846 8.65039 221.609 8.96646 222.172 9.52907C222.735 10.0917 223.051 10.8547 223.051 11.6504V241H97.0508V11.6504Z" fill="#009189"/>
<path d="M417.551 167.944C417.551 167.148 417.867 166.385 418.429 165.822C418.992 165.26 419.755 164.944 420.551 164.944H540.551C541.346 164.944 542.11 165.26 542.672 165.822C543.235 166.385 543.551 167.148 543.551 167.944V241H417.551V167.944Z" fill="#009189"/>
<path d="M738.051 180.207C738.051 179.411 738.367 178.648 738.929 178.086C739.492 177.523 740.255 177.207 741.051 177.207H861.051C861.846 177.207 862.61 177.523 863.172 178.086C863.735 178.648 864.051 179.411 864.051 180.207V241H738.051V180.207Z" fill="#009189"/>
<path d="M1058.55 182.691C1058.55 181.896 1058.87 181.132 1059.43 180.57C1059.99 180.007 1060.76 179.691 1061.55 179.691H1181.55C1182.35 179.691 1183.11 180.007 1183.67 180.57C1184.23 181.132 1184.55 181.896 1184.55 182.691V241H1058.55V182.691Z" fill="#009189"/>
<path d="M97.0508 11.6504C97.0508 10.8547 97.3668 10.0917 97.9295 9.52907C98.4921 8.96646 99.2551 8.65039 100.051 8.65039H220.051C220.846 8.65039 221.609 8.96646 222.172 9.52907C222.735 10.0917 223.051 10.8547 223.051 11.6504V241H97.0508V11.6504Z" fill="#343741"/>
<path d="M417.551 167.944C417.551 167.148 417.867 166.385 418.429 165.822C418.992 165.26 419.755 164.944 420.551 164.944H540.551C541.346 164.944 542.11 165.26 542.672 165.822C543.235 166.385 543.551 167.148 543.551 167.944V241H417.551V167.944Z" fill="#343741"/>
<path d="M738.051 180.207C738.051 179.411 738.367 178.648 738.929 178.086C739.492 177.523 740.255 177.207 741.051 177.207H861.051C861.846 177.207 862.61 177.523 863.172 178.086C863.735 178.648 864.051 179.411 864.051 180.207V241H738.051V180.207Z" fill="#343741"/>
<path d="M1058.55 182.691C1058.55 181.896 1058.87 181.132 1059.43 180.57C1059.99 180.007 1060.76 179.691 1061.55 179.691H1181.55C1182.35 179.691 1183.11 180.007 1183.67 180.57C1184.23 181.132 1184.55 181.896 1184.55 182.691V241H1058.55V182.691Z" fill="#343741"/>
<g clip-path="url(#clip0_35_5)">
<path d="M609.625 278.547H623.625V289.047H609.625V278.547Z" fill="#009189"/>
</g>
<path d="M628.343 289V288.184L632.999 283.624C633.425 283.208 633.745 282.845 633.959 282.536C634.172 282.216 634.316 281.917 634.391 281.64C634.465 281.363 634.503 281.101 634.503 280.856C634.503 280.205 634.279 279.693 633.831 279.32C633.393 278.947 632.743 278.76 631.879 278.76C631.217 278.76 630.631 278.861 630.119 279.064C629.617 279.267 629.185 279.581 628.823 280.008L628.007 279.304C628.444 278.792 629.004 278.397 629.687 278.12C630.369 277.843 631.132 277.704 631.975 277.704C632.732 277.704 633.388 277.827 633.943 278.072C634.497 278.307 634.924 278.653 635.223 279.112C635.532 279.571 635.687 280.109 635.687 280.728C635.687 281.091 635.633 281.448 635.527 281.8C635.431 282.152 635.249 282.525 634.983 282.92C634.727 283.304 634.348 283.741 633.847 284.232L629.575 288.424L629.255 287.976H636.199V289H628.343ZM642.077 289.096C641.213 289.096 640.445 288.872 639.773 288.424C639.101 287.965 638.573 287.315 638.189 286.472C637.805 285.619 637.613 284.595 637.613 283.4C637.613 282.205 637.805 281.187 638.189 280.344C638.573 279.491 639.101 278.84 639.773 278.392C640.445 277.933 641.213 277.704 642.077 277.704C642.941 277.704 643.709 277.933 644.381 278.392C645.053 278.84 645.581 279.491 645.965 280.344C646.36 281.187 646.557 282.205 646.557 283.4C646.557 284.595 646.36 285.619 645.965 286.472C645.581 287.315 645.053 287.965 644.381 288.424C643.709 288.872 642.941 289.096 642.077 289.096ZM642.077 288.04C642.739 288.04 643.315 287.864 643.805 287.512C644.296 287.149 644.68 286.627 644.957 285.944C645.235 285.251 645.373 284.403 645.373 283.4C645.373 282.397 645.235 281.555 644.957 280.872C644.68 280.179 644.296 279.656 643.805 279.304C643.315 278.941 642.739 278.76 642.077 278.76C641.437 278.76 640.867 278.941 640.365 279.304C639.864 279.656 639.475 280.179 639.197 280.872C638.92 281.555 638.781 282.397 638.781 283.4C638.781 284.403 638.92 285.251 639.197 285.944C639.475 286.627 639.864 287.149 640.365 287.512C640.867 287.864 641.437 288.04 642.077 288.04ZM647.999 289V288.184L652.655 283.624C653.082 283.208 653.402 282.845 653.615 282.536C653.828 282.216 653.972 281.917 654.047 281.64C654.122 281.363 654.159 281.101 654.159 280.856C654.159 280.205 653.935 279.693 653.487 279.32C653.05 278.947 652.399 278.76 651.535 278.76C650.874 278.76 650.287 278.861 649.775 279.064C649.274 279.267 648.842 279.581 648.479 280.008L647.663 279.304C648.1 278.792 648.66 278.397 649.343 278.12C650.026 277.843 650.788 277.704 651.631 277.704C652.388 277.704 653.044 277.827 653.599 278.072C654.154 278.307 654.58 278.653 654.879 279.112C655.188 279.571 655.343 280.109 655.343 280.728C655.343 281.091 655.29 281.448 655.183 281.8C655.087 282.152 654.906 282.525 654.639 282.92C654.383 283.304 654.004 283.741 653.503 284.232L649.231 288.424L648.911 287.976H655.855V289H647.999ZM660.837 289.096C660.037 289.096 659.274 288.968 658.549 288.712C657.823 288.445 657.247 288.093 656.821 287.656L657.381 286.744C657.733 287.117 658.213 287.427 658.821 287.672C659.439 287.917 660.106 288.04 660.821 288.04C661.77 288.04 662.49 287.832 662.981 287.416C663.482 286.989 663.733 286.435 663.733 285.752C663.733 285.272 663.615 284.861 663.381 284.52C663.157 284.168 662.773 283.896 662.229 283.704C661.685 283.512 660.938 283.416 659.989 283.416H657.605L658.181 277.8H664.309V278.824H658.645L659.237 278.264L658.741 282.968L658.149 282.392H660.245C661.375 282.392 662.282 282.531 662.965 282.808C663.647 283.085 664.138 283.475 664.437 283.976C664.746 284.467 664.901 285.043 664.901 285.704C664.901 286.333 664.751 286.909 664.453 287.432C664.154 287.944 663.706 288.349 663.109 288.648C662.511 288.947 661.754 289.096 660.837 289.096Z" fill="#009189"/>
<g clip-path="url(#clip1_35_5)">
<path d="M675.422 278.547H689.422V289.047H675.422V278.547Z" fill="#343741"/>
</g>
<path d="M694.069 289V288.184L698.725 283.624C699.152 283.208 699.472 282.845 699.685 282.536C699.899 282.216 700.043 281.917 700.117 281.64C700.192 281.363 700.229 281.101 700.229 280.856C700.229 280.205 700.005 279.693 699.557 279.32C699.12 278.947 698.469 278.76 697.605 278.76C696.944 278.76 696.357 278.861 695.845 279.064C695.344 279.267 694.912 279.581 694.549 280.008L693.733 279.304C694.171 278.792 694.731 278.397 695.413 278.12C696.096 277.843 696.859 277.704 697.701 277.704C698.459 277.704 699.115 277.827 699.669 278.072C700.224 278.307 700.651 278.653 700.949 279.112C701.259 279.571 701.413 280.109 701.413 280.728C701.413 281.091 701.36 281.448 701.253 281.8C701.157 282.152 700.976 282.525 700.709 282.92C700.453 283.304 700.075 283.741 699.573 284.232L695.301 288.424L694.981 287.976H701.925V289H694.069ZM707.804 289.096C706.94 289.096 706.172 288.872 705.5 288.424C704.828 287.965 704.3 287.315 703.916 286.472C703.532 285.619 703.34 284.595 703.34 283.4C703.34 282.205 703.532 281.187 703.916 280.344C704.3 279.491 704.828 278.84 705.5 278.392C706.172 277.933 706.94 277.704 707.804 277.704C708.668 277.704 709.436 277.933 710.108 278.392C710.78 278.84 711.308 279.491 711.692 280.344C712.086 281.187 712.284 282.205 712.284 283.4C712.284 284.595 712.086 285.619 711.692 286.472C711.308 287.315 710.78 287.965 710.108 288.424C709.436 288.872 708.668 289.096 707.804 289.096ZM707.804 288.04C708.465 288.04 709.041 287.864 709.532 287.512C710.022 287.149 710.406 286.627 710.684 285.944C710.961 285.251 711.1 284.403 711.1 283.4C711.1 282.397 710.961 281.555 710.684 280.872C710.406 280.179 710.022 279.656 709.532 279.304C709.041 278.941 708.465 278.76 707.804 278.76C707.164 278.76 706.593 278.941 706.092 279.304C705.59 279.656 705.201 280.179 704.924 280.872C704.646 281.555 704.508 282.397 704.508 283.4C704.508 284.403 704.646 285.251 704.924 285.944C705.201 286.627 705.59 287.149 706.092 287.512C706.593 287.864 707.164 288.04 707.804 288.04ZM713.726 289V288.184L718.382 283.624C718.808 283.208 719.128 282.845 719.342 282.536C719.555 282.216 719.699 281.917 719.774 281.64C719.848 281.363 719.886 281.101 719.886 280.856C719.886 280.205 719.662 279.693 719.214 279.32C718.776 278.947 718.126 278.76 717.262 278.76C716.6 278.76 716.014 278.861 715.502 279.064C715 279.267 714.568 279.581 714.206 280.008L713.39 279.304C713.827 278.792 714.387 278.397 715.07 278.12C715.752 277.843 716.515 277.704 717.358 277.704C718.115 277.704 718.771 277.827 719.326 278.072C719.88 278.307 720.307 278.653 720.606 279.112C720.915 279.571 721.07 280.109 721.07 280.728C721.07 281.091 721.016 281.448 720.91 281.8C720.814 282.152 720.632 282.525 720.366 282.92C720.11 283.304 719.731 283.741 719.23 284.232L714.958 288.424L714.638 287.976H721.582V289H713.726ZM722.46 286.056V285.224L728.396 277.8H729.676L723.788 285.224L723.164 285.032H732.172V286.056H722.46ZM728.78 289V286.056L728.812 285.032V282.44H729.932V289H728.78Z" fill="#343741"/>
<defs>
<clipPath id="clip0_35_5">
<rect width="14" height="14" fill="white" transform="translate(609.625 276.797)"/>
</clipPath>
<clipPath id="clip1_35_5">
<rect width="14" height="14" fill="white" transform="translate(675.422 276.797)"/>
</clipPath>
</defs>
</svg>
