<svg width="1352" height="320" viewBox="0 0 1352 320" fill="none" xmlns="http://www.w3.org/2000/svg">
<g clip-path="url(#clip0_2_3846)">
<path d="M65 261H1347" stroke="#F0F0F0" stroke-dasharray="3 3"/>
<path d="M65 197H1347" stroke="#F0F0F0" stroke-dasharray="3 3"/>
<path d="M65 133H1347" stroke="#F0F0F0" stroke-dasharray="3 3"/>
<path d="M65 69H1347" stroke="#F0F0F0" stroke-dasharray="3 3"/>
<path d="M65 5H1347" stroke="#F0F0F0" stroke-dasharray="3 3"/>
<path d="M65 5V261" stroke="#F0F0F0" stroke-dasharray="3 3"/>
<path d="M385.5 5V261" stroke="#F0F0F0" stroke-dasharray="3 3"/>
<path d="M706 5V261" stroke="#F0F0F0" stroke-dasharray="3 3"/>
<path d="M1026.5 5V261" stroke="#F0F0F0" stroke-dasharray="3 3"/>
<path d="M1347 5V261" stroke="#F0F0F0" stroke-dasharray="3 3"/>
<path d="M65 261H1347" stroke="#666666"/>
<path d="M65 267V261" stroke="#666666"/>
<path d="M52.0987 277.52V276.753L54.9794 273.6C55.3175 273.23 55.5959 272.909 55.8146 272.636C56.0334 272.361 56.1953 272.102 56.3004 271.861C56.4084 271.617 56.4624 271.361 56.4624 271.094C56.4624 270.787 56.3885 270.521 56.2408 270.297C56.0959 270.073 55.897 269.899 55.6442 269.777C55.3913 269.655 55.1072 269.594 54.7919 269.594C54.4567 269.594 54.1641 269.663 53.9141 269.803C53.6669 269.939 53.4751 270.131 53.3388 270.378C53.2053 270.625 53.1385 270.915 53.1385 271.247H52.1328C52.1328 270.736 52.2507 270.287 52.4865 269.901C52.7223 269.514 53.0433 269.213 53.4496 268.997C53.8587 268.781 54.3175 268.673 54.826 268.673C55.3374 268.673 55.7905 268.781 56.1854 268.997C56.5803 269.213 56.8899 269.504 57.1143 269.871C57.3388 270.237 57.451 270.645 57.451 271.094C57.451 271.415 57.3928 271.729 57.2763 272.036C57.1626 272.34 56.9638 272.679 56.6797 273.054C56.3984 273.426 56.0078 273.881 55.5078 274.418L53.5476 276.514V276.583H57.6044V277.52H52.0987ZM62.2109 277.639C61.5689 277.639 61.022 277.465 60.5703 277.115C60.1186 276.763 59.7734 276.253 59.5348 275.585C59.2962 274.915 59.1768 274.105 59.1768 273.156C59.1768 272.213 59.2962 271.408 59.5348 270.74C59.7763 270.07 60.1229 269.558 60.5746 269.206C61.0291 268.851 61.5746 268.673 62.2109 268.673C62.8473 268.673 63.3913 268.851 63.843 269.206C64.2976 269.558 64.6442 270.07 64.8828 270.74C65.1243 271.408 65.245 272.213 65.245 273.156C65.245 274.105 65.1257 274.915 64.8871 275.585C64.6484 276.253 64.3033 276.763 63.8516 277.115C63.3999 277.465 62.853 277.639 62.2109 277.639ZM62.2109 276.702C62.8473 276.702 63.3416 276.395 63.6939 275.781C64.0462 275.168 64.2223 274.293 64.2223 273.156C64.2223 272.401 64.1413 271.757 63.9794 271.226C63.8203 270.695 63.5902 270.29 63.2891 270.011C62.9908 269.733 62.6314 269.594 62.2109 269.594C61.5803 269.594 61.0874 269.905 60.7322 270.527C60.3771 271.146 60.1996 272.023 60.1996 273.156C60.1996 273.912 60.2791 274.554 60.4382 275.083C60.5973 275.611 60.826 276.013 61.1243 276.288C61.4254 276.564 61.7876 276.702 62.2109 276.702ZM66.8643 277.52V276.753L69.745 273.6C70.0831 273.23 70.3615 272.909 70.5803 272.636C70.799 272.361 70.9609 272.102 71.0661 271.861C71.174 271.617 71.228 271.361 71.228 271.094C71.228 270.787 71.1541 270.521 71.0064 270.297C70.8615 270.073 70.6626 269.899 70.4098 269.777C70.157 269.655 69.8729 269.594 69.5575 269.594C69.2223 269.594 68.9297 269.663 68.6797 269.803C68.4325 269.939 68.2408 270.131 68.1044 270.378C67.9709 270.625 67.9041 270.915 67.9041 271.247H66.8984C66.8984 270.736 67.0163 270.287 67.2521 269.901C67.4879 269.514 67.8089 269.213 68.2152 268.997C68.6243 268.781 69.0831 268.673 69.5916 268.673C70.103 268.673 70.5561 268.781 70.951 268.997C71.3459 269.213 71.6555 269.504 71.88 269.871C72.1044 270.237 72.2166 270.645 72.2166 271.094C72.2166 271.415 72.1584 271.729 72.0419 272.036C71.9283 272.34 71.7294 272.679 71.4453 273.054C71.1641 273.426 70.7734 273.881 70.2734 274.418L68.3132 276.514V276.583H72.37V277.52H66.8643ZM77.1982 268.793V277.52H76.1413V269.901H76.0902L73.9595 271.315V270.242L76.1413 268.793H77.1982Z" fill="#666666"/>
<path d="M385.5 267V261" stroke="#666666"/>
<path d="M371.755 277.52V276.753L374.636 273.6C374.974 273.23 375.252 272.909 375.471 272.636C375.69 272.361 375.852 272.102 375.957 271.861C376.065 271.617 376.119 271.361 376.119 271.094C376.119 270.787 376.045 270.521 375.897 270.297C375.752 270.073 375.553 269.899 375.3 269.777C375.048 269.655 374.763 269.594 374.448 269.594C374.113 269.594 373.82 269.663 373.57 269.803C373.323 269.939 373.131 270.131 372.995 270.378C372.862 270.625 372.795 270.915 372.795 271.247H371.789C371.789 270.736 371.907 270.287 372.143 269.901C372.379 269.514 372.7 269.213 373.106 268.997C373.515 268.781 373.974 268.673 374.482 268.673C374.994 268.673 375.447 268.781 375.842 268.997C376.237 269.213 376.546 269.504 376.771 269.871C376.995 270.237 377.107 270.645 377.107 271.094C377.107 271.415 377.049 271.729 376.933 272.036C376.819 272.34 376.62 272.679 376.336 273.054C376.055 273.426 375.664 273.881 375.164 274.418L373.204 276.514V276.583H377.261V277.52H371.755ZM381.867 277.639C381.225 277.639 380.678 277.465 380.227 277.115C379.775 276.763 379.43 276.253 379.191 275.585C378.952 274.915 378.833 274.105 378.833 273.156C378.833 272.213 378.952 271.408 379.191 270.74C379.433 270.07 379.779 269.558 380.231 269.206C380.685 268.851 381.231 268.673 381.867 268.673C382.504 268.673 383.048 268.851 383.499 269.206C383.954 269.558 384.3 270.07 384.539 270.74C384.781 271.408 384.901 272.213 384.901 273.156C384.901 274.105 384.782 274.915 384.543 275.585C384.305 276.253 383.96 276.763 383.508 277.115C383.056 277.465 382.509 277.639 381.867 277.639ZM381.867 276.702C382.504 276.702 382.998 276.395 383.35 275.781C383.702 275.168 383.879 274.293 383.879 273.156C383.879 272.401 383.798 271.757 383.636 271.226C383.477 270.695 383.246 270.29 382.945 270.011C382.647 269.733 382.288 269.594 381.867 269.594C381.237 269.594 380.744 269.905 380.388 270.527C380.033 271.146 379.856 272.023 379.856 273.156C379.856 273.912 379.935 274.554 380.094 275.083C380.254 275.611 380.482 276.013 380.781 276.288C381.082 276.564 381.444 276.702 381.867 276.702ZM386.521 277.52V276.753L389.401 273.6C389.739 273.23 390.018 272.909 390.237 272.636C390.455 272.361 390.617 272.102 390.722 271.861C390.83 271.617 390.884 271.361 390.884 271.094C390.884 270.787 390.81 270.521 390.663 270.297C390.518 270.073 390.319 269.899 390.066 269.777C389.813 269.655 389.529 269.594 389.214 269.594C388.879 269.594 388.586 269.663 388.336 269.803C388.089 269.939 387.897 270.131 387.761 270.378C387.627 270.625 387.56 270.915 387.56 271.247H386.555C386.555 270.736 386.673 270.287 386.908 269.901C387.144 269.514 387.465 269.213 387.871 268.997C388.281 268.781 388.739 268.673 389.248 268.673C389.759 268.673 390.212 268.781 390.607 268.997C391.002 269.213 391.312 269.504 391.536 269.871C391.761 270.237 391.873 270.645 391.873 271.094C391.873 271.415 391.815 271.729 391.698 272.036C391.585 272.34 391.386 272.679 391.102 273.054C390.82 273.426 390.43 273.881 389.93 274.418L387.969 276.514V276.583H392.026V277.52H386.521ZM393.786 277.52V276.753L396.667 273.6C397.005 273.23 397.283 272.909 397.502 272.636C397.721 272.361 397.883 272.102 397.988 271.861C398.096 271.617 398.15 271.361 398.15 271.094C398.15 270.787 398.076 270.521 397.928 270.297C397.783 270.073 397.585 269.899 397.332 269.777C397.079 269.655 396.795 269.594 396.479 269.594C396.144 269.594 395.852 269.663 395.602 269.803C395.354 269.939 395.163 270.131 395.026 270.378C394.893 270.625 394.826 270.915 394.826 271.247H393.82C393.82 270.736 393.938 270.287 394.174 269.901C394.41 269.514 394.731 269.213 395.137 268.997C395.546 268.781 396.005 268.673 396.513 268.673C397.025 268.673 397.478 268.781 397.873 268.997C398.268 269.213 398.577 269.504 398.802 269.871C399.026 270.237 399.138 270.645 399.138 271.094C399.138 271.415 399.08 271.729 398.964 272.036C398.85 272.34 398.651 272.679 398.367 273.054C398.086 273.426 397.695 273.881 397.195 274.418L395.235 276.514V276.583H399.292V277.52H393.786Z" fill="#666666"/>
<path d="M706 267V261" stroke="#666666"/>
<path d="M692.067 277.52V276.753L694.948 273.6C695.286 273.23 695.565 272.909 695.783 272.636C696.002 272.361 696.164 272.102 696.269 271.861C696.377 271.617 696.431 271.361 696.431 271.094C696.431 270.787 696.357 270.521 696.21 270.297C696.065 270.073 695.866 269.899 695.613 269.777C695.36 269.655 695.076 269.594 694.761 269.594C694.425 269.594 694.133 269.663 693.883 269.803C693.636 269.939 693.444 270.131 693.308 270.378C693.174 270.625 693.107 270.915 693.107 271.247H692.102C692.102 270.736 692.219 270.287 692.455 269.901C692.691 269.514 693.012 269.213 693.418 268.997C693.827 268.781 694.286 268.673 694.795 268.673C695.306 268.673 695.759 268.781 696.154 268.997C696.549 269.213 696.859 269.504 697.083 269.871C697.308 270.237 697.42 270.645 697.42 271.094C697.42 271.415 697.362 271.729 697.245 272.036C697.131 272.34 696.933 272.679 696.648 273.054C696.367 273.426 695.977 273.881 695.477 274.418L693.516 276.514V276.583H697.573V277.52H692.067ZM702.18 277.639C701.538 277.639 700.991 277.465 700.539 277.115C700.087 276.763 699.742 276.253 699.504 275.585C699.265 274.915 699.146 274.105 699.146 273.156C699.146 272.213 699.265 271.408 699.504 270.74C699.745 270.07 700.092 269.558 700.543 269.206C700.998 268.851 701.543 268.673 702.18 268.673C702.816 268.673 703.36 268.851 703.812 269.206C704.266 269.558 704.613 270.07 704.852 270.74C705.093 271.408 705.214 272.213 705.214 273.156C705.214 274.105 705.094 274.915 704.856 275.585C704.617 276.253 704.272 276.763 703.82 277.115C703.369 277.465 702.822 277.639 702.18 277.639ZM702.18 276.702C702.816 276.702 703.31 276.395 703.663 275.781C704.015 275.168 704.191 274.293 704.191 273.156C704.191 272.401 704.11 271.757 703.948 271.226C703.789 270.695 703.559 270.29 703.258 270.011C702.96 269.733 702.6 269.594 702.18 269.594C701.549 269.594 701.056 269.905 700.701 270.527C700.346 271.146 700.168 272.023 700.168 273.156C700.168 273.912 700.248 274.554 700.407 275.083C700.566 275.611 700.795 276.013 701.093 276.288C701.394 276.564 701.756 276.702 702.18 276.702ZM706.833 277.52V276.753L709.714 273.6C710.052 273.23 710.33 272.909 710.549 272.636C710.768 272.361 710.93 272.102 711.035 271.861C711.143 271.617 711.197 271.361 711.197 271.094C711.197 270.787 711.123 270.521 710.975 270.297C710.83 270.073 710.631 269.899 710.379 269.777C710.126 269.655 709.842 269.594 709.526 269.594C709.191 269.594 708.898 269.663 708.648 269.803C708.401 269.939 708.21 270.131 708.073 270.378C707.94 270.625 707.873 270.915 707.873 271.247H706.867C706.867 270.736 706.985 270.287 707.221 269.901C707.457 269.514 707.778 269.213 708.184 268.997C708.593 268.781 709.052 268.673 709.56 268.673C710.072 268.673 710.525 268.781 710.92 268.997C711.315 269.213 711.624 269.504 711.849 269.871C712.073 270.237 712.185 270.645 712.185 271.094C712.185 271.415 712.127 271.729 712.011 272.036C711.897 272.34 711.698 272.679 711.414 273.054C711.133 273.426 710.742 273.881 710.242 274.418L708.282 276.514V276.583H712.339V277.52H706.833ZM717.048 277.639C716.485 277.639 715.984 277.543 715.543 277.35C715.106 277.156 714.758 276.888 714.499 276.544C714.244 276.198 714.104 275.796 714.082 275.338H715.156C715.178 275.619 715.275 275.862 715.445 276.067C715.616 276.269 715.839 276.425 716.114 276.536C716.39 276.646 716.695 276.702 717.031 276.702C717.406 276.702 717.738 276.636 718.028 276.506C718.317 276.375 718.545 276.193 718.71 275.96C718.874 275.727 718.957 275.458 718.957 275.151C718.957 274.83 718.877 274.547 718.718 274.303C718.559 274.056 718.326 273.862 718.019 273.723C717.712 273.584 717.337 273.514 716.894 273.514H716.195V272.577H716.894C717.241 272.577 717.545 272.514 717.806 272.389C718.07 272.264 718.276 272.088 718.424 271.861C718.575 271.634 718.65 271.367 718.65 271.06C718.65 270.764 718.585 270.507 718.454 270.288C718.323 270.07 718.138 269.899 717.9 269.777C717.664 269.655 717.386 269.594 717.065 269.594C716.763 269.594 716.479 269.649 716.212 269.76C715.948 269.868 715.732 270.026 715.565 270.233C715.397 270.438 715.306 270.685 715.292 270.975H714.269C714.286 270.517 714.424 270.117 714.683 269.773C714.941 269.426 715.279 269.156 715.697 268.963C716.117 268.77 716.579 268.673 717.082 268.673C717.621 268.673 718.085 268.783 718.471 269.002C718.857 269.217 719.154 269.503 719.362 269.858C719.569 270.213 719.673 270.597 719.673 271.009C719.673 271.5 719.543 271.919 719.285 272.266C719.029 272.612 718.681 272.852 718.241 272.986V273.054C718.792 273.145 719.222 273.379 719.532 273.757C719.842 274.132 719.996 274.597 719.996 275.151C719.996 275.625 719.867 276.051 719.609 276.429C719.353 276.804 719.004 277.1 718.56 277.315C718.117 277.531 717.613 277.639 717.048 277.639Z" fill="#666666"/>
<path d="M1026.5 267V261" stroke="#666666"/>
<path d="M1012.63 277.52V276.753L1015.51 273.6C1015.85 273.23 1016.13 272.909 1016.35 272.636C1016.57 272.361 1016.73 272.102 1016.83 271.861C1016.94 271.617 1017 271.361 1017 271.094C1017 270.787 1016.92 270.521 1016.77 270.297C1016.63 270.073 1016.43 269.899 1016.18 269.777C1015.92 269.655 1015.64 269.594 1015.33 269.594C1014.99 269.594 1014.7 269.663 1014.45 269.803C1014.2 269.939 1014.01 270.131 1013.87 270.378C1013.74 270.625 1013.67 270.915 1013.67 271.247H1012.67C1012.67 270.736 1012.78 270.287 1013.02 269.901C1013.26 269.514 1013.58 269.213 1013.98 268.997C1014.39 268.781 1014.85 268.673 1015.36 268.673C1015.87 268.673 1016.32 268.781 1016.72 268.997C1017.11 269.213 1017.42 269.504 1017.65 269.871C1017.87 270.237 1017.98 270.645 1017.98 271.094C1017.98 271.415 1017.93 271.729 1017.81 272.036C1017.7 272.34 1017.5 272.679 1017.21 273.054C1016.93 273.426 1016.54 273.881 1016.04 274.418L1014.08 276.514V276.583H1018.14V277.52H1012.63ZM1022.74 277.639C1022.1 277.639 1021.56 277.465 1021.1 277.115C1020.65 276.763 1020.31 276.253 1020.07 275.585C1019.83 274.915 1019.71 274.105 1019.71 273.156C1019.71 272.213 1019.83 271.408 1020.07 270.74C1020.31 270.07 1020.66 269.558 1021.11 269.206C1021.56 268.851 1022.11 268.673 1022.74 268.673C1023.38 268.673 1023.92 268.851 1024.38 269.206C1024.83 269.558 1025.18 270.07 1025.42 270.74C1025.66 271.408 1025.78 272.213 1025.78 273.156C1025.78 274.105 1025.66 274.915 1025.42 275.585C1025.18 276.253 1024.84 276.763 1024.38 277.115C1023.93 277.465 1023.39 277.639 1022.74 277.639ZM1022.74 276.702C1023.38 276.702 1023.87 276.395 1024.23 275.781C1024.58 275.168 1024.76 274.293 1024.76 273.156C1024.76 272.401 1024.67 271.757 1024.51 271.226C1024.35 270.695 1024.12 270.29 1023.82 270.011C1023.52 269.733 1023.16 269.594 1022.74 269.594C1022.11 269.594 1021.62 269.905 1021.27 270.527C1020.91 271.146 1020.73 272.023 1020.73 273.156C1020.73 273.912 1020.81 274.554 1020.97 275.083C1021.13 275.611 1021.36 276.013 1021.66 276.288C1021.96 276.564 1022.32 276.702 1022.74 276.702ZM1027.4 277.52V276.753L1030.28 273.6C1030.62 273.23 1030.89 272.909 1031.11 272.636C1031.33 272.361 1031.49 272.102 1031.6 271.861C1031.71 271.617 1031.76 271.361 1031.76 271.094C1031.76 270.787 1031.69 270.521 1031.54 270.297C1031.39 270.073 1031.2 269.899 1030.94 269.777C1030.69 269.655 1030.41 269.594 1030.09 269.594C1029.76 269.594 1029.46 269.663 1029.21 269.803C1028.97 269.939 1028.77 270.131 1028.64 270.378C1028.5 270.625 1028.44 270.915 1028.44 271.247H1027.43C1027.43 270.736 1027.55 270.287 1027.79 269.901C1028.02 269.514 1028.34 269.213 1028.75 268.997C1029.16 268.781 1029.62 268.673 1030.12 268.673C1030.64 268.673 1031.09 268.781 1031.48 268.997C1031.88 269.213 1032.19 269.504 1032.41 269.871C1032.64 270.237 1032.75 270.645 1032.75 271.094C1032.75 271.415 1032.69 271.729 1032.58 272.036C1032.46 272.34 1032.26 272.679 1031.98 273.054C1031.7 273.426 1031.31 273.881 1030.81 274.418L1028.85 276.514V276.583H1032.9V277.52H1027.4ZM1034.27 275.73V274.861L1038.11 268.793H1038.74V270.139H1038.31L1035.41 274.725V274.793H1040.58V275.73H1034.27ZM1038.38 277.52V275.466V275.061V268.793H1039.38V277.52H1038.38Z" fill="#666666"/>
<path d="M1347 267V261" stroke="#666666"/>
<path d="M1324.07 277.52V276.753L1326.95 273.6C1327.28 273.23 1327.56 272.909 1327.78 272.636C1328 272.361 1328.16 272.102 1328.27 271.861C1328.38 271.617 1328.43 271.361 1328.43 271.094C1328.43 270.787 1328.36 270.521 1328.21 270.297C1328.06 270.073 1327.86 269.899 1327.61 269.777C1327.36 269.655 1327.07 269.594 1326.76 269.594C1326.42 269.594 1326.13 269.663 1325.88 269.803C1325.63 269.939 1325.44 270.131 1325.31 270.378C1325.17 270.625 1325.11 270.915 1325.11 271.247H1324.1C1324.1 270.736 1324.22 270.287 1324.45 269.901C1324.69 269.514 1325.01 269.213 1325.42 268.997C1325.83 268.781 1326.28 268.673 1326.79 268.673C1327.3 268.673 1327.76 268.781 1328.15 268.997C1328.55 269.213 1328.86 269.504 1329.08 269.871C1329.31 270.237 1329.42 270.645 1329.42 271.094C1329.42 271.415 1329.36 271.729 1329.24 272.036C1329.13 272.34 1328.93 272.679 1328.65 273.054C1328.37 273.426 1327.97 273.881 1327.47 274.418L1325.51 276.514V276.583H1329.57V277.52H1324.07ZM1334.18 277.639C1333.54 277.639 1332.99 277.465 1332.54 277.115C1332.09 276.763 1331.74 276.253 1331.5 275.585C1331.26 274.915 1331.14 274.105 1331.14 273.156C1331.14 272.213 1331.26 271.408 1331.5 270.74C1331.74 270.07 1332.09 269.558 1332.54 269.206C1333 268.851 1333.54 268.673 1334.18 268.673C1334.81 268.673 1335.36 268.851 1335.81 269.206C1336.26 269.558 1336.61 270.07 1336.85 270.74C1337.09 271.408 1337.21 272.213 1337.21 273.156C1337.21 274.105 1337.09 274.915 1336.85 275.585C1336.62 276.253 1336.27 276.763 1335.82 277.115C1335.37 277.465 1334.82 277.639 1334.18 277.639ZM1334.18 276.702C1334.81 276.702 1335.31 276.395 1335.66 275.781C1336.01 275.168 1336.19 274.293 1336.19 273.156C1336.19 272.401 1336.11 271.757 1335.95 271.226C1335.79 270.695 1335.56 270.29 1335.26 270.011C1334.96 269.733 1334.6 269.594 1334.18 269.594C1333.55 269.594 1333.05 269.905 1332.7 270.527C1332.34 271.146 1332.17 272.023 1332.17 273.156C1332.17 273.912 1332.25 274.554 1332.41 275.083C1332.56 275.611 1332.79 276.013 1333.09 276.288C1333.39 276.564 1333.75 276.702 1334.18 276.702ZM1338.83 277.52V276.753L1341.71 273.6C1342.05 273.23 1342.33 272.909 1342.55 272.636C1342.77 272.361 1342.93 272.102 1343.03 271.861C1343.14 271.617 1343.19 271.361 1343.19 271.094C1343.19 270.787 1343.12 270.521 1342.97 270.297C1342.83 270.073 1342.63 269.899 1342.38 269.777C1342.12 269.655 1341.84 269.594 1341.52 269.594C1341.19 269.594 1340.9 269.663 1340.65 269.803C1340.4 269.939 1340.21 270.131 1340.07 270.378C1339.94 270.625 1339.87 270.915 1339.87 271.247H1338.87C1338.87 270.736 1338.98 270.287 1339.22 269.901C1339.45 269.514 1339.78 269.213 1340.18 268.997C1340.59 268.781 1341.05 268.673 1341.56 268.673C1342.07 268.673 1342.52 268.781 1342.92 268.997C1343.31 269.213 1343.62 269.504 1343.85 269.871C1344.07 270.237 1344.18 270.645 1344.18 271.094C1344.18 271.415 1344.13 271.729 1344.01 272.036C1343.9 272.34 1343.7 272.679 1343.41 273.054C1343.13 273.426 1342.74 273.881 1342.24 274.418L1340.28 276.514V276.583H1344.34V277.52H1338.83ZM1348.82 277.639C1348.32 277.639 1347.87 277.54 1347.47 277.341C1347.07 277.142 1346.75 276.869 1346.51 276.523C1346.27 276.176 1346.14 275.781 1346.11 275.338H1347.14C1347.18 275.733 1347.36 276.06 1347.67 276.318C1347.99 276.574 1348.38 276.702 1348.82 276.702C1349.18 276.702 1349.5 276.618 1349.78 276.45C1350.06 276.283 1350.28 276.053 1350.44 275.76C1350.6 275.465 1350.68 275.131 1350.68 274.759C1350.68 274.378 1350.6 274.038 1350.43 273.74C1350.27 273.439 1350.04 273.202 1349.75 273.029C1349.46 272.855 1349.13 272.767 1348.76 272.764C1348.49 272.761 1348.21 272.803 1347.93 272.888C1347.65 272.97 1347.42 273.077 1347.24 273.208L1346.25 273.088L1346.78 268.793H1351.31V269.73H1347.66L1347.36 272.304H1347.41C1347.59 272.162 1347.81 272.044 1348.08 271.95C1348.35 271.857 1348.63 271.81 1348.93 271.81C1349.46 271.81 1349.94 271.938 1350.35 272.193C1350.77 272.446 1351.1 272.793 1351.34 273.233C1351.58 273.673 1351.7 274.176 1351.7 274.742C1351.7 275.298 1351.58 275.796 1351.33 276.233C1351.08 276.668 1350.74 277.011 1350.31 277.264C1349.87 277.514 1349.38 277.639 1348.82 277.639Z" fill="#666666"/>
<path d="M65 5V261" stroke="#666666"/>
<path d="M59 261H65" stroke="#666666"/>
<path d="M44.9785 264.649C44.4435 264.649 43.9877 264.504 43.6113 264.213C43.2349 263.919 42.9473 263.494 42.7484 262.938C42.5495 262.379 42.4501 261.704 42.4501 260.914C42.4501 260.128 42.5495 259.457 42.7484 258.9C42.9496 258.341 43.2385 257.915 43.6149 257.622C43.9937 257.326 44.4482 257.178 44.9785 257.178C45.5088 257.178 45.9622 257.326 46.3386 257.622C46.7174 257.915 47.0062 258.341 47.2051 258.9C47.4063 259.457 47.5069 260.128 47.5069 260.914C47.5069 261.704 47.4075 262.379 47.2086 262.938C47.0098 263.494 46.7221 263.919 46.3457 264.213C45.9693 264.504 45.5136 264.649 44.9785 264.649ZM44.9785 263.868C45.5088 263.868 45.9208 263.613 46.2143 263.101C46.5079 262.59 46.6547 261.861 46.6547 260.914C46.6547 260.284 46.5872 259.748 46.4522 259.305C46.3197 258.862 46.1279 258.525 45.877 258.293C45.6284 258.061 45.3289 257.945 44.9785 257.945C44.4529 257.945 44.0422 258.204 43.7463 258.723C43.4503 259.239 43.3024 259.969 43.3024 260.914C43.3024 261.543 43.3687 262.078 43.5012 262.519C43.6338 262.959 43.8244 263.294 44.073 263.524C44.3239 263.753 44.6258 263.868 44.9785 263.868ZM48.9842 257.277H50.0353L52.5069 263.314H52.5922L55.0637 257.277H56.1149V264.55H55.291V259.024H55.22L52.9473 264.55H52.1518L49.8791 259.024H49.8081V264.55H48.9842V257.277Z" fill="#666666"/>
<path d="M59 197H65" stroke="#666666"/>
<path d="M30.3017 200.55V199.911L32.7022 197.283C32.984 196.975 33.216 196.708 33.3983 196.48C33.5806 196.251 33.7155 196.035 33.8031 195.834C33.8931 195.631 33.938 195.417 33.938 195.195C33.938 194.939 33.8765 194.718 33.7534 194.531C33.6326 194.344 33.4669 194.199 33.2562 194.098C33.0455 193.996 32.8088 193.945 32.546 193.945C32.2666 193.945 32.0228 194.003 31.8145 194.119C31.6085 194.233 31.4487 194.392 31.335 194.598C31.2238 194.804 31.1681 195.046 31.1681 195.323H30.3301C30.3301 194.897 30.4283 194.523 30.6248 194.201C30.8213 193.879 31.0888 193.628 31.4274 193.448C31.7683 193.268 32.1506 193.178 32.5744 193.178C33.0005 193.178 33.3781 193.268 33.7072 193.448C34.0363 193.628 34.2943 193.87 34.4814 194.176C34.6684 194.481 34.7619 194.821 34.7619 195.195C34.7619 195.462 34.7134 195.724 34.6163 195.98C34.5216 196.233 34.3559 196.516 34.1191 196.828C33.8848 197.139 33.5592 197.517 33.1426 197.965L31.5091 199.712V199.769H34.8897V200.55H30.3017ZM38.7285 200.649C38.1935 200.649 37.7377 200.504 37.3613 200.213C36.9849 199.919 36.6973 199.494 36.4984 198.938C36.2995 198.379 36.2001 197.704 36.2001 196.914C36.2001 196.128 36.2995 195.457 36.4984 194.9C36.6996 194.341 36.9885 193.915 37.3649 193.622C37.7437 193.326 38.1982 193.178 38.7285 193.178C39.2588 193.178 39.7122 193.326 40.0886 193.622C40.4674 193.915 40.7562 194.341 40.9551 194.9C41.1563 195.457 41.2569 196.128 41.2569 196.914C41.2569 197.704 41.1575 198.379 40.9586 198.938C40.7598 199.494 40.4721 199.919 40.0957 200.213C39.7193 200.504 39.2636 200.649 38.7285 200.649ZM38.7285 199.868C39.2588 199.868 39.6708 199.613 39.9643 199.101C40.2579 198.59 40.4047 197.861 40.4047 196.914C40.4047 196.284 40.3372 195.748 40.2022 195.305C40.0697 194.862 39.8779 194.525 39.627 194.293C39.3784 194.061 39.0789 193.945 38.7285 193.945C38.2029 193.945 37.7922 194.204 37.4963 194.723C37.2003 195.239 37.0524 195.969 37.0524 196.914C37.0524 197.543 37.1187 198.078 37.2512 198.519C37.3838 198.959 37.5744 199.294 37.823 199.524C38.0739 199.753 38.3758 199.868 38.7285 199.868ZM44.9785 200.649C44.4435 200.649 43.9877 200.504 43.6113 200.213C43.2349 199.919 42.9473 199.494 42.7484 198.938C42.5495 198.379 42.4501 197.704 42.4501 196.914C42.4501 196.128 42.5495 195.457 42.7484 194.9C42.9496 194.341 43.2385 193.915 43.6149 193.622C43.9937 193.326 44.4482 193.178 44.9785 193.178C45.5088 193.178 45.9622 193.326 46.3386 193.622C46.7174 193.915 47.0062 194.341 47.2051 194.9C47.4063 195.457 47.5069 196.128 47.5069 196.914C47.5069 197.704 47.4075 198.379 47.2086 198.938C47.0098 199.494 46.7221 199.919 46.3457 200.213C45.9693 200.504 45.5136 200.649 44.9785 200.649ZM44.9785 199.868C45.5088 199.868 45.9208 199.613 46.2143 199.101C46.5079 198.59 46.6547 197.861 46.6547 196.914C46.6547 196.284 46.5872 195.748 46.4522 195.305C46.3197 194.862 46.1279 194.525 45.877 194.293C45.6284 194.061 45.3289 193.945 44.9785 193.945C44.4529 193.945 44.0422 194.204 43.7463 194.723C43.4503 195.239 43.3024 195.969 43.3024 196.914C43.3024 197.543 43.3687 198.078 43.5012 198.519C43.6338 198.959 43.8244 199.294 44.073 199.524C44.3239 199.753 44.6258 199.868 44.9785 199.868ZM48.9842 193.277H50.0353L52.5069 199.314H52.5922L55.0637 193.277H56.1149V200.55H55.291V195.024H55.22L52.9473 200.55H52.1518L49.8791 195.024H49.8081V200.55H48.9842V193.277Z" fill="#666666"/>
<path d="M59 133H65" stroke="#666666"/>
<path d="M29.7699 135.059V134.334L32.9659 129.277H33.4915V130.399H33.1364L30.7216 134.221V134.277H35.0256V135.059H29.7699ZM33.1932 136.55V134.838V134.501V129.277H34.0312V136.55H33.1932ZM38.7285 136.649C38.1935 136.649 37.7377 136.504 37.3613 136.213C36.9849 135.919 36.6973 135.494 36.4984 134.938C36.2995 134.379 36.2001 133.704 36.2001 132.914C36.2001 132.128 36.2995 131.457 36.4984 130.9C36.6996 130.341 36.9885 129.915 37.3649 129.622C37.7437 129.326 38.1982 129.178 38.7285 129.178C39.2588 129.178 39.7122 129.326 40.0886 129.622C40.4674 129.915 40.7562 130.341 40.9551 130.9C41.1563 131.457 41.2569 132.128 41.2569 132.914C41.2569 133.704 41.1575 134.379 40.9586 134.938C40.7598 135.494 40.4721 135.919 40.0957 136.213C39.7193 136.504 39.2636 136.649 38.7285 136.649ZM38.7285 135.868C39.2588 135.868 39.6708 135.613 39.9643 135.101C40.2579 134.59 40.4047 133.861 40.4047 132.914C40.4047 132.284 40.3372 131.748 40.2022 131.305C40.0697 130.862 39.8779 130.525 39.627 130.293C39.3784 130.061 39.0789 129.945 38.7285 129.945C38.2029 129.945 37.7922 130.204 37.4963 130.723C37.2003 131.239 37.0524 131.969 37.0524 132.914C37.0524 133.543 37.1187 134.078 37.2512 134.519C37.3838 134.959 37.5744 135.294 37.823 135.524C38.0739 135.753 38.3758 135.868 38.7285 135.868ZM44.9785 136.649C44.4435 136.649 43.9877 136.504 43.6113 136.213C43.2349 135.919 42.9473 135.494 42.7484 134.938C42.5495 134.379 42.4501 133.704 42.4501 132.914C42.4501 132.128 42.5495 131.457 42.7484 130.9C42.9496 130.341 43.2385 129.915 43.6149 129.622C43.9937 129.326 44.4482 129.178 44.9785 129.178C45.5088 129.178 45.9622 129.326 46.3386 129.622C46.7174 129.915 47.0062 130.341 47.2051 130.9C47.4063 131.457 47.5069 132.128 47.5069 132.914C47.5069 133.704 47.4075 134.379 47.2086 134.938C47.0098 135.494 46.7221 135.919 46.3457 136.213C45.9693 136.504 45.5136 136.649 44.9785 136.649ZM44.9785 135.868C45.5088 135.868 45.9208 135.613 46.2143 135.101C46.5079 134.59 46.6547 133.861 46.6547 132.914C46.6547 132.284 46.5872 131.748 46.4522 131.305C46.3197 130.862 46.1279 130.525 45.877 130.293C45.6284 130.061 45.3289 129.945 44.9785 129.945C44.4529 129.945 44.0422 130.204 43.7463 130.723C43.4503 131.239 43.3024 131.969 43.3024 132.914C43.3024 133.543 43.3687 134.078 43.5012 134.519C43.6338 134.959 43.8244 135.294 44.073 135.524C44.3239 135.753 44.6258 135.868 44.9785 135.868ZM48.9842 129.277H50.0353L52.5069 135.314H52.5922L55.0637 129.277H56.1149V136.55H55.291V131.024H55.22L52.9473 136.55H52.1518L49.8791 131.024H49.8081V136.55H48.9842V129.277Z" fill="#666666"/>
<path d="M59 69H65" stroke="#666666"/>
<path d="M32.5309 72.6495C32.2326 72.6447 31.9343 72.5879 31.636 72.479C31.3377 72.3701 31.0655 72.1866 30.8192 71.9286C30.573 71.6682 30.3754 71.3166 30.2262 70.8739C30.0771 70.4288 30.0025 69.8701 30.0025 69.1978C30.0025 68.5538 30.0629 67.9833 30.1836 67.4861C30.3043 66.9866 30.4795 66.5664 30.7092 66.2255C30.9388 65.8822 31.2158 65.6218 31.5401 65.4442C31.8668 65.2667 32.235 65.1779 32.6445 65.1779C33.0517 65.1779 33.4139 65.2596 33.7312 65.4229C34.0508 65.5839 34.3112 65.8088 34.5124 66.0976C34.7137 66.3865 34.8439 66.7191 34.9031 67.0955H34.0366C33.9561 66.7688 33.7998 66.4977 33.5678 66.2823C33.3358 66.0669 33.0281 65.9591 32.6445 65.9591C32.0811 65.9591 31.6372 66.2042 31.3129 66.6942C30.9909 67.1843 30.8287 67.872 30.8263 68.7574H30.8832C31.0157 68.5562 31.1732 68.3846 31.3555 68.2425C31.5401 68.0981 31.7437 67.9868 31.9663 67.9087C32.1888 67.8306 32.4244 67.7915 32.6729 67.7915C33.0896 67.7915 33.4708 67.8957 33.8164 68.104C34.1621 68.31 34.439 68.5953 34.6474 68.9598C34.8557 69.3221 34.9599 69.7375 34.9599 70.2063C34.9599 70.6561 34.8593 71.068 34.658 71.4421C34.4568 71.8138 34.1739 72.1097 33.8093 72.3299C33.4471 72.5477 33.021 72.6542 32.5309 72.6495ZM32.5309 71.8682C32.8292 71.8682 33.0967 71.7937 33.3335 71.6445C33.5726 71.4954 33.7608 71.2953 33.8981 71.0444C34.0378 70.7934 34.1076 70.5141 34.1076 70.2063C34.1076 69.9056 34.0401 69.6322 33.9052 69.386C33.7726 69.1374 33.5891 68.9397 33.3548 68.7929C33.1228 68.6462 32.8576 68.5728 32.5593 68.5728C32.3344 68.5728 32.1249 68.6178 31.9308 68.7077C31.7366 68.7953 31.5662 68.9161 31.4194 69.0699C31.275 69.2238 31.1613 69.4002 31.0785 69.5991C30.9956 69.7956 30.9542 70.0027 30.9542 70.2205C30.9542 70.5093 31.0217 70.7792 31.1566 71.0302C31.2939 71.2811 31.4809 71.4835 31.7177 71.6374C31.9568 71.7913 32.2279 71.8682 32.5309 71.8682ZM38.7285 72.6495C38.1935 72.6495 37.7377 72.5039 37.3613 72.2127C36.9849 71.9191 36.6973 71.4942 36.4984 70.9378C36.2995 70.3791 36.2001 69.7044 36.2001 68.9137C36.2001 68.1277 36.2995 67.4565 36.4984 66.9002C36.6996 66.3415 36.9885 65.9153 37.3649 65.6218C37.7437 65.3259 38.1982 65.1779 38.7285 65.1779C39.2588 65.1779 39.7122 65.3259 40.0886 65.6218C40.4674 65.9153 40.7562 66.3415 40.9551 66.9002C41.1563 67.4565 41.2569 68.1277 41.2569 68.9137C41.2569 69.7044 41.1575 70.3791 40.9586 70.9378C40.7598 71.4942 40.4721 71.9191 40.0957 72.2127C39.7193 72.5039 39.2636 72.6495 38.7285 72.6495ZM38.7285 71.8682C39.2588 71.8682 39.6708 71.6125 39.9643 71.1012C40.2579 70.5898 40.4047 69.8607 40.4047 68.9137C40.4047 68.284 40.3372 67.7477 40.2022 67.305C40.0697 66.8623 39.8779 66.525 39.627 66.2929C39.3784 66.0609 39.0789 65.9449 38.7285 65.9449C38.2029 65.9449 37.7922 66.2042 37.4963 66.7226C37.2003 67.2387 37.0524 67.9691 37.0524 68.9137C37.0524 69.5434 37.1187 70.0785 37.2512 70.5188C37.3838 70.9591 37.5744 71.2941 37.823 71.5238C38.0739 71.7534 38.3758 71.8682 38.7285 71.8682ZM44.9785 72.6495C44.4435 72.6495 43.9877 72.5039 43.6113 72.2127C43.2349 71.9191 42.9473 71.4942 42.7484 70.9378C42.5495 70.3791 42.4501 69.7044 42.4501 68.9137C42.4501 68.1277 42.5495 67.4565 42.7484 66.9002C42.9496 66.3415 43.2385 65.9153 43.6149 65.6218C43.9937 65.3259 44.4482 65.1779 44.9785 65.1779C45.5088 65.1779 45.9622 65.3259 46.3386 65.6218C46.7174 65.9153 47.0062 66.3415 47.2051 66.9002C47.4063 67.4565 47.5069 68.1277 47.5069 68.9137C47.5069 69.7044 47.4075 70.3791 47.2086 70.9378C47.0098 71.4942 46.7221 71.9191 46.3457 72.2127C45.9693 72.5039 45.5136 72.6495 44.9785 72.6495ZM44.9785 71.8682C45.5088 71.8682 45.9208 71.6125 46.2143 71.1012C46.5079 70.5898 46.6547 69.8607 46.6547 68.9137C46.6547 68.284 46.5872 67.7477 46.4522 67.305C46.3197 66.8623 46.1279 66.525 45.877 66.2929C45.6284 66.0609 45.3289 65.9449 44.9785 65.9449C44.4529 65.9449 44.0422 66.2042 43.7463 66.7226C43.4503 67.2387 43.3024 67.9691 43.3024 68.9137C43.3024 69.5434 43.3687 70.0785 43.5012 70.5188C43.6338 70.9591 43.8244 71.2941 44.073 71.5238C44.3239 71.7534 44.6258 71.8682 44.9785 71.8682ZM48.9842 65.2773H50.0353L52.5069 71.3143H52.5922L55.0637 65.2773H56.1149V72.55H55.291V67.0245H55.22L52.9473 72.55H52.1518L49.8791 67.0245H49.8081V72.55H48.9842V65.2773Z" fill="#666666"/>
<path d="M59 5H65" stroke="#666666"/>
<path d="M32.5238 11.1495C32.0361 11.1495 31.6052 11.0631 31.2312 10.8902C30.8595 10.7151 30.5695 10.4748 30.3612 10.1694C30.1528 9.8616 30.0498 9.51122 30.0522 9.11823C30.0498 8.81047 30.1102 8.52637 30.2333 8.26596C30.3564 8.00317 30.5245 7.78419 30.7376 7.609C30.953 7.43144 31.1933 7.31899 31.4585 7.27164V7.22903C31.1104 7.13906 30.8335 6.94375 30.6275 6.64309C30.4215 6.34006 30.3197 5.9956 30.3221 5.60971C30.3197 5.24039 30.4132 4.91013 30.6026 4.61894C30.792 4.32775 31.0524 4.09811 31.3839 3.93002C31.7177 3.76193 32.0977 3.67789 32.5238 3.67789C32.9452 3.67789 33.3216 3.76193 33.6531 3.93002C33.9845 4.09811 34.2449 4.32775 34.4343 4.61894C34.6261 4.91013 34.7231 5.24039 34.7255 5.60971C34.7231 5.9956 34.6178 6.34006 34.4094 6.64309C34.2035 6.94375 33.93 7.13906 33.5891 7.22903V7.27164C33.8519 7.31899 34.0887 7.43144 34.2994 7.609C34.5101 7.78419 34.6781 8.00317 34.8036 8.26596C34.9291 8.52637 34.993 8.81047 34.9954 9.11823C34.993 9.51122 34.8865 9.8616 34.6758 10.1694C34.4674 10.4748 34.1774 10.7151 33.8058 10.8902C33.4364 11.0631 33.0091 11.1495 32.5238 11.1495ZM32.5238 10.3682C32.8529 10.3682 33.137 10.315 33.3761 10.2084C33.6152 10.1019 33.7998 9.95156 33.93 9.75744C34.0603 9.56331 34.1265 9.33603 34.1289 9.07562C34.1265 8.801 34.0555 8.55833 33.9158 8.34763C33.7762 8.13693 33.5856 7.97121 33.3441 7.85047C33.105 7.72974 32.8316 7.66937 32.5238 7.66937C32.2137 7.66937 31.9367 7.72974 31.6928 7.85047C31.4513 7.97121 31.2608 8.13693 31.1211 8.34763C30.9838 8.55833 30.9163 8.801 30.9187 9.07562C30.9163 9.33603 30.979 9.56331 31.1069 9.75744C31.2371 9.95156 31.4229 10.1019 31.6644 10.2084C31.9059 10.315 32.1924 10.3682 32.5238 10.3682ZM32.5238 6.91653C32.7842 6.91653 33.015 6.86444 33.2163 6.76028C33.4199 6.65611 33.5797 6.51051 33.6957 6.32349C33.8117 6.13646 33.8709 5.91747 33.8732 5.66653C33.8709 5.42031 33.8129 5.20606 33.6992 5.02377C33.5856 4.83911 33.4281 4.69707 33.2269 4.59763C33.0257 4.49583 32.7913 4.44494 32.5238 4.44494C32.2515 4.44494 32.0136 4.49583 31.81 4.59763C31.6064 4.69707 31.449 4.83911 31.3377 5.02377C31.2264 5.20606 31.172 5.42031 31.1744 5.66653C31.172 5.91747 31.2276 6.13646 31.3413 6.32349C31.4573 6.51051 31.6171 6.65611 31.8207 6.76028C32.0243 6.86444 32.2586 6.91653 32.5238 6.91653ZM38.7285 11.1495C38.1935 11.1495 37.7377 11.0039 37.3613 10.7127C36.9849 10.4191 36.6973 9.99418 36.4984 9.43783C36.2995 8.87912 36.2001 8.2044 36.2001 7.41369C36.2001 6.6277 36.2995 5.95654 36.4984 5.40019C36.6996 4.84148 36.9885 4.41534 37.3649 4.12178C37.7437 3.82585 38.1982 3.67789 38.7285 3.67789C39.2588 3.67789 39.7122 3.82585 40.0886 4.12178C40.4674 4.41534 40.7562 4.84148 40.9551 5.40019C41.1563 5.95654 41.2569 6.6277 41.2569 7.41369C41.2569 8.2044 41.1575 8.87912 40.9586 9.43783C40.7598 9.99418 40.4721 10.4191 40.0957 10.7127C39.7193 11.0039 39.2636 11.1495 38.7285 11.1495ZM38.7285 10.3682C39.2588 10.3682 39.6708 10.1125 39.9643 9.60119C40.2579 9.08982 40.4047 8.36065 40.4047 7.41369C40.4047 6.78395 40.3372 6.24773 40.2022 5.80502C40.0697 5.36231 39.8779 5.02495 39.627 4.79295C39.3784 4.56094 39.0789 4.44494 38.7285 4.44494C38.2029 4.44494 37.7922 4.70417 37.4963 5.22263C37.2003 5.73873 37.0524 6.46908 37.0524 7.41369C37.0524 8.04342 37.1187 8.57846 37.2512 9.0188C37.3838 9.45914 37.5744 9.79413 37.823 10.0238C38.0739 10.2534 38.3758 10.3682 38.7285 10.3682ZM44.9785 11.1495C44.4435 11.1495 43.9877 11.0039 43.6113 10.7127C43.2349 10.4191 42.9473 9.99418 42.7484 9.43783C42.5495 8.87912 42.4501 8.2044 42.4501 7.41369C42.4501 6.6277 42.5495 5.95654 42.7484 5.40019C42.9496 4.84148 43.2385 4.41534 43.6149 4.12178C43.9937 3.82585 44.4482 3.67789 44.9785 3.67789C45.5088 3.67789 45.9622 3.82585 46.3386 4.12178C46.7174 4.41534 47.0062 4.84148 47.2051 5.40019C47.4063 5.95654 47.5069 6.6277 47.5069 7.41369C47.5069 8.2044 47.4075 8.87912 47.2086 9.43783C47.0098 9.99418 46.7221 10.4191 46.3457 10.7127C45.9693 11.0039 45.5136 11.1495 44.9785 11.1495ZM44.9785 10.3682C45.5088 10.3682 45.9208 10.1125 46.2143 9.60119C46.5079 9.08982 46.6547 8.36065 46.6547 7.41369C46.6547 6.78395 46.5872 6.24773 46.4522 5.80502C46.3197 5.36231 46.1279 5.02495 45.877 4.79295C45.6284 4.56094 45.3289 4.44494 44.9785 4.44494C44.4529 4.44494 44.0422 4.70417 43.7463 5.22263C43.4503 5.73873 43.3024 6.46908 43.3024 7.41369C43.3024 8.04342 43.3687 8.57846 43.5012 9.0188C43.6338 9.45914 43.8244 9.79413 44.073 10.0238C44.3239 10.2534 44.6258 10.3682 44.9785 10.3682ZM48.9842 3.77732H50.0353L52.5069 9.81425H52.5922L55.0637 3.77732H56.1149V11.05H55.291V5.52448H55.22L52.9473 11.05H52.1518L49.8791 5.52448H49.8081V11.05H48.9842V3.77732Z" fill="#666666"/>
<path d="M65 46.2591C171.833 57.9481 278.667 69.6381 385.5 69.6381C492.333 69.6381 599.167 64.7981 706 55.1171C812.833 45.4371 919.667 8.39307 1026.5 8.39307C1133.33 8.39307 1240.17 8.67607 1347 8.96007" stroke="#009189" stroke-width="2.5"/>
<path d="M65 50.2589C67.2091 50.2589 69 48.4681 69 46.2589C69 44.0498 67.2091 42.2589 65 42.2589C62.7909 42.2589 61 44.0498 61 46.2589C61 48.4681 62.7909 50.2589 65 50.2589Z" fill="white" stroke="#009189" stroke-width="2.5"/>
<path d="M385.5 73.6381C387.709 73.6381 389.5 71.8472 389.5 69.6381C389.5 67.4289 387.709 65.6381 385.5 65.6381C383.291 65.6381 381.5 67.4289 381.5 69.6381C381.5 71.8472 383.291 73.6381 385.5 73.6381Z" fill="white" stroke="#009189" stroke-width="2.5"/>
<path d="M706 59.1174C708.209 59.1174 710 57.3266 710 55.1174C710 52.9083 708.209 51.1174 706 51.1174C703.791 51.1174 702 52.9083 702 55.1174C702 57.3266 703.791 59.1174 706 59.1174Z" fill="white" stroke="#009189" stroke-width="2.5"/>
<path d="M1026.5 12.3933C1028.71 12.3933 1030.5 10.6024 1030.5 8.39331C1030.5 6.18417 1028.71 4.39331 1026.5 4.39331C1024.29 4.39331 1022.5 6.18417 1022.5 8.39331C1022.5 10.6024 1024.29 12.3933 1026.5 12.3933Z" fill="white" stroke="#009189" stroke-width="2.5"/>
<path d="M1347 12.9597C1349.21 12.9597 1351 11.1689 1351 8.95972C1351 6.75058 1349.21 4.95972 1347 4.95972C1344.79 4.95972 1343 6.75058 1343 8.95972C1343 11.1689 1344.79 12.9597 1347 12.9597Z" fill="white" stroke="#009189" stroke-width="2.5"/>
<path d="M65 46.2591C171.833 57.9481 278.667 69.6381 385.5 69.6381C492.333 69.6381 599.167 64.7981 706 55.1171C812.833 45.4371 919.667 8.39307 1026.5 8.39307C1133.33 8.39307 1240.17 8.67607 1347 8.96007" stroke="#20419A" stroke-width="2"/>
<path d="M65 49.2589C66.6569 49.2589 68 47.9158 68 46.2589C68 44.6021 66.6569 43.2589 65 43.2589C63.3431 43.2589 62 44.6021 62 46.2589C62 47.9158 63.3431 49.2589 65 49.2589Z" fill="white" stroke="#20419A" stroke-width="2"/>
<path d="M385.5 72.6381C387.157 72.6381 388.5 71.2949 388.5 69.6381C388.5 67.9812 387.157 66.6381 385.5 66.6381C383.843 66.6381 382.5 67.9812 382.5 69.6381C382.5 71.2949 383.843 72.6381 385.5 72.6381Z" fill="white" stroke="#20419A" stroke-width="2"/>
<path d="M706 58.1174C707.657 58.1174 709 56.7743 709 55.1174C709 53.4606 707.657 52.1174 706 52.1174C704.343 52.1174 703 53.4606 703 55.1174C703 56.7743 704.343 58.1174 706 58.1174Z" fill="white" stroke="#20419A" stroke-width="2"/>
<path d="M1026.5 11.3933C1028.16 11.3933 1029.5 10.0502 1029.5 8.39331C1029.5 6.73646 1028.16 5.39331 1026.5 5.39331C1024.84 5.39331 1023.5 6.73646 1023.5 8.39331C1023.5 10.0502 1024.84 11.3933 1026.5 11.3933Z" fill="white" stroke="#20419A" stroke-width="2"/>
<path d="M1347 11.9597C1348.66 11.9597 1350 10.6166 1350 8.95972C1350 7.30286 1348.66 5.95972 1347 5.95972C1345.34 5.95972 1344 7.30286 1344 8.95972C1344 10.6166 1345.34 11.9597 1347 11.9597Z" fill="white" stroke="#20419A" stroke-width="2"/>
<path d="M65 46.2591C171.833 57.9481 278.667 69.6381 385.5 69.6381C492.333 69.6381 599.167 64.7981 706 55.1171C812.833 45.4371 919.667 8.39307 1026.5 8.39307C1133.33 8.39307 1240.17 8.67607 1347 8.96007" stroke="#00AE81" stroke-width="2" stroke-dasharray="5 2 5 2 5 2 5 2"/>
<path d="M65 49.2589C66.6569 49.2589 68 47.9158 68 46.2589C68 44.6021 66.6569 43.2589 65 43.2589C63.3431 43.2589 62 44.6021 62 46.2589C62 47.9158 63.3431 49.2589 65 49.2589Z" fill="white" stroke="#00AE81" stroke-width="2" stroke-dasharray="5 2"/>
<path d="M385.5 72.6381C387.157 72.6381 388.5 71.2949 388.5 69.6381C388.5 67.9812 387.157 66.6381 385.5 66.6381C383.843 66.6381 382.5 67.9812 382.5 69.6381C382.5 71.2949 383.843 72.6381 385.5 72.6381Z" fill="white" stroke="#00AE81" stroke-width="2" stroke-dasharray="5 2"/>
<path d="M706 58.1174C707.657 58.1174 709 56.7743 709 55.1174C709 53.4606 707.657 52.1174 706 52.1174C704.343 52.1174 703 53.4606 703 55.1174C703 56.7743 704.343 58.1174 706 58.1174Z" fill="white" stroke="#00AE81" stroke-width="2" stroke-dasharray="5 2"/>
<path d="M1026.5 11.3933C1028.16 11.3933 1029.5 10.0502 1029.5 8.39331C1029.5 6.73646 1028.16 5.39331 1026.5 5.39331C1024.84 5.39331 1023.5 6.73646 1023.5 8.39331C1023.5 10.0502 1024.84 11.3933 1026.5 11.3933Z" fill="white" stroke="#00AE81" stroke-width="2" stroke-dasharray="5 2"/>
<path d="M1347 11.9597C1348.66 11.9597 1350 10.6166 1350 8.95972C1350 7.30286 1348.66 5.95972 1347 5.95972C1345.34 5.95972 1344 7.30286 1344 8.95972C1344 10.6166 1345.34 11.9597 1347 11.9597Z" fill="white" stroke="#00AE81" stroke-width="2" stroke-dasharray="5 2"/>
<path d="M65 46.2591C171.833 57.9481 278.667 69.6381 385.5 69.6381C492.333 69.6381 599.167 64.7981 706 55.1171C812.833 45.4371 919.667 8.39307 1026.5 8.39307C1133.33 8.39307 1240.17 8.67607 1347 8.96007" stroke="#EF373E" stroke-width="2" stroke-dasharray="3 3 3 3 3 3 3 3"/>
<path d="M65 49.2589C66.6569 49.2589 68 47.9158 68 46.2589C68 44.6021 66.6569 43.2589 65 43.2589C63.3431 43.2589 62 44.6021 62 46.2589C62 47.9158 63.3431 49.2589 65 49.2589Z" fill="white" stroke="#EF373E" stroke-width="2" stroke-dasharray="3 3"/>
<path d="M385.5 72.6381C387.157 72.6381 388.5 71.2949 388.5 69.6381C388.5 67.9812 387.157 66.6381 385.5 66.6381C383.843 66.6381 382.5 67.9812 382.5 69.6381C382.5 71.2949 383.843 72.6381 385.5 72.6381Z" fill="white" stroke="#EF373E" stroke-width="2" stroke-dasharray="3 3"/>
<path d="M706 58.1174C707.657 58.1174 709 56.7743 709 55.1174C709 53.4606 707.657 52.1174 706 52.1174C704.343 52.1174 703 53.4606 703 55.1174C703 56.7743 704.343 58.1174 706 58.1174Z" fill="white" stroke="#EF373E" stroke-width="2" stroke-dasharray="3 3"/>
<path d="M1026.5 11.3933C1028.16 11.3933 1029.5 10.0502 1029.5 8.39331C1029.5 6.73646 1028.16 5.39331 1026.5 5.39331C1024.84 5.39331 1023.5 6.73646 1023.5 8.39331C1023.5 10.0502 1024.84 11.3933 1026.5 11.3933Z" fill="white" stroke="#EF373E" stroke-width="2" stroke-dasharray="3 3"/>
<path d="M1347 11.9597C1348.66 11.9597 1350 10.6166 1350 8.95972C1350 7.30286 1348.66 5.95972 1347 5.95972C1345.34 5.95972 1344 7.30286 1344 8.95972C1344 10.6166 1345.34 11.9597 1347 11.9597Z" fill="white" stroke="#EF373E" stroke-width="2" stroke-dasharray="3 3"/>
</g>
<g clip-path="url(#clip1_2_3846)">
<path d="M435.516 303.797H440.182M440.182 303.797C440.182 303.178 440.428 302.585 440.866 302.147C441.303 301.709 441.897 301.464 442.516 301.464C443.134 301.464 443.728 301.709 444.166 302.147C444.603 302.585 444.849 303.178 444.849 303.797M440.182 303.797C440.182 304.416 440.428 305.009 440.866 305.447C441.303 305.884 441.897 306.13 442.516 306.13C443.134 306.13 443.728 305.884 444.166 305.447C444.603 305.009 444.849 304.416 444.849 303.797M444.849 303.797H449.516" stroke="#009189" stroke-width="1.75"/>
</g>
<path d="M455.652 309V297.8H459.844C460.793 297.8 461.609 297.955 462.292 298.264C462.975 298.563 463.497 299 463.86 299.576C464.233 300.141 464.42 300.829 464.42 301.64C464.42 302.429 464.233 303.112 463.86 303.688C463.497 304.253 462.975 304.691 462.292 305C461.609 305.299 460.793 305.448 459.844 305.448H456.308L456.836 304.904V309H455.652ZM463.3 309L460.42 304.936H461.7L464.596 309H463.3ZM456.836 305L456.308 304.44H459.812C460.932 304.44 461.78 304.195 462.356 303.704C462.943 303.213 463.236 302.525 463.236 301.64C463.236 300.744 462.943 300.051 462.356 299.56C461.78 299.069 460.932 298.824 459.812 298.824H456.308L456.836 298.264V305ZM470.543 309.08C469.668 309.08 468.9 308.899 468.239 308.536C467.577 308.163 467.06 307.656 466.687 307.016C466.313 306.365 466.127 305.624 466.127 304.792C466.127 303.96 466.303 303.224 466.655 302.584C467.017 301.944 467.508 301.443 468.127 301.08C468.756 300.707 469.46 300.52 470.239 300.52C471.028 300.52 471.727 300.701 472.335 301.064C472.953 301.416 473.439 301.917 473.791 302.568C474.143 303.208 474.319 303.949 474.319 304.792C474.319 304.845 474.313 304.904 474.303 304.968C474.303 305.021 474.303 305.08 474.303 305.144H466.991V304.296H473.695L473.247 304.632C473.247 304.024 473.113 303.485 472.847 303.016C472.591 302.536 472.239 302.163 471.791 301.896C471.343 301.629 470.825 301.496 470.239 301.496C469.663 301.496 469.145 301.629 468.687 301.896C468.228 302.163 467.871 302.536 467.615 303.016C467.359 303.496 467.231 304.045 467.231 304.664V304.84C467.231 305.48 467.369 306.045 467.647 306.536C467.935 307.016 468.329 307.395 468.831 307.672C469.343 307.939 469.924 308.072 470.575 308.072C471.087 308.072 471.561 307.981 471.999 307.8C472.447 307.619 472.831 307.341 473.151 306.968L473.791 307.704C473.417 308.152 472.948 308.493 472.383 308.728C471.828 308.963 471.215 309.08 470.543 309.08ZM478.635 309L474.907 300.6H476.091L479.515 308.392H478.955L482.427 300.6H483.547L479.803 309H478.635ZM488.48 309.08C487.605 309.08 486.837 308.899 486.176 308.536C485.515 308.163 484.997 307.656 484.624 307.016C484.251 306.365 484.064 305.624 484.064 304.792C484.064 303.96 484.24 303.224 484.592 302.584C484.955 301.944 485.445 301.443 486.064 301.08C486.693 300.707 487.397 300.52 488.176 300.52C488.965 300.52 489.664 300.701 490.272 301.064C490.891 301.416 491.376 301.917 491.728 302.568C492.08 303.208 492.256 303.949 492.256 304.792C492.256 304.845 492.251 304.904 492.24 304.968C492.24 305.021 492.24 305.08 492.24 305.144H484.928V304.296H491.632L491.184 304.632C491.184 304.024 491.051 303.485 490.784 303.016C490.528 302.536 490.176 302.163 489.728 301.896C489.28 301.629 488.763 301.496 488.176 301.496C487.6 301.496 487.083 301.629 486.624 301.896C486.165 302.163 485.808 302.536 485.552 303.016C485.296 303.496 485.168 304.045 485.168 304.664V304.84C485.168 305.48 485.307 306.045 485.584 306.536C485.872 307.016 486.267 307.395 486.768 307.672C487.28 307.939 487.861 308.072 488.512 308.072C489.024 308.072 489.499 307.981 489.936 307.8C490.384 307.619 490.768 307.341 491.088 306.968L491.728 307.704C491.355 308.152 490.885 308.493 490.32 308.728C489.765 308.963 489.152 309.08 488.48 309.08ZM498.856 300.52C499.539 300.52 500.136 300.653 500.648 300.92C501.171 301.176 501.576 301.571 501.864 302.104C502.163 302.637 502.312 303.309 502.312 304.12V309H501.176V304.232C501.176 303.347 500.952 302.68 500.504 302.232C500.067 301.773 499.448 301.544 498.648 301.544C498.051 301.544 497.528 301.667 497.08 301.912C496.643 302.147 496.302 302.493 496.056 302.952C495.822 303.4 495.704 303.944 495.704 304.584V309H494.568V300.6H495.656V302.904L495.48 302.472C495.747 301.864 496.174 301.389 496.76 301.048C497.347 300.696 498.046 300.52 498.856 300.52ZM508.853 309.08C508.138 309.08 507.514 308.947 506.981 308.68C506.448 308.413 506.032 308.013 505.733 307.48C505.445 306.947 505.301 306.28 505.301 305.48V300.6H506.437V305.352C506.437 306.248 506.656 306.925 507.093 307.384C507.541 307.832 508.165 308.056 508.965 308.056C509.552 308.056 510.058 307.939 510.485 307.704C510.922 307.459 511.253 307.107 511.477 306.648C511.712 306.189 511.829 305.64 511.829 305V300.6H512.965V309H511.877V306.696L512.053 307.112C511.786 307.731 511.37 308.216 510.805 308.568C510.25 308.909 509.6 309.08 508.853 309.08ZM519.699 309.08C518.824 309.08 518.056 308.899 517.395 308.536C516.734 308.163 516.216 307.656 515.843 307.016C515.47 306.365 515.283 305.624 515.283 304.792C515.283 303.96 515.459 303.224 515.811 302.584C516.174 301.944 516.664 301.443 517.283 301.08C517.912 300.707 518.616 300.52 519.395 300.52C520.184 300.52 520.883 300.701 521.491 301.064C522.11 301.416 522.595 301.917 522.947 302.568C523.299 303.208 523.475 303.949 523.475 304.792C523.475 304.845 523.47 304.904 523.459 304.968C523.459 305.021 523.459 305.08 523.459 305.144H516.147V304.296H522.851L522.403 304.632C522.403 304.024 522.27 303.485 522.003 303.016C521.747 302.536 521.395 302.163 520.947 301.896C520.499 301.629 519.982 301.496 519.395 301.496C518.819 301.496 518.302 301.629 517.843 301.896C517.384 302.163 517.027 302.536 516.771 303.016C516.515 303.496 516.387 304.045 516.387 304.664V304.84C516.387 305.48 516.526 306.045 516.803 306.536C517.091 307.016 517.486 307.395 517.987 307.672C518.499 307.939 519.08 308.072 519.731 308.072C520.243 308.072 520.718 307.981 521.155 307.8C521.603 307.619 521.987 307.341 522.307 306.968L522.947 307.704C522.574 308.152 522.104 308.493 521.539 308.728C520.984 308.963 520.371 309.08 519.699 309.08Z" fill="#009189"/>
<g clip-path="url(#clip2_2_3846)">
<path d="M533.938 303.797H538.604M538.604 303.797C538.604 303.178 538.85 302.585 539.288 302.147C539.725 301.709 540.319 301.464 540.938 301.464C541.556 301.464 542.15 301.709 542.587 302.147C543.025 302.585 543.271 303.178 543.271 303.797M538.604 303.797C538.604 304.416 538.85 305.009 539.288 305.447C539.725 305.884 540.319 306.13 540.938 306.13C541.556 306.13 542.15 305.884 542.587 305.447C543.025 305.009 543.271 304.416 543.271 303.797M543.271 303.797H547.938" stroke="#20419A" stroke-width="1.75"/>
</g>
<path d="M559.15 309.096C558.297 309.096 557.507 308.957 556.782 308.68C556.067 308.392 555.443 307.992 554.91 307.48C554.387 306.968 553.977 306.365 553.678 305.672C553.39 304.979 553.246 304.221 553.246 303.4C553.246 302.579 553.39 301.821 553.678 301.128C553.977 300.435 554.393 299.832 554.926 299.32C555.459 298.808 556.083 298.413 556.798 298.136C557.523 297.848 558.313 297.704 559.166 297.704C560.019 297.704 560.798 297.837 561.502 298.104C562.217 298.371 562.825 298.776 563.326 299.32L562.59 300.072C562.121 299.603 561.603 299.267 561.038 299.064C560.473 298.861 559.865 298.76 559.214 298.76C558.521 298.76 557.881 298.877 557.294 299.112C556.718 299.336 556.211 299.661 555.774 300.088C555.347 300.504 555.011 300.995 554.766 301.56C554.531 302.115 554.414 302.728 554.414 303.4C554.414 304.061 554.531 304.675 554.766 305.24C555.011 305.805 555.347 306.301 555.774 306.728C556.211 307.144 556.718 307.469 557.294 307.704C557.881 307.928 558.515 308.04 559.198 308.04C559.838 308.04 560.441 307.944 561.006 307.752C561.582 307.56 562.11 307.235 562.59 306.776L563.262 307.672C562.729 308.141 562.105 308.499 561.39 308.744C560.675 308.979 559.929 309.096 559.15 309.096ZM562.126 307.528V303.4H563.262V307.672L562.126 307.528ZM566.373 309V300.6H567.461V302.888L567.349 302.488C567.584 301.848 567.978 301.363 568.533 301.032C569.088 300.691 569.776 300.52 570.597 300.52V301.624C570.554 301.624 570.512 301.624 570.469 301.624C570.426 301.613 570.384 301.608 570.341 301.608C569.456 301.608 568.762 301.88 568.261 302.424C567.76 302.957 567.509 303.72 567.509 304.712V309H566.373ZM576.016 309.08C575.205 309.08 574.474 308.899 573.824 308.536C573.184 308.163 572.677 307.656 572.304 307.016C571.93 306.365 571.744 305.624 571.744 304.792C571.744 303.949 571.93 303.208 572.304 302.568C572.677 301.928 573.184 301.427 573.824 301.064C574.464 300.701 575.194 300.52 576.016 300.52C576.848 300.52 577.584 300.701 578.224 301.064C578.874 301.427 579.381 301.928 579.744 302.568C580.117 303.208 580.304 303.949 580.304 304.792C580.304 305.624 580.117 306.365 579.744 307.016C579.381 307.656 578.874 308.163 578.224 308.536C577.573 308.899 576.837 309.08 576.016 309.08ZM576.016 308.072C576.624 308.072 577.162 307.939 577.632 307.672C578.101 307.395 578.469 307.011 578.736 306.52C579.013 306.019 579.152 305.443 579.152 304.792C579.152 304.131 579.013 303.555 578.736 303.064C578.469 302.573 578.101 302.195 577.632 301.928C577.162 301.651 576.629 301.512 576.032 301.512C575.434 301.512 574.901 301.651 574.432 301.928C573.962 302.195 573.589 302.573 573.312 303.064C573.034 303.555 572.896 304.131 572.896 304.792C572.896 305.443 573.034 306.019 573.312 306.52C573.589 307.011 573.962 307.395 574.432 307.672C574.901 307.939 575.429 308.072 576.016 308.072ZM584.879 309.08C584.186 309.08 583.53 308.984 582.911 308.792C582.292 308.589 581.807 308.339 581.455 308.04L581.967 307.144C582.308 307.4 582.746 307.624 583.279 307.816C583.812 307.997 584.372 308.088 584.959 308.088C585.759 308.088 586.335 307.965 586.687 307.72C587.039 307.464 587.215 307.128 587.215 306.712C587.215 306.403 587.114 306.163 586.911 305.992C586.719 305.811 586.463 305.677 586.143 305.592C585.823 305.496 585.466 305.416 585.071 305.352C584.676 305.288 584.282 305.213 583.887 305.128C583.503 305.043 583.151 304.92 582.831 304.76C582.511 304.589 582.25 304.36 582.047 304.072C581.855 303.784 581.759 303.4 581.759 302.92C581.759 302.461 581.887 302.051 582.143 301.688C582.399 301.325 582.772 301.043 583.263 300.84C583.764 300.627 584.372 300.52 585.087 300.52C585.631 300.52 586.175 300.595 586.719 300.744C587.263 300.883 587.711 301.069 588.063 301.304L587.567 302.216C587.194 301.96 586.794 301.779 586.367 301.672C585.94 301.555 585.514 301.496 585.087 301.496C584.33 301.496 583.77 301.629 583.407 301.896C583.055 302.152 582.879 302.483 582.879 302.888C582.879 303.208 582.975 303.459 583.167 303.64C583.37 303.821 583.631 303.965 583.951 304.072C584.282 304.168 584.639 304.248 585.023 304.312C585.418 304.376 585.807 304.456 586.191 304.552C586.586 304.637 586.943 304.76 587.263 304.92C587.594 305.069 587.855 305.288 588.047 305.576C588.25 305.853 588.351 306.221 588.351 306.68C588.351 307.171 588.212 307.597 587.935 307.96C587.668 308.312 587.274 308.589 586.751 308.792C586.239 308.984 585.615 309.08 584.879 309.08ZM592.692 309.08C591.998 309.08 591.342 308.984 590.724 308.792C590.105 308.589 589.62 308.339 589.268 308.04L589.78 307.144C590.121 307.4 590.558 307.624 591.092 307.816C591.625 307.997 592.185 308.088 592.772 308.088C593.572 308.088 594.148 307.965 594.5 307.72C594.852 307.464 595.028 307.128 595.028 306.712C595.028 306.403 594.926 306.163 594.724 305.992C594.532 305.811 594.276 305.677 593.956 305.592C593.636 305.496 593.278 305.416 592.884 305.352C592.489 305.288 592.094 305.213 591.7 305.128C591.316 305.043 590.964 304.92 590.644 304.76C590.324 304.589 590.062 304.36 589.86 304.072C589.668 303.784 589.572 303.4 589.572 302.92C589.572 302.461 589.7 302.051 589.956 301.688C590.212 301.325 590.585 301.043 591.076 300.84C591.577 300.627 592.185 300.52 592.9 300.52C593.444 300.52 593.988 300.595 594.532 300.744C595.076 300.883 595.524 301.069 595.876 301.304L595.38 302.216C595.006 301.96 594.606 301.779 594.18 301.672C593.753 301.555 593.326 301.496 592.9 301.496C592.142 301.496 591.582 301.629 591.22 301.896C590.868 302.152 590.692 302.483 590.692 302.888C590.692 303.208 590.788 303.459 590.98 303.64C591.182 303.821 591.444 303.965 591.764 304.072C592.094 304.168 592.452 304.248 592.836 304.312C593.23 304.376 593.62 304.456 594.004 304.552C594.398 304.637 594.756 304.76 595.076 304.92C595.406 305.069 595.668 305.288 595.86 305.576C596.062 305.853 596.164 306.221 596.164 306.68C596.164 307.171 596.025 307.597 595.748 307.96C595.481 308.312 595.086 308.589 594.564 308.792C594.052 308.984 593.428 309.08 592.692 309.08ZM602.676 309V297.8H606.868C607.817 297.8 608.633 297.955 609.316 298.264C609.998 298.563 610.521 299 610.884 299.576C611.257 300.141 611.444 300.829 611.444 301.64C611.444 302.429 611.257 303.112 610.884 303.688C610.521 304.253 609.998 304.691 609.316 305C608.633 305.309 607.817 305.464 606.868 305.464H603.332L603.86 304.904V309H602.676ZM603.86 305L603.332 304.424H606.836C607.956 304.424 608.804 304.184 609.38 303.704C609.966 303.213 610.26 302.525 610.26 301.64C610.26 300.744 609.966 300.051 609.38 299.56C608.804 299.069 607.956 298.824 606.836 298.824H603.332L603.86 298.264V305ZM613.545 309V300.6H614.633V302.888L614.521 302.488C614.756 301.848 615.15 301.363 615.705 301.032C616.26 300.691 616.948 300.52 617.769 300.52V301.624C617.726 301.624 617.684 301.624 617.641 301.624C617.598 301.613 617.556 301.608 617.513 301.608C616.628 301.608 615.934 301.88 615.433 302.424C614.932 302.957 614.681 303.72 614.681 304.712V309H613.545ZM623.188 309.08C622.377 309.08 621.646 308.899 620.996 308.536C620.356 308.163 619.849 307.656 619.476 307.016C619.102 306.365 618.916 305.624 618.916 304.792C618.916 303.949 619.102 303.208 619.476 302.568C619.849 301.928 620.356 301.427 620.996 301.064C621.636 300.701 622.366 300.52 623.188 300.52C624.02 300.52 624.756 300.701 625.396 301.064C626.046 301.427 626.553 301.928 626.916 302.568C627.289 303.208 627.476 303.949 627.476 304.792C627.476 305.624 627.289 306.365 626.916 307.016C626.553 307.656 626.046 308.163 625.396 308.536C624.745 308.899 624.009 309.08 623.188 309.08ZM623.188 308.072C623.796 308.072 624.334 307.939 624.804 307.672C625.273 307.395 625.641 307.011 625.908 306.52C626.185 306.019 626.324 305.443 626.324 304.792C626.324 304.131 626.185 303.555 625.908 303.064C625.641 302.573 625.273 302.195 624.804 301.928C624.334 301.651 623.801 301.512 623.204 301.512C622.606 301.512 622.073 301.651 621.604 301.928C621.134 302.195 620.761 302.573 620.484 303.064C620.206 303.555 620.068 304.131 620.068 304.792C620.068 305.443 620.206 306.019 620.484 306.52C620.761 307.011 621.134 307.395 621.604 307.672C622.073 307.939 622.601 308.072 623.188 308.072ZM629.987 309V299.544C629.987 298.797 630.206 298.195 630.643 297.736C631.08 297.277 631.71 297.048 632.531 297.048C632.851 297.048 633.16 297.091 633.459 297.176C633.758 297.261 634.008 297.395 634.211 297.576L633.827 298.424C633.667 298.285 633.48 298.184 633.267 298.12C633.054 298.045 632.824 298.008 632.579 298.008C632.099 298.008 631.731 298.141 631.475 298.408C631.219 298.675 631.091 299.069 631.091 299.592V300.872L631.123 301.4V309H629.987ZM628.483 301.544V300.6H633.683V301.544H628.483ZM635.219 309V300.6H636.355V309H635.219ZM635.795 298.744C635.56 298.744 635.363 298.664 635.203 298.504C635.043 298.344 634.963 298.152 634.963 297.928C634.963 297.704 635.043 297.517 635.203 297.368C635.363 297.208 635.56 297.128 635.795 297.128C636.03 297.128 636.227 297.203 636.387 297.352C636.547 297.501 636.627 297.688 636.627 297.912C636.627 298.147 636.547 298.344 636.387 298.504C636.238 298.664 636.04 298.744 635.795 298.744ZM642.201 309.08C641.412 309.08 640.804 308.867 640.377 308.44C639.95 308.013 639.737 307.411 639.737 306.632V298.744H640.873V306.568C640.873 307.059 640.996 307.437 641.241 307.704C641.497 307.971 641.86 308.104 642.329 308.104C642.83 308.104 643.246 307.96 643.577 307.672L643.977 308.488C643.753 308.691 643.481 308.84 643.161 308.936C642.852 309.032 642.532 309.08 642.201 309.08ZM638.233 301.544V300.6H643.433V301.544H638.233Z" fill="#20419A"/>
<g clip-path="url(#clip3_2_3846)">
<path d="M653.984 303.797H658.651M658.651 303.797C658.651 303.178 658.897 302.585 659.334 302.147C659.772 301.709 660.366 301.464 660.984 301.464C661.603 301.464 662.197 301.709 662.634 302.147C663.072 302.585 663.318 303.178 663.318 303.797M658.651 303.797C658.651 304.416 658.897 305.009 659.334 305.447C659.772 305.884 660.366 306.13 660.984 306.13C661.603 306.13 662.197 305.884 662.634 305.447C663.072 305.009 663.318 304.416 663.318 303.797M663.318 303.797H667.984" stroke="#00AE81" stroke-width="1.75"/>
</g>
<path d="M679.009 309.096C678.166 309.096 677.382 308.957 676.657 308.68C675.942 308.392 675.318 307.992 674.785 307.48C674.262 306.957 673.852 306.355 673.553 305.672C673.265 304.979 673.121 304.221 673.121 303.4C673.121 302.579 673.265 301.827 673.553 301.144C673.852 300.451 674.262 299.848 674.785 299.336C675.318 298.813 675.942 298.413 676.657 298.136C677.372 297.848 678.156 297.704 679.009 297.704C679.852 297.704 680.63 297.848 681.345 298.136C682.06 298.413 682.678 298.808 683.201 299.32C683.734 299.832 684.145 300.435 684.433 301.128C684.732 301.821 684.881 302.579 684.881 303.4C684.881 304.221 684.732 304.979 684.433 305.672C684.145 306.365 683.734 306.968 683.201 307.48C682.678 307.992 682.06 308.392 681.345 308.68C680.63 308.957 679.852 309.096 679.009 309.096ZM679.009 308.04C679.681 308.04 680.3 307.928 680.865 307.704C681.441 307.469 681.937 307.144 682.353 306.728C682.78 306.301 683.11 305.811 683.345 305.256C683.58 304.691 683.697 304.072 683.697 303.4C683.697 302.728 683.58 302.115 683.345 301.56C683.11 300.995 682.78 300.504 682.353 300.088C681.937 299.661 681.441 299.336 680.865 299.112C680.3 298.877 679.681 298.76 679.009 298.76C678.337 298.76 677.713 298.877 677.137 299.112C676.561 299.336 676.06 299.661 675.633 300.088C675.217 300.504 674.886 300.995 674.641 301.56C674.406 302.115 674.289 302.728 674.289 303.4C674.289 304.061 674.406 304.675 674.641 305.24C674.886 305.805 675.217 306.301 675.633 306.728C676.06 307.144 676.561 307.469 677.137 307.704C677.713 307.928 678.337 308.04 679.009 308.04ZM691.631 309.08C690.906 309.08 690.25 308.915 689.663 308.584C689.076 308.243 688.607 307.757 688.255 307.128C687.914 306.488 687.743 305.709 687.743 304.792C687.743 303.875 687.914 303.101 688.255 302.472C688.596 301.832 689.06 301.347 689.647 301.016C690.234 300.685 690.895 300.52 691.631 300.52C692.431 300.52 693.146 300.701 693.775 301.064C694.415 301.416 694.916 301.917 695.279 302.568C695.642 303.208 695.823 303.949 695.823 304.792C695.823 305.645 695.642 306.392 695.279 307.032C694.916 307.672 694.415 308.173 693.775 308.536C693.146 308.899 692.431 309.08 691.631 309.08ZM687.295 312.104V300.6H688.383V303.128L688.271 304.808L688.431 306.504V312.104H687.295ZM691.551 308.072C692.148 308.072 692.682 307.939 693.151 307.672C693.62 307.395 693.994 307.011 694.271 306.52C694.548 306.019 694.687 305.443 694.687 304.792C694.687 304.141 694.548 303.571 694.271 303.08C693.994 302.589 693.62 302.205 693.151 301.928C692.682 301.651 692.148 301.512 691.551 301.512C690.954 301.512 690.415 301.651 689.935 301.928C689.466 302.205 689.092 302.589 688.815 303.08C688.548 303.571 688.415 304.141 688.415 304.792C688.415 305.443 688.548 306.019 688.815 306.52C689.092 307.011 689.466 307.395 689.935 307.672C690.415 307.939 690.954 308.072 691.551 308.072ZM701.707 309.08C700.832 309.08 700.064 308.899 699.403 308.536C698.741 308.163 698.224 307.656 697.851 307.016C697.477 306.365 697.291 305.624 697.291 304.792C697.291 303.96 697.467 303.224 697.819 302.584C698.181 301.944 698.672 301.443 699.291 301.08C699.92 300.707 700.624 300.52 701.403 300.52C702.192 300.52 702.891 300.701 703.499 301.064C704.117 301.416 704.603 301.917 704.955 302.568C705.307 303.208 705.483 303.949 705.483 304.792C705.483 304.845 705.477 304.904 705.467 304.968C705.467 305.021 705.467 305.08 705.467 305.144H698.155V304.296H704.859L704.411 304.632C704.411 304.024 704.277 303.485 704.011 303.016C703.755 302.536 703.403 302.163 702.955 301.896C702.507 301.629 701.989 301.496 701.403 301.496C700.827 301.496 700.309 301.629 699.851 301.896C699.392 302.163 699.035 302.536 698.779 303.016C698.523 303.496 698.395 304.045 698.395 304.664V304.84C698.395 305.48 698.533 306.045 698.811 306.536C699.099 307.016 699.493 307.395 699.995 307.672C700.507 307.939 701.088 308.072 701.739 308.072C702.251 308.072 702.725 307.981 703.163 307.8C703.611 307.619 703.995 307.341 704.315 306.968L704.955 307.704C704.581 308.152 704.112 308.493 703.547 308.728C702.992 308.963 702.379 309.08 701.707 309.08ZM707.795 309V300.6H708.883V302.888L708.771 302.488C709.006 301.848 709.4 301.363 709.955 301.032C710.51 300.691 711.198 300.52 712.019 300.52V301.624C711.976 301.624 711.934 301.624 711.891 301.624C711.848 301.613 711.806 301.608 711.763 301.608C710.878 301.608 710.184 301.88 709.683 302.424C709.182 302.957 708.931 303.72 708.931 304.712V309H707.795ZM718.731 309V307.144L718.683 306.84V303.736C718.683 303.021 718.48 302.472 718.075 302.088C717.68 301.704 717.088 301.512 716.299 301.512C715.755 301.512 715.237 301.603 714.747 301.784C714.256 301.965 713.84 302.205 713.499 302.504L712.987 301.656C713.413 301.293 713.925 301.016 714.523 300.824C715.12 300.621 715.749 300.52 716.411 300.52C717.499 300.52 718.336 300.792 718.923 301.336C719.52 301.869 719.819 302.685 719.819 303.784V309H718.731ZM715.835 309.08C715.205 309.08 714.656 308.979 714.187 308.776C713.728 308.563 713.376 308.275 713.131 307.912C712.885 307.539 712.763 307.112 712.763 306.632C712.763 306.195 712.864 305.8 713.067 305.448C713.28 305.085 713.621 304.797 714.091 304.584C714.571 304.36 715.211 304.248 716.011 304.248H718.907V305.096H716.043C715.232 305.096 714.667 305.24 714.347 305.528C714.037 305.816 713.883 306.173 713.883 306.6C713.883 307.08 714.069 307.464 714.443 307.752C714.816 308.04 715.339 308.184 716.011 308.184C716.651 308.184 717.2 308.04 717.659 307.752C718.128 307.453 718.469 307.027 718.683 306.472L718.939 307.256C718.725 307.811 718.352 308.253 717.819 308.584C717.296 308.915 716.635 309.08 715.835 309.08ZM725.56 309.08C724.771 309.08 724.163 308.867 723.736 308.44C723.31 308.013 723.096 307.411 723.096 306.632V298.744H724.232V306.568C724.232 307.059 724.355 307.437 724.6 307.704C724.856 307.971 725.219 308.104 725.688 308.104C726.19 308.104 726.606 307.96 726.936 307.672L727.336 308.488C727.112 308.691 726.84 308.84 726.52 308.936C726.211 309.032 725.891 309.08 725.56 309.08ZM721.592 301.544V300.6H726.792V301.544H721.592ZM729.404 309V300.6H730.54V309H729.404ZM729.98 298.744C729.746 298.744 729.548 298.664 729.388 298.504C729.228 298.344 729.148 298.152 729.148 297.928C729.148 297.704 729.228 297.517 729.388 297.368C729.548 297.208 729.746 297.128 729.98 297.128C730.215 297.128 730.412 297.203 730.572 297.352C730.732 297.501 730.812 297.688 730.812 297.912C730.812 298.147 730.732 298.344 730.572 298.504C730.423 298.664 730.226 298.744 729.98 298.744ZM737.989 300.52C738.672 300.52 739.269 300.653 739.781 300.92C740.304 301.176 740.709 301.571 740.997 302.104C741.296 302.637 741.445 303.309 741.445 304.12V309H740.309V304.232C740.309 303.347 740.085 302.68 739.637 302.232C739.2 301.773 738.581 301.544 737.781 301.544C737.184 301.544 736.661 301.667 736.213 301.912C735.776 302.147 735.435 302.493 735.189 302.952C734.955 303.4 734.837 303.944 734.837 304.584V309H733.701V300.6H734.789V302.904L734.613 302.472C734.88 301.864 735.307 301.389 735.893 301.048C736.48 300.696 737.179 300.52 737.989 300.52ZM748.098 312.184C747.33 312.184 746.594 312.072 745.89 311.848C745.186 311.624 744.615 311.304 744.178 310.888L744.754 310.024C745.148 310.376 745.634 310.653 746.21 310.856C746.796 311.069 747.415 311.176 748.066 311.176C749.132 311.176 749.916 310.925 750.418 310.424C750.919 309.933 751.17 309.165 751.17 308.12V306.024L751.33 304.584L751.218 303.144V300.6H752.306V307.976C752.306 309.427 751.948 310.488 751.234 311.16C750.53 311.843 749.484 312.184 748.098 312.184ZM747.89 308.68C747.09 308.68 746.37 308.509 745.73 308.168C745.09 307.816 744.583 307.331 744.21 306.712C743.847 306.093 743.666 305.384 743.666 304.584C743.666 303.784 743.847 303.08 744.21 302.472C744.583 301.853 745.09 301.373 745.73 301.032C746.37 300.691 747.09 300.52 747.89 300.52C748.636 300.52 749.308 300.675 749.906 300.984C750.503 301.293 750.978 301.752 751.33 302.36C751.682 302.968 751.858 303.709 751.858 304.584C751.858 305.459 751.682 306.2 751.33 306.808C750.978 307.416 750.503 307.88 749.906 308.2C749.308 308.52 748.636 308.68 747.89 308.68ZM748.002 307.672C748.62 307.672 749.17 307.544 749.65 307.288C750.13 307.021 750.508 306.659 750.786 306.2C751.063 305.731 751.202 305.192 751.202 304.584C751.202 303.976 751.063 303.443 750.786 302.984C750.508 302.525 750.13 302.168 749.65 301.912C749.17 301.645 748.62 301.512 748.002 301.512C747.394 301.512 746.844 301.645 746.354 301.912C745.874 302.168 745.495 302.525 745.218 302.984C744.951 303.443 744.818 303.976 744.818 304.584C744.818 305.192 744.951 305.731 745.218 306.2C745.495 306.659 745.874 307.021 746.354 307.288C746.844 307.544 747.394 307.672 748.002 307.672ZM759.894 309V297.8H764.086C765.036 297.8 765.852 297.955 766.534 298.264C767.217 298.563 767.74 299 768.102 299.576C768.476 300.141 768.662 300.829 768.662 301.64C768.662 302.429 768.476 303.112 768.102 303.688C767.74 304.253 767.217 304.691 766.534 305C765.852 305.309 765.036 305.464 764.086 305.464H760.55L761.078 304.904V309H759.894ZM761.078 305L760.55 304.424H764.054C765.174 304.424 766.022 304.184 766.598 303.704C767.185 303.213 767.478 302.525 767.478 301.64C767.478 300.744 767.185 300.051 766.598 299.56C766.022 299.069 765.174 298.824 764.054 298.824H760.55L761.078 298.264V305ZM770.764 309V300.6H771.852V302.888L771.74 302.488C771.974 301.848 772.369 301.363 772.924 301.032C773.478 300.691 774.166 300.52 774.988 300.52V301.624C774.945 301.624 774.902 301.624 774.86 301.624C774.817 301.613 774.774 301.608 774.732 301.608C773.846 301.608 773.153 301.88 772.652 302.424C772.15 302.957 771.9 303.72 771.9 304.712V309H770.764ZM780.406 309.08C779.596 309.08 778.865 308.899 778.214 308.536C777.574 308.163 777.068 307.656 776.694 307.016C776.321 306.365 776.134 305.624 776.134 304.792C776.134 303.949 776.321 303.208 776.694 302.568C777.068 301.928 777.574 301.427 778.214 301.064C778.854 300.701 779.585 300.52 780.406 300.52C781.238 300.52 781.974 300.701 782.614 301.064C783.265 301.427 783.772 301.928 784.134 302.568C784.508 303.208 784.694 303.949 784.694 304.792C784.694 305.624 784.508 306.365 784.134 307.016C783.772 307.656 783.265 308.163 782.614 308.536C781.964 308.899 781.228 309.08 780.406 309.08ZM780.406 308.072C781.014 308.072 781.553 307.939 782.022 307.672C782.492 307.395 782.86 307.011 783.126 306.52C783.404 306.019 783.542 305.443 783.542 304.792C783.542 304.131 783.404 303.555 783.126 303.064C782.86 302.573 782.492 302.195 782.022 301.928C781.553 301.651 781.02 301.512 780.422 301.512C779.825 301.512 779.292 301.651 778.822 301.928C778.353 302.195 777.98 302.573 777.702 303.064C777.425 303.555 777.286 304.131 777.286 304.792C777.286 305.443 777.425 306.019 777.702 306.52C777.98 307.011 778.353 307.395 778.822 307.672C779.292 307.939 779.82 308.072 780.406 308.072ZM787.206 309V299.544C787.206 298.797 787.424 298.195 787.862 297.736C788.299 297.277 788.928 297.048 789.75 297.048C790.07 297.048 790.379 297.091 790.678 297.176C790.976 297.261 791.227 297.395 791.43 297.576L791.046 298.424C790.886 298.285 790.699 298.184 790.486 298.12C790.272 298.045 790.043 298.008 789.798 298.008C789.318 298.008 788.95 298.141 788.694 298.408C788.438 298.675 788.31 299.069 788.31 299.592V300.872L788.342 301.4V309H787.206ZM785.702 301.544V300.6H790.902V301.544H785.702ZM792.438 309V300.6H793.574V309H792.438ZM793.014 298.744C792.779 298.744 792.582 298.664 792.422 298.504C792.262 298.344 792.182 298.152 792.182 297.928C792.182 297.704 792.262 297.517 792.422 297.368C792.582 297.208 792.779 297.128 793.014 297.128C793.248 297.128 793.446 297.203 793.606 297.352C793.766 297.501 793.846 297.688 793.846 297.912C793.846 298.147 793.766 298.344 793.606 298.504C793.456 298.664 793.259 298.744 793.014 298.744ZM799.42 309.08C798.63 309.08 798.022 308.867 797.596 308.44C797.169 308.013 796.956 307.411 796.956 306.632V298.744H798.092V306.568C798.092 307.059 798.214 307.437 798.46 307.704C798.716 307.971 799.078 308.104 799.548 308.104C800.049 308.104 800.465 307.96 800.796 307.672L801.196 308.488C800.972 308.691 800.7 308.84 800.38 308.936C800.07 309.032 799.75 309.08 799.42 309.08ZM795.452 301.544V300.6H800.652V301.544H795.452Z" fill="#00AE81"/>
<g clip-path="url(#clip4_2_3846)">
<path d="M811.516 303.797H816.182M816.182 303.797C816.182 303.178 816.428 302.585 816.866 302.147C817.303 301.709 817.897 301.464 818.516 301.464C819.134 301.464 819.728 301.709 820.166 302.147C820.603 302.585 820.849 303.178 820.849 303.797M816.182 303.797C816.182 304.416 816.428 305.009 816.866 305.447C817.303 305.884 817.897 306.13 818.516 306.13C819.134 306.13 819.728 305.884 820.166 305.447C820.603 305.009 820.849 304.416 820.849 303.797M820.849 303.797H825.516" stroke="#EF373E" stroke-width="1.75"/>
</g>
<path d="M831.355 309V297.8H832.331L840.059 307.528H839.547V297.8H840.715V309H839.739L832.027 299.272H832.539V309H831.355ZM847.699 309.08C846.824 309.08 846.056 308.899 845.395 308.536C844.734 308.163 844.216 307.656 843.843 307.016C843.47 306.365 843.283 305.624 843.283 304.792C843.283 303.96 843.459 303.224 843.811 302.584C844.174 301.944 844.664 301.443 845.283 301.08C845.912 300.707 846.616 300.52 847.395 300.52C848.184 300.52 848.883 300.701 849.491 301.064C850.11 301.416 850.595 301.917 850.947 302.568C851.299 303.208 851.475 303.949 851.475 304.792C851.475 304.845 851.47 304.904 851.459 304.968C851.459 305.021 851.459 305.08 851.459 305.144H844.147V304.296H850.851L850.403 304.632C850.403 304.024 850.27 303.485 850.003 303.016C849.747 302.536 849.395 302.163 848.947 301.896C848.499 301.629 847.982 301.496 847.395 301.496C846.819 301.496 846.302 301.629 845.843 301.896C845.384 302.163 845.027 302.536 844.771 303.016C844.515 303.496 844.387 304.045 844.387 304.664V304.84C844.387 305.48 844.526 306.045 844.803 306.536C845.091 307.016 845.486 307.395 845.987 307.672C846.499 307.939 847.08 308.072 847.731 308.072C848.243 308.072 848.718 307.981 849.155 307.8C849.603 307.619 849.987 307.341 850.307 306.968L850.947 307.704C850.574 308.152 850.104 308.493 849.539 308.728C848.984 308.963 848.371 309.08 847.699 309.08ZM856.443 309.08C855.654 309.08 855.046 308.867 854.619 308.44C854.192 308.013 853.979 307.411 853.979 306.632V298.744H855.115V306.568C855.115 307.059 855.238 307.437 855.483 307.704C855.739 307.971 856.102 308.104 856.571 308.104C857.072 308.104 857.488 307.96 857.819 307.672L858.219 308.488C857.995 308.691 857.723 308.84 857.403 308.936C857.094 309.032 856.774 309.08 856.443 309.08ZM852.475 301.544V300.6H857.675V301.544H852.475ZM864.715 309V297.8H868.907C869.856 297.8 870.672 297.955 871.355 298.264C872.037 298.563 872.56 299 872.923 299.576C873.296 300.141 873.483 300.829 873.483 301.64C873.483 302.429 873.296 303.112 872.923 303.688C872.56 304.253 872.037 304.691 871.355 305C870.672 305.309 869.856 305.464 868.907 305.464H865.371L865.899 304.904V309H864.715ZM865.899 305L865.371 304.424H868.875C869.995 304.424 870.843 304.184 871.419 303.704C872.005 303.213 872.299 302.525 872.299 301.64C872.299 300.744 872.005 300.051 871.419 299.56C870.843 299.069 869.995 298.824 868.875 298.824H865.371L865.899 298.264V305ZM875.584 309V300.6H876.672V302.888L876.56 302.488C876.795 301.848 877.189 301.363 877.744 301.032C878.299 300.691 878.987 300.52 879.808 300.52V301.624C879.765 301.624 879.723 301.624 879.68 301.624C879.637 301.613 879.595 301.608 879.552 301.608C878.667 301.608 877.973 301.88 877.472 302.424C876.971 302.957 876.72 303.72 876.72 304.712V309H875.584ZM885.227 309.08C884.416 309.08 883.685 308.899 883.035 308.536C882.395 308.163 881.888 307.656 881.515 307.016C881.141 306.365 880.955 305.624 880.955 304.792C880.955 303.949 881.141 303.208 881.515 302.568C881.888 301.928 882.395 301.427 883.035 301.064C883.675 300.701 884.405 300.52 885.227 300.52C886.059 300.52 886.795 300.701 887.435 301.064C888.085 301.427 888.592 301.928 888.955 302.568C889.328 303.208 889.515 303.949 889.515 304.792C889.515 305.624 889.328 306.365 888.955 307.016C888.592 307.656 888.085 308.163 887.435 308.536C886.784 308.899 886.048 309.08 885.227 309.08ZM885.227 308.072C885.835 308.072 886.373 307.939 886.843 307.672C887.312 307.395 887.68 307.011 887.947 306.52C888.224 306.019 888.363 305.443 888.363 304.792C888.363 304.131 888.224 303.555 887.947 303.064C887.68 302.573 887.312 302.195 886.843 301.928C886.373 301.651 885.84 301.512 885.243 301.512C884.645 301.512 884.112 301.651 883.643 301.928C883.173 302.195 882.8 302.573 882.523 303.064C882.245 303.555 882.107 304.131 882.107 304.792C882.107 305.443 882.245 306.019 882.523 306.52C882.8 307.011 883.173 307.395 883.643 307.672C884.112 307.939 884.64 308.072 885.227 308.072ZM892.026 309V299.544C892.026 298.797 892.245 298.195 892.682 297.736C893.119 297.277 893.749 297.048 894.57 297.048C894.89 297.048 895.199 297.091 895.498 297.176C895.797 297.261 896.047 297.395 896.25 297.576L895.866 298.424C895.706 298.285 895.519 298.184 895.306 298.12C895.093 298.045 894.863 298.008 894.618 298.008C894.138 298.008 893.77 298.141 893.514 298.408C893.258 298.675 893.13 299.069 893.13 299.592V300.872L893.162 301.4V309H892.026ZM890.522 301.544V300.6H895.722V301.544H890.522ZM897.258 309V300.6H898.394V309H897.258ZM897.834 298.744C897.599 298.744 897.402 298.664 897.242 298.504C897.082 298.344 897.002 298.152 897.002 297.928C897.002 297.704 897.082 297.517 897.242 297.368C897.402 297.208 897.599 297.128 897.834 297.128C898.069 297.128 898.266 297.203 898.426 297.352C898.586 297.501 898.666 297.688 898.666 297.912C898.666 298.147 898.586 298.344 898.426 298.504C898.277 298.664 898.079 298.744 897.834 298.744ZM904.24 309.08C903.451 309.08 902.843 308.867 902.416 308.44C901.989 308.013 901.776 307.411 901.776 306.632V298.744H902.912V306.568C902.912 307.059 903.035 307.437 903.28 307.704C903.536 307.971 903.899 308.104 904.368 308.104C904.869 308.104 905.285 307.96 905.616 307.672L906.016 308.488C905.792 308.691 905.52 308.84 905.2 308.936C904.891 309.032 904.571 309.08 904.24 309.08ZM900.272 301.544V300.6H905.472V301.544H900.272Z" fill="#EF373E"/>
<defs>
<clipPath id="clip0_2_3846">
<rect width="1352" height="320" fill="white"/>
</clipPath>
<clipPath id="clip1_2_3846">
<rect width="14" height="14" fill="white" transform="translate(435.516 296.797)"/>
</clipPath>
<clipPath id="clip2_2_3846">
<rect width="14" height="14" fill="white" transform="translate(533.938 296.797)"/>
</clipPath>
<clipPath id="clip3_2_3846">
<rect width="14" height="14" fill="white" transform="translate(653.984 296.797)"/>
</clipPath>
<clipPath id="clip4_2_3846">
<rect width="14" height="14" fill="white" transform="translate(811.516 296.797)"/>
</clipPath>
</defs>
</svg>
