<svg width="171" height="171" viewBox="0 0 171 171" fill="none" xmlns="http://www.w3.org/2000/svg">
<path d="M170.5 85.5C170.5 63.026 161.6 41.4666 145.746 25.5377C129.891 9.60878 108.374 0.606851 85.9006 0.500945C63.4268 0.395039 41.8257 9.19378 25.8223 24.9726C9.81882 40.7514 0.71559 62.2259 0.50378 84.6989C0.291971 107.172 8.98883 128.814 24.692 144.892C40.3953 160.969 61.8266 170.174 84.2984 170.492C106.77 170.809 128.453 162.214 144.605 146.587C160.756 130.96 170.061 109.572 170.485 87.1021L140.49 86.5367C140.216 101.076 134.195 114.915 123.744 125.027C113.293 135.139 99.263 140.7 84.7225 140.495C70.1819 140.289 56.3146 134.333 46.1537 123.93C35.9928 113.527 30.3654 99.523 30.5025 84.9816C30.6395 70.4403 36.5298 56.545 46.885 46.3352C57.2402 36.1254 71.2173 30.4321 85.7592 30.5006C100.301 30.5691 114.224 36.3939 124.482 46.7009C134.741 57.0078 140.5 70.958 140.5 85.5H170.5Z" fill="#009189" stroke="white"/>
<path d="M170.485 87.1021C170.495 86.5681 170.5 86.0341 170.5 85.5H140.5C140.5 85.8456 140.497 86.1912 140.49 86.5367L170.485 87.1021Z" fill="#343741" stroke="white"/>
</svg>
