<svg width="171" height="171" viewBox="0 0 171 171" fill="none" xmlns="http://www.w3.org/2000/svg">
<path d="M170.5 85.5002C170.5 65.1283 163.183 45.434 149.883 30.0035C136.582 14.573 118.181 4.4327 98.0322 1.42913C77.883 -1.57444 57.3251 2.7585 40.1022 13.6389C22.8793 24.5194 10.1369 41.2236 4.19546 60.7098C-1.74604 80.196 -0.491445 101.168 7.73079 119.807C15.953 138.446 30.596 153.512 48.9932 162.261C67.3905 171.011 88.3183 172.862 107.966 167.478C127.613 162.093 144.673 149.832 156.04 132.925L131.143 116.187C123.789 127.126 112.75 135.06 100.037 138.544C87.3236 142.028 73.7821 140.831 61.878 135.169C49.9739 129.508 40.499 119.759 35.1788 107.699C29.8585 95.6382 29.0467 82.0681 32.8912 69.4593C36.7357 56.8506 44.9808 46.042 56.125 39.0017C67.2692 31.9615 80.5714 29.1578 93.6091 31.1013C106.647 33.0448 118.553 39.6061 127.159 49.5906C135.766 59.575 140.5 72.3184 140.5 85.5002H170.5Z" fill="#009189" stroke="white"/>
<path d="M156.04 132.926C165.466 118.905 170.5 102.394 170.5 85.5002H140.5C140.5 96.4318 137.243 107.115 131.144 116.187L156.04 132.926Z" fill="#343741" stroke="white"/>
</svg>
