<svg width="171" height="171" viewBox="0 0 171 171" fill="none" xmlns="http://www.w3.org/2000/svg">
<path d="M170.5 85.5C170.5 67.6866 164.904 50.3234 154.501 35.8629C144.099 21.4023 129.416 10.5754 112.527 4.91134C95.6383 -0.752726 77.3967 -0.96764 60.379 4.29695C43.3613 9.56155 28.4277 20.0396 17.6875 34.251C6.94726 48.4624 0.943284 65.689 0.523604 83.4974C0.103925 101.306 5.28975 118.796 15.3486 133.498C25.4075 148.199 39.8309 159.369 56.5817 165.43C73.3325 171.49 91.5639 172.135 108.701 167.272L100.512 138.412C89.4237 141.558 77.6269 141.141 66.7882 137.219C55.9494 133.298 46.6166 126.07 40.1079 116.557C33.5993 107.045 30.2437 95.7273 30.5153 84.2042C30.7868 72.6811 34.6718 61.5345 41.6213 52.3389C48.5709 43.1432 58.2338 36.3634 69.2452 32.9569C80.2567 29.5504 92.0601 29.6894 102.988 33.3544C113.916 37.0194 123.417 44.025 130.148 53.3819C136.879 62.7387 140.5 73.9737 140.5 85.5H170.5Z" fill="#009189" stroke="white"/>
<path d="M108.701 167.272C126.497 162.223 142.16 151.507 153.313 136.749C164.466 121.991 170.5 103.998 170.5 85.5H140.5C140.5 97.4694 136.596 109.112 129.379 118.661C122.162 128.21 112.028 135.144 100.513 138.412L108.701 167.272Z" fill="#F1D3B5" stroke="white"/>
</svg>
