<svg width="557" height="70" viewBox="0 0 557 70" fill="none" xmlns="http://www.w3.org/2000/svg">
<path d="M-38 56.7915C1.333 30.8955 40.667 5.00049 80 5.00049C119.333 5.00049 158.667 33.6365 198 33.6365C237.333 33.6365 276.667 17.5015 316 17.3235C355.333 17.1465 394.667 17.2355 434 17.0575C473.333 16.8795 512.667 11.5515 552 6.22349" stroke="#009189" stroke-width="2"/>
<path d="M80 9C82.2091 9 84 7.20914 84 5C84 2.79086 82.2091 1 80 1C77.7909 1 76 2.79086 76 5C76 7.20914 77.7909 9 80 9Z" fill="white" stroke="#009189" stroke-width="2"/>
<path d="M198 37.6357C200.209 37.6357 202 35.8449 202 33.6357C202 31.4266 200.209 29.6357 198 29.6357C195.791 29.6357 194 31.4266 194 33.6357C194 35.8449 195.791 37.6357 198 37.6357Z" fill="white" stroke="#009189" stroke-width="2"/>
<path d="M316 21.3237C318.209 21.3237 320 19.5329 320 17.3237C320 15.1146 318.209 13.3237 316 13.3237C313.791 13.3237 312 15.1146 312 17.3237C312 19.5329 313.791 21.3237 316 21.3237Z" fill="white" stroke="#009189" stroke-width="2"/>
<path d="M434 21.0571C436.209 21.0571 438 19.2663 438 17.0571C438 14.848 436.209 13.0571 434 13.0571C431.791 13.0571 430 14.848 430 17.0571C430 19.2663 431.791 21.0571 434 21.0571Z" fill="white" stroke="#009189" stroke-width="2"/>
<path d="M552 10.2227C554.209 10.2227 556 8.4318 556 6.22266C556 4.01352 554.209 2.22266 552 2.22266C549.791 2.22266 548 4.01352 548 6.22266C548 8.4318 549.791 10.2227 552 10.2227Z" fill="white" stroke="#009189" stroke-width="2"/>
<path d="M-38 56.7915C1.333 30.8955 40.667 5.00049 80 5.00049C119.333 5.00049 158.667 33.6365 198 33.6365C237.333 33.6365 276.667 17.5015 316 17.3235C355.333 17.1465 394.667 17.2355 434 17.0575C473.333 16.8795 512.667 11.5515 552 6.22349" stroke="#343741" stroke-width="2" stroke-dasharray="4 2 4 2 4 2 4 2"/>
<path d="M80 9C82.2091 9 84 7.20914 84 5C84 2.79086 82.2091 1 80 1C77.7909 1 76 2.79086 76 5C76 7.20914 77.7909 9 80 9Z" fill="white" stroke="#343741" stroke-width="2" stroke-dasharray="4 2"/>
<path d="M198 37.6357C200.209 37.6357 202 35.8449 202 33.6357C202 31.4266 200.209 29.6357 198 29.6357C195.791 29.6357 194 31.4266 194 33.6357C194 35.8449 195.791 37.6357 198 37.6357Z" fill="white" stroke="#343741" stroke-width="2" stroke-dasharray="4 2"/>
<path d="M316 21.3237C318.209 21.3237 320 19.5329 320 17.3237C320 15.1146 318.209 13.3237 316 13.3237C313.791 13.3237 312 15.1146 312 17.3237C312 19.5329 313.791 21.3237 316 21.3237Z" fill="white" stroke="#343741" stroke-width="2" stroke-dasharray="4 2"/>
<path d="M434 21.0571C436.209 21.0571 438 19.2663 438 17.0571C438 14.848 436.209 13.0571 434 13.0571C431.791 13.0571 430 14.848 430 17.0571C430 19.2663 431.791 21.0571 434 21.0571Z" fill="white" stroke="#343741" stroke-width="2" stroke-dasharray="4 2"/>
<path d="M552 10.2227C554.209 10.2227 556 8.4318 556 6.22266C556 4.01352 554.209 2.22266 552 2.22266C549.791 2.22266 548 4.01352 548 6.22266C548 8.4318 549.791 10.2227 552 10.2227Z" fill="white" stroke="#343741" stroke-width="2" stroke-dasharray="4 2"/>
</svg>
