<svg width="628" height="218" viewBox="0 0 628 218" fill="none" xmlns="http://www.w3.org/2000/svg">
<path d="M32 199.95H622" stroke="#F0F0F0" stroke-dasharray="3 3"/>
<path d="M32 150.95H622" stroke="#F0F0F0" stroke-dasharray="3 3"/>
<path d="M32 101.95H622" stroke="#F0F0F0" stroke-dasharray="3 3"/>
<path d="M32 52.9502H622" stroke="#F0F0F0" stroke-dasharray="3 3"/>
<path d="M32 3.9502H622" stroke="#F0F0F0" stroke-dasharray="3 3"/>
<path d="M32 3.9502V199.95" stroke="#F0F0F0" stroke-dasharray="3 3"/>
<path d="M150 3.9502V199.95" stroke="#F0F0F0" stroke-dasharray="3 3"/>
<path d="M268 3.9502V199.95" stroke="#F0F0F0" stroke-dasharray="3 3"/>
<path d="M386 3.9502V199.95" stroke="#F0F0F0" stroke-dasharray="3 3"/>
<path d="M504 3.9502V199.95" stroke="#F0F0F0" stroke-dasharray="3 3"/>
<path d="M622 3.9502V199.95" stroke="#F0F0F0" stroke-dasharray="3 3"/>
<path d="M32 199.95H622" stroke="#666666"/>
<path d="M32 205.95V199.95" stroke="#666666"/>
<path d="M19.293 215.76V215.057L21.9336 212.167C22.2435 211.828 22.4987 211.534 22.6992 211.284C22.8997 211.031 23.0482 210.794 23.1445 210.573C23.2435 210.349 23.293 210.114 23.293 209.87C23.293 209.588 23.2253 209.345 23.0898 209.139C22.957 208.933 22.7747 208.775 22.543 208.663C22.3112 208.551 22.0508 208.495 21.7617 208.495C21.4544 208.495 21.1862 208.558 20.957 208.686C20.7305 208.811 20.5547 208.987 20.4297 209.213C20.3073 209.44 20.2461 209.706 20.2461 210.01H19.3242C19.3242 209.542 19.4323 209.13 19.6484 208.776C19.8646 208.422 20.1589 208.146 20.5313 207.948C20.9063 207.75 21.3268 207.651 21.793 207.651C22.2617 207.651 22.6771 207.75 23.0391 207.948C23.401 208.146 23.6849 208.413 23.8906 208.749C24.0964 209.084 24.1992 209.458 24.1992 209.87C24.1992 210.164 24.1458 210.452 24.0391 210.733C23.9349 211.012 23.7526 211.323 23.4922 211.667C23.2344 212.008 22.8763 212.424 22.418 212.917L20.6211 214.838V214.901H24.3398V215.76H19.293ZM28.5625 215.87C27.974 215.87 27.4727 215.709 27.0586 215.389C26.6445 215.066 26.3281 214.599 26.1094 213.987C25.8906 213.372 25.7813 212.63 25.7813 211.76C25.7813 210.896 25.8906 210.157 26.1094 209.545C26.3307 208.931 26.6484 208.462 27.0625 208.139C27.4792 207.814 27.9792 207.651 28.5625 207.651C29.1458 207.651 29.6445 207.814 30.0586 208.139C30.4753 208.462 30.793 208.931 31.0117 209.545C31.2331 210.157 31.3438 210.896 31.3438 211.76C31.3438 212.63 31.2344 213.372 31.0156 213.987C30.7969 214.599 30.4805 215.066 30.0664 215.389C29.6523 215.709 29.151 215.87 28.5625 215.87ZM28.5625 215.01C29.1458 215.01 29.599 214.729 29.9219 214.167C30.2448 213.604 30.4063 212.802 30.4063 211.76C30.4063 211.068 30.332 210.478 30.1836 209.991C30.0378 209.504 29.8268 209.133 29.5508 208.877C29.2773 208.622 28.9479 208.495 28.5625 208.495C27.9844 208.495 27.5326 208.78 27.207 209.35C26.8815 209.918 26.7188 210.721 26.7188 211.76C26.7188 212.453 26.7917 213.042 26.9375 213.526C27.0833 214.01 27.293 214.379 27.5664 214.631C27.8424 214.884 28.1745 215.01 28.5625 215.01ZM32.8281 215.76V215.057L35.4687 212.167C35.7786 211.828 36.0339 211.534 36.2344 211.284C36.4349 211.031 36.5833 210.794 36.6797 210.573C36.7786 210.349 36.8281 210.114 36.8281 209.87C36.8281 209.588 36.7604 209.345 36.625 209.139C36.4922 208.933 36.3099 208.775 36.0781 208.663C35.8464 208.551 35.5859 208.495 35.2969 208.495C34.9896 208.495 34.7214 208.558 34.4922 208.686C34.2656 208.811 34.0898 208.987 33.9648 209.213C33.8424 209.44 33.7813 209.706 33.7813 210.01H32.8594C32.8594 209.542 32.9674 209.13 33.1836 208.776C33.3997 208.422 33.694 208.146 34.0664 207.948C34.4414 207.75 34.862 207.651 35.3281 207.651C35.7969 207.651 36.2122 207.75 36.5742 207.948C36.9362 208.146 37.2201 208.413 37.4258 208.749C37.6315 209.084 37.7344 209.458 37.7344 209.87C37.7344 210.164 37.681 210.452 37.5742 210.733C37.4701 211.012 37.2878 211.323 37.0273 211.667C36.7695 212.008 36.4115 212.424 35.9531 212.917L34.1563 214.838V214.901H37.875V215.76H32.8281ZM42.0977 215.87C41.5091 215.87 41.0078 215.709 40.5938 215.389C40.1797 215.066 39.8633 214.599 39.6445 213.987C39.4258 213.372 39.3164 212.63 39.3164 211.76C39.3164 210.896 39.4258 210.157 39.6445 209.545C39.8659 208.931 40.1836 208.462 40.5977 208.139C41.0143 207.814 41.5143 207.651 42.0977 207.651C42.681 207.651 43.1797 207.814 43.5938 208.139C44.0104 208.462 44.3281 208.931 44.5469 209.545C44.7682 210.157 44.8789 210.896 44.8789 211.76C44.8789 212.63 44.7695 213.372 44.5508 213.987C44.332 214.599 44.0156 215.066 43.6016 215.389C43.1875 215.709 42.6862 215.87 42.0977 215.87ZM42.0977 215.01C42.681 215.01 43.1341 214.729 43.457 214.167C43.7799 213.604 43.9414 212.802 43.9414 211.76C43.9414 211.068 43.8672 210.478 43.7188 209.991C43.5729 209.504 43.362 209.133 43.0859 208.877C42.8125 208.622 42.4831 208.495 42.0977 208.495C41.5195 208.495 41.0677 208.78 40.7422 209.35C40.4167 209.918 40.2539 210.721 40.2539 211.76C40.2539 212.453 40.3268 213.042 40.4727 213.526C40.6185 214.01 40.8281 214.379 41.1016 214.631C41.3776 214.884 41.7096 215.01 42.0977 215.01Z" fill="#666666"/>
<path d="M150 205.95V199.95" stroke="#666666"/>
<path d="M138.174 215.76V215.057L140.814 212.167C141.124 211.828 141.38 211.534 141.58 211.284C141.781 211.031 141.929 210.794 142.025 210.573C142.124 210.349 142.174 210.114 142.174 209.87C142.174 209.588 142.106 209.345 141.971 209.139C141.838 208.933 141.656 208.775 141.424 208.663C141.192 208.551 140.932 208.495 140.643 208.495C140.335 208.495 140.067 208.558 139.838 208.686C139.611 208.811 139.436 208.987 139.311 209.213C139.188 209.44 139.127 209.706 139.127 210.01H138.205C138.205 209.542 138.313 209.13 138.529 208.776C138.745 208.422 139.04 208.146 139.412 207.948C139.787 207.75 140.208 207.651 140.674 207.651C141.143 207.651 141.558 207.75 141.92 207.948C142.282 208.146 142.566 208.413 142.771 208.749C142.977 209.084 143.08 209.458 143.08 209.87C143.08 210.164 143.027 210.452 142.92 210.733C142.816 211.012 142.633 211.323 142.373 211.667C142.115 212.008 141.757 212.424 141.299 212.917L139.502 214.838V214.901H143.221V215.76H138.174ZM147.443 215.87C146.855 215.87 146.354 215.709 145.939 215.389C145.525 215.066 145.209 214.599 144.99 213.987C144.771 213.372 144.662 212.63 144.662 211.76C144.662 210.896 144.771 210.157 144.99 209.545C145.212 208.931 145.529 208.462 145.943 208.139C146.36 207.814 146.86 207.651 147.443 207.651C148.027 207.651 148.525 207.814 148.939 208.139C149.356 208.462 149.674 208.931 149.893 209.545C150.114 210.157 150.225 210.896 150.225 211.76C150.225 212.63 150.115 213.372 149.896 213.987C149.678 214.599 149.361 215.066 148.947 215.389C148.533 215.709 148.032 215.87 147.443 215.87ZM147.443 215.01C148.027 215.01 148.48 214.729 148.803 214.167C149.126 213.604 149.287 212.802 149.287 211.76C149.287 211.068 149.213 210.478 149.064 209.991C148.919 209.504 148.708 209.133 148.432 208.877C148.158 208.622 147.829 208.495 147.443 208.495C146.865 208.495 146.413 208.78 146.088 209.35C145.762 209.918 145.6 210.721 145.6 211.76C145.6 212.453 145.673 213.042 145.818 213.526C145.964 214.01 146.174 214.379 146.447 214.631C146.723 214.884 147.055 215.01 147.443 215.01ZM151.709 215.76V215.057L154.35 212.167C154.66 211.828 154.915 211.534 155.115 211.284C155.316 211.031 155.464 210.794 155.561 210.573C155.66 210.349 155.709 210.114 155.709 209.87C155.709 209.588 155.641 209.345 155.506 209.139C155.373 208.933 155.191 208.775 154.959 208.663C154.727 208.551 154.467 208.495 154.178 208.495C153.87 208.495 153.602 208.558 153.373 208.686C153.146 208.811 152.971 208.987 152.846 209.213C152.723 209.44 152.662 209.706 152.662 210.01H151.74C151.74 209.542 151.848 209.13 152.064 208.776C152.281 208.422 152.575 208.146 152.947 207.948C153.322 207.75 153.743 207.651 154.209 207.651C154.678 207.651 155.093 207.75 155.455 207.948C155.817 208.146 156.101 208.413 156.307 208.749C156.512 209.084 156.615 209.458 156.615 209.87C156.615 210.164 156.562 210.452 156.455 210.733C156.351 211.012 156.169 211.323 155.908 211.667C155.65 212.008 155.292 212.424 154.834 212.917L153.037 214.838V214.901H156.756V215.76H151.709ZM161.182 207.76V215.76H160.213V208.776H160.166L158.213 210.073V209.088L160.213 207.76H161.182Z" fill="#666666"/>
<path d="M268 205.95V199.95" stroke="#666666"/>
<path d="M255.4 215.76V215.057L258.041 212.167C258.351 211.828 258.606 211.534 258.807 211.284C259.007 211.031 259.156 210.794 259.252 210.573C259.351 210.349 259.4 210.114 259.4 209.87C259.4 209.588 259.333 209.345 259.197 209.139C259.064 208.933 258.882 208.775 258.65 208.663C258.419 208.551 258.158 208.495 257.869 208.495C257.562 208.495 257.294 208.558 257.064 208.686C256.838 208.811 256.662 208.987 256.537 209.213C256.415 209.44 256.354 209.706 256.354 210.01H255.432C255.432 209.542 255.54 209.13 255.756 208.776C255.972 208.422 256.266 208.146 256.639 207.948C257.014 207.75 257.434 207.651 257.9 207.651C258.369 207.651 258.785 207.75 259.146 207.948C259.508 208.146 259.792 208.413 259.998 208.749C260.204 209.084 260.307 209.458 260.307 209.87C260.307 210.164 260.253 210.452 260.146 210.733C260.042 211.012 259.86 211.323 259.6 211.667C259.342 212.008 258.984 212.424 258.525 212.917L256.729 214.838V214.901H260.447V215.76H255.4ZM264.67 215.87C264.081 215.87 263.58 215.709 263.166 215.389C262.752 215.066 262.436 214.599 262.217 213.987C261.998 213.372 261.889 212.63 261.889 211.76C261.889 210.896 261.998 210.157 262.217 209.545C262.438 208.931 262.756 208.462 263.17 208.139C263.587 207.814 264.087 207.651 264.67 207.651C265.253 207.651 265.752 207.814 266.166 208.139C266.583 208.462 266.9 208.931 267.119 209.545C267.34 210.157 267.451 210.896 267.451 211.76C267.451 212.63 267.342 213.372 267.123 213.987C266.904 214.599 266.588 215.066 266.174 215.389C265.76 215.709 265.258 215.87 264.67 215.87ZM264.67 215.01C265.253 215.01 265.706 214.729 266.029 214.167C266.352 213.604 266.514 212.802 266.514 211.76C266.514 211.068 266.439 210.478 266.291 209.991C266.145 209.504 265.934 209.133 265.658 208.877C265.385 208.622 265.055 208.495 264.67 208.495C264.092 208.495 263.64 208.78 263.314 209.35C262.989 209.918 262.826 210.721 262.826 211.76C262.826 212.453 262.899 213.042 263.045 213.526C263.191 214.01 263.4 214.379 263.674 214.631C263.95 214.884 264.282 215.01 264.67 215.01ZM268.936 215.76V215.057L271.576 212.167C271.886 211.828 272.141 211.534 272.342 211.284C272.542 211.031 272.691 210.794 272.787 210.573C272.886 210.349 272.936 210.114 272.936 209.87C272.936 209.588 272.868 209.345 272.732 209.139C272.6 208.933 272.417 208.775 272.186 208.663C271.954 208.551 271.693 208.495 271.404 208.495C271.097 208.495 270.829 208.558 270.6 208.686C270.373 208.811 270.197 208.987 270.072 209.213C269.95 209.44 269.889 209.706 269.889 210.01H268.967C268.967 209.542 269.075 209.13 269.291 208.776C269.507 208.422 269.801 208.146 270.174 207.948C270.549 207.75 270.969 207.651 271.436 207.651C271.904 207.651 272.32 207.75 272.682 207.948C273.044 208.146 273.327 208.413 273.533 208.749C273.739 209.084 273.842 209.458 273.842 209.87C273.842 210.164 273.788 210.452 273.682 210.733C273.577 211.012 273.395 211.323 273.135 211.667C272.877 212.008 272.519 212.424 272.061 212.917L270.264 214.838V214.901H273.982V215.76H268.936ZM275.596 215.76V215.057L278.236 212.167C278.546 211.828 278.801 211.534 279.002 211.284C279.202 211.031 279.351 210.794 279.447 210.573C279.546 210.349 279.596 210.114 279.596 209.87C279.596 209.588 279.528 209.345 279.393 209.139C279.26 208.933 279.077 208.775 278.846 208.663C278.614 208.551 278.354 208.495 278.064 208.495C277.757 208.495 277.489 208.558 277.26 208.686C277.033 208.811 276.857 208.987 276.732 209.213C276.61 209.44 276.549 209.706 276.549 210.01H275.627C275.627 209.542 275.735 209.13 275.951 208.776C276.167 208.422 276.462 208.146 276.834 207.948C277.209 207.75 277.63 207.651 278.096 207.651C278.564 207.651 278.98 207.75 279.342 207.948C279.704 208.146 279.988 208.413 280.193 208.749C280.399 209.084 280.502 209.458 280.502 209.87C280.502 210.164 280.449 210.452 280.342 210.733C280.238 211.012 280.055 211.323 279.795 211.667C279.537 212.008 279.179 212.424 278.721 212.917L276.924 214.838V214.901H280.643V215.76H275.596Z" fill="#666666"/>
<path d="M386 205.95V199.95" stroke="#666666"/>
<path d="M373.229 215.76V215.057L375.869 212.167C376.179 211.828 376.434 211.534 376.635 211.284C376.835 211.031 376.984 210.794 377.08 210.573C377.179 210.349 377.229 210.114 377.229 209.87C377.229 209.588 377.161 209.345 377.025 209.139C376.893 208.933 376.71 208.775 376.479 208.663C376.247 208.551 375.986 208.495 375.697 208.495C375.39 208.495 375.122 208.558 374.893 208.686C374.666 208.811 374.49 208.987 374.365 209.213C374.243 209.44 374.182 209.706 374.182 210.01H373.26C373.26 209.542 373.368 209.13 373.584 208.776C373.8 208.422 374.094 208.146 374.467 207.948C374.842 207.75 375.262 207.651 375.729 207.651C376.197 207.651 376.613 207.75 376.975 207.948C377.337 208.146 377.62 208.413 377.826 208.749C378.032 209.084 378.135 209.458 378.135 209.87C378.135 210.164 378.081 210.452 377.975 210.733C377.87 211.012 377.688 211.323 377.428 211.667C377.17 212.008 376.812 212.424 376.354 212.917L374.557 214.838V214.901H378.275V215.76H373.229ZM382.498 215.87C381.91 215.87 381.408 215.709 380.994 215.389C380.58 215.066 380.264 214.599 380.045 213.987C379.826 213.372 379.717 212.63 379.717 211.76C379.717 210.896 379.826 210.157 380.045 209.545C380.266 208.931 380.584 208.462 380.998 208.139C381.415 207.814 381.915 207.651 382.498 207.651C383.081 207.651 383.58 207.814 383.994 208.139C384.411 208.462 384.729 208.931 384.947 209.545C385.169 210.157 385.279 210.896 385.279 211.76C385.279 212.63 385.17 213.372 384.951 213.987C384.732 214.599 384.416 215.066 384.002 215.389C383.588 215.709 383.087 215.87 382.498 215.87ZM382.498 215.01C383.081 215.01 383.535 214.729 383.857 214.167C384.18 213.604 384.342 212.802 384.342 211.76C384.342 211.068 384.268 210.478 384.119 209.991C383.973 209.504 383.762 209.133 383.486 208.877C383.213 208.622 382.883 208.495 382.498 208.495C381.92 208.495 381.468 208.78 381.143 209.35C380.817 209.918 380.654 210.721 380.654 211.76C380.654 212.453 380.727 213.042 380.873 213.526C381.019 214.01 381.229 214.379 381.502 214.631C381.778 214.884 382.11 215.01 382.498 215.01ZM386.764 215.76V215.057L389.404 212.167C389.714 211.828 389.969 211.534 390.17 211.284C390.37 211.031 390.519 210.794 390.615 210.573C390.714 210.349 390.764 210.114 390.764 209.87C390.764 209.588 390.696 209.345 390.561 209.139C390.428 208.933 390.245 208.775 390.014 208.663C389.782 208.551 389.521 208.495 389.232 208.495C388.925 208.495 388.657 208.558 388.428 208.686C388.201 208.811 388.025 208.987 387.9 209.213C387.778 209.44 387.717 209.706 387.717 210.01H386.795C386.795 209.542 386.903 209.13 387.119 208.776C387.335 208.422 387.63 208.146 388.002 207.948C388.377 207.75 388.798 207.651 389.264 207.651C389.732 207.651 390.148 207.75 390.51 207.948C390.872 208.146 391.156 208.413 391.361 208.749C391.567 209.084 391.67 209.458 391.67 209.87C391.67 210.164 391.617 210.452 391.51 210.733C391.406 211.012 391.223 211.323 390.963 211.667C390.705 212.008 390.347 212.424 389.889 212.917L388.092 214.838V214.901H391.811V215.76H386.764ZM396.127 215.87C395.611 215.87 395.152 215.781 394.748 215.604C394.347 215.427 394.028 215.181 393.791 214.866C393.557 214.548 393.429 214.18 393.408 213.76H394.393C394.413 214.018 394.502 214.241 394.658 214.428C394.814 214.613 395.019 214.756 395.271 214.858C395.524 214.959 395.804 215.01 396.111 215.01C396.455 215.01 396.76 214.95 397.025 214.831C397.291 214.711 397.499 214.544 397.65 214.331C397.801 214.117 397.877 213.87 397.877 213.588C397.877 213.294 397.804 213.035 397.658 212.811C397.512 212.584 397.299 212.407 397.018 212.28C396.736 212.152 396.393 212.088 395.986 212.088H395.346V211.229H395.986C396.304 211.229 396.583 211.172 396.822 211.057C397.064 210.943 397.253 210.781 397.389 210.573C397.527 210.364 397.596 210.12 397.596 209.838C397.596 209.568 397.536 209.332 397.416 209.131C397.296 208.931 397.127 208.775 396.908 208.663C396.692 208.551 396.437 208.495 396.143 208.495C395.867 208.495 395.606 208.545 395.361 208.647C395.119 208.746 394.921 208.89 394.768 209.081C394.614 209.268 394.531 209.495 394.518 209.76H393.58C393.596 209.341 393.722 208.974 393.959 208.659C394.196 208.341 394.506 208.094 394.889 207.917C395.274 207.739 395.697 207.651 396.158 207.651C396.653 207.651 397.077 207.751 397.432 207.952C397.786 208.15 398.058 208.411 398.248 208.737C398.438 209.062 398.533 209.414 398.533 209.792C398.533 210.242 398.415 210.626 398.178 210.944C397.943 211.262 397.624 211.482 397.221 211.604V211.667C397.726 211.75 398.12 211.965 398.404 212.311C398.688 212.655 398.83 213.081 398.83 213.588C398.83 214.023 398.712 214.414 398.475 214.76C398.24 215.104 397.92 215.375 397.514 215.573C397.107 215.771 396.645 215.87 396.127 215.87Z" fill="#666666"/>
<path d="M504 205.95V199.95" stroke="#666666"/>
<path d="M491.288 215.76V215.057L493.928 212.167C494.238 211.828 494.493 211.534 494.694 211.284C494.894 211.031 495.043 210.794 495.139 210.573C495.238 210.349 495.288 210.114 495.288 209.87C495.288 209.588 495.22 209.345 495.084 209.139C494.952 208.933 494.769 208.775 494.538 208.663C494.306 208.551 494.045 208.495 493.756 208.495C493.449 208.495 493.181 208.558 492.952 208.686C492.725 208.811 492.549 208.987 492.424 209.213C492.302 209.44 492.241 209.706 492.241 210.01H491.319C491.319 209.542 491.427 209.13 491.643 208.776C491.859 208.422 492.153 208.146 492.526 207.948C492.901 207.75 493.321 207.651 493.788 207.651C494.256 207.651 494.672 207.75 495.034 207.948C495.396 208.146 495.68 208.413 495.885 208.749C496.091 209.084 496.194 209.458 496.194 209.87C496.194 210.164 496.14 210.452 496.034 210.733C495.93 211.012 495.747 211.323 495.487 211.667C495.229 212.008 494.871 212.424 494.413 212.917L492.616 214.838V214.901H496.334V215.76H491.288ZM500.557 215.87C499.969 215.87 499.467 215.709 499.053 215.389C498.639 215.066 498.323 214.599 498.104 213.987C497.885 213.372 497.776 212.63 497.776 211.76C497.776 210.896 497.885 210.157 498.104 209.545C498.325 208.931 498.643 208.462 499.057 208.139C499.474 207.814 499.974 207.651 500.557 207.651C501.14 207.651 501.639 207.814 502.053 208.139C502.47 208.462 502.788 208.931 503.006 209.545C503.228 210.157 503.338 210.896 503.338 211.76C503.338 212.63 503.229 213.372 503.01 213.987C502.792 214.599 502.475 215.066 502.061 215.389C501.647 215.709 501.146 215.87 500.557 215.87ZM500.557 215.01C501.14 215.01 501.594 214.729 501.917 214.167C502.239 213.604 502.401 212.802 502.401 211.76C502.401 211.068 502.327 210.478 502.178 209.991C502.032 209.504 501.821 209.133 501.545 208.877C501.272 208.622 500.943 208.495 500.557 208.495C499.979 208.495 499.527 208.78 499.202 209.35C498.876 209.918 498.713 210.721 498.713 211.76C498.713 212.453 498.786 213.042 498.932 213.526C499.078 214.01 499.288 214.379 499.561 214.631C499.837 214.884 500.169 215.01 500.557 215.01ZM504.823 215.76V215.057L507.463 212.167C507.773 211.828 508.028 211.534 508.229 211.284C508.43 211.031 508.578 210.794 508.674 210.573C508.773 210.349 508.823 210.114 508.823 209.87C508.823 209.588 508.755 209.345 508.62 209.139C508.487 208.933 508.305 208.775 508.073 208.663C507.841 208.551 507.581 208.495 507.292 208.495C506.984 208.495 506.716 208.558 506.487 208.686C506.26 208.811 506.084 208.987 505.959 209.213C505.837 209.44 505.776 209.706 505.776 210.01H504.854C504.854 209.542 504.962 209.13 505.178 208.776C505.394 208.422 505.689 208.146 506.061 207.948C506.436 207.75 506.857 207.651 507.323 207.651C507.792 207.651 508.207 207.75 508.569 207.948C508.931 208.146 509.215 208.413 509.42 208.749C509.626 209.084 509.729 209.458 509.729 209.87C509.729 210.164 509.676 210.452 509.569 210.733C509.465 211.012 509.282 211.323 509.022 211.667C508.764 212.008 508.406 212.424 507.948 212.917L506.151 214.838V214.901H509.87V215.76H504.823ZM511.124 214.12V213.323L514.639 207.76H515.217V208.995H514.827L512.17 213.198V213.26H516.905V214.12H511.124ZM514.889 215.76V213.877V213.506V207.76H515.811V215.76H514.889Z" fill="#666666"/>
<path d="M622 205.95V199.95" stroke="#666666"/>
<path d="M601.392 215.76V215.057L604.033 212.167C604.343 211.828 604.598 211.534 604.798 211.284C604.999 211.031 605.147 210.794 605.244 210.573C605.343 210.349 605.392 210.114 605.392 209.87C605.392 209.588 605.324 209.345 605.189 209.139C605.056 208.933 604.874 208.775 604.642 208.663C604.41 208.551 604.15 208.495 603.861 208.495C603.554 208.495 603.285 208.558 603.056 208.686C602.83 208.811 602.654 208.987 602.529 209.213C602.406 209.44 602.345 209.706 602.345 210.01H601.423C601.423 209.542 601.531 209.13 601.748 208.776C601.964 208.422 602.258 208.146 602.63 207.948C603.005 207.75 603.426 207.651 603.892 207.651C604.361 207.651 604.776 207.75 605.138 207.948C605.5 208.146 605.784 208.413 605.99 208.749C606.195 209.084 606.298 209.458 606.298 209.87C606.298 210.164 606.245 210.452 606.138 210.733C606.034 211.012 605.852 211.323 605.591 211.667C605.333 212.008 604.975 212.424 604.517 212.917L602.72 214.838V214.901H606.439V215.76H601.392ZM610.662 215.87C610.073 215.87 609.572 215.709 609.158 215.389C608.744 215.066 608.427 214.599 608.208 213.987C607.99 213.372 607.88 212.63 607.88 211.76C607.88 210.896 607.99 210.157 608.208 209.545C608.43 208.931 608.748 208.462 609.162 208.139C609.578 207.814 610.078 207.651 610.662 207.651C611.245 207.651 611.744 207.814 612.158 208.139C612.574 208.462 612.892 208.931 613.111 209.545C613.332 210.157 613.443 210.896 613.443 211.76C613.443 212.63 613.333 213.372 613.115 213.987C612.896 214.599 612.58 215.066 612.166 215.389C611.751 215.709 611.25 215.87 610.662 215.87ZM610.662 215.01C611.245 215.01 611.698 214.729 612.021 214.167C612.344 213.604 612.505 212.802 612.505 211.76C612.505 211.068 612.431 210.478 612.283 209.991C612.137 209.504 611.926 209.133 611.65 208.877C611.376 208.622 611.047 208.495 610.662 208.495C610.083 208.495 609.632 208.78 609.306 209.35C608.981 209.918 608.818 210.721 608.818 211.76C608.818 212.453 608.891 213.042 609.037 213.526C609.182 214.01 609.392 214.379 609.666 214.631C609.942 214.884 610.274 215.01 610.662 215.01ZM614.927 215.76V215.057L617.568 212.167C617.878 211.828 618.133 211.534 618.333 211.284C618.534 211.031 618.682 210.794 618.779 210.573C618.878 210.349 618.927 210.114 618.927 209.87C618.927 209.588 618.86 209.345 618.724 209.139C618.591 208.933 618.409 208.775 618.177 208.663C617.945 208.551 617.685 208.495 617.396 208.495C617.089 208.495 616.82 208.558 616.591 208.686C616.365 208.811 616.189 208.987 616.064 209.213C615.942 209.44 615.88 209.706 615.88 210.01H614.958C614.958 209.542 615.067 209.13 615.283 208.776C615.499 208.422 615.793 208.146 616.166 207.948C616.541 207.75 616.961 207.651 617.427 207.651C617.896 207.651 618.311 207.75 618.673 207.948C619.035 208.146 619.319 208.413 619.525 208.749C619.731 209.084 619.833 209.458 619.833 209.87C619.833 210.164 619.78 210.452 619.673 210.733C619.569 211.012 619.387 211.323 619.126 211.667C618.869 212.008 618.511 212.424 618.052 212.917L616.255 214.838V214.901H619.974V215.76H614.927ZM624.087 215.87C623.629 215.87 623.216 215.778 622.849 215.596C622.482 215.414 622.188 215.164 621.966 214.846C621.745 214.528 621.624 214.167 621.603 213.76H622.541C622.577 214.122 622.741 214.422 623.033 214.659C623.327 214.893 623.679 215.01 624.087 215.01C624.416 215.01 624.707 214.933 624.962 214.78C625.22 214.626 625.422 214.415 625.568 214.147C625.716 213.876 625.791 213.57 625.791 213.229C625.791 212.88 625.714 212.569 625.56 212.295C625.409 212.019 625.201 211.802 624.935 211.643C624.669 211.484 624.366 211.403 624.025 211.401C623.78 211.398 623.529 211.436 623.271 211.514C623.013 211.59 622.801 211.687 622.634 211.807L621.728 211.698L622.212 207.76H626.369V208.62H623.025L622.744 210.979H622.791C622.955 210.849 623.16 210.741 623.408 210.655C623.655 210.569 623.913 210.526 624.181 210.526C624.671 210.526 625.107 210.643 625.49 210.877C625.875 211.109 626.177 211.427 626.396 211.831C626.617 212.234 626.728 212.695 626.728 213.213C626.728 213.724 626.613 214.18 626.384 214.581C626.158 214.979 625.845 215.294 625.447 215.526C625.048 215.755 624.595 215.87 624.087 215.87Z" fill="#666666"/>
<path d="M32 3.9502V199.95" stroke="#666666"/>
<path d="M26 199.95H32" stroke="#666666"/>
<path d="M3.48242 203.599C2.94738 203.599 2.49165 203.454 2.11523 203.163C1.73881 202.869 1.45117 202.444 1.25231 201.888C1.05344 201.329 0.954013 200.654 0.954013 199.864C0.954013 199.078 1.05344 198.406 1.25231 197.85C1.45354 197.291 1.74237 196.865 2.11879 196.572C2.49757 196.276 2.95212 196.128 3.48242 196.128C4.01272 196.128 4.46609 196.276 4.84251 196.572C5.2213 196.865 5.51012 197.291 5.70898 197.85C5.91022 198.406 6.01083 199.078 6.01083 199.864C6.01083 200.654 5.9114 201.329 5.71254 201.888C5.51367 202.444 5.22603 202.869 4.84961 203.163C4.47319 203.454 4.01746 203.599 3.48242 203.599ZM3.48242 202.818C4.01272 202.818 4.42466 202.562 4.71822 202.051C5.01178 201.54 5.15856 200.811 5.15856 199.864C5.15856 199.234 5.09109 198.698 4.95614 198.255C4.82357 197.812 4.63181 197.475 4.38086 197.243C4.13228 197.011 3.8328 196.895 3.48242 196.895C2.95685 196.895 2.54611 197.154 2.25018 197.673C1.95425 198.189 1.80629 198.919 1.80629 199.864C1.80629 200.493 1.87257 201.028 2.00515 201.469C2.13772 201.909 2.3283 202.244 2.57688 202.474C2.82783 202.703 3.12968 202.818 3.48242 202.818ZM7.73136 203.557C7.55617 203.557 7.40584 203.494 7.28036 203.369C7.15489 203.243 7.09215 203.093 7.09215 202.918C7.09215 202.742 7.15489 202.592 7.28036 202.467C7.40584 202.341 7.55617 202.278 7.73136 202.278C7.90655 202.278 8.05688 202.341 8.18235 202.467C8.30782 202.592 8.37056 202.742 8.37056 202.918C8.37056 203.034 8.34097 203.14 8.28178 203.237C8.22496 203.334 8.14802 203.412 8.05096 203.472C7.95626 203.528 7.84973 203.557 7.73136 203.557ZM11.9785 203.599C11.4435 203.599 10.9877 203.454 10.6113 203.163C10.2349 202.869 9.94727 202.444 9.7484 201.888C9.54954 201.329 9.45011 200.654 9.45011 199.864C9.45011 199.078 9.54954 198.406 9.7484 197.85C9.94963 197.291 10.2385 196.865 10.6149 196.572C10.9937 196.276 11.4482 196.128 11.9785 196.128C12.5088 196.128 12.9622 196.276 13.3386 196.572C13.7174 196.865 14.0062 197.291 14.2051 197.85C14.4063 198.406 14.5069 199.078 14.5069 199.864C14.5069 200.654 14.4075 201.329 14.2086 201.888C14.0098 202.444 13.7221 202.869 13.3457 203.163C12.9693 203.454 12.5136 203.599 11.9785 203.599ZM11.9785 202.818C12.5088 202.818 12.9208 202.562 13.2143 202.051C13.5079 201.54 13.6547 200.811 13.6547 199.864C13.6547 199.234 13.5872 198.698 13.4522 198.255C13.3197 197.812 13.1279 197.475 12.877 197.243C12.6284 197.011 12.3289 196.895 11.9785 196.895C11.4529 196.895 11.0422 197.154 10.7463 197.673C10.4503 198.189 10.3024 198.919 10.3024 199.864C10.3024 200.493 10.3687 201.028 10.5012 201.469C10.6338 201.909 10.8244 202.244 11.073 202.474C11.3239 202.703 11.6258 202.818 11.9785 202.818ZM15.9842 196.227H17.0353L19.5069 202.264H19.5922L22.0637 196.227H23.1149V203.5H22.291V197.974H22.22L19.9473 203.5H19.1518L16.8791 197.974H16.8081V203.5H15.9842V196.227Z" fill="#666666"/>
<path d="M26 150.95H32" stroke="#666666"/>
<path d="M3.30664 154.599C2.7716 154.599 2.31587 154.454 1.93945 154.163C1.56303 153.869 1.27539 153.444 1.07653 152.888C0.877663 152.329 0.778232 151.654 0.778232 150.864C0.778232 150.078 0.877663 149.406 1.07653 148.85C1.27776 148.291 1.56658 147.865 1.943 147.572C2.32179 147.276 2.77634 147.128 3.30664 147.128C3.83694 147.128 4.29031 147.276 4.66673 147.572C5.04551 147.865 5.33434 148.291 5.5332 148.85C5.73443 149.406 5.83505 150.078 5.83505 150.864C5.83505 151.654 5.73562 152.329 5.53675 152.888C5.33789 153.444 5.05025 153.869 4.67383 154.163C4.29741 154.454 3.84168 154.599 3.30664 154.599ZM3.30664 153.818C3.83694 153.818 4.24888 153.562 4.54244 153.051C4.836 152.54 4.98278 151.811 4.98278 150.864C4.98278 150.234 4.91531 149.698 4.78036 149.255C4.64779 148.812 4.45603 148.475 4.20508 148.243C3.9565 148.011 3.65702 147.895 3.30664 147.895C2.78107 147.895 2.37032 148.154 2.0744 148.673C1.77847 149.189 1.6305 149.919 1.6305 150.864C1.6305 151.493 1.69679 152.028 1.82937 152.469C1.96194 152.909 2.15252 153.244 2.4011 153.474C2.65205 153.703 2.95389 153.818 3.30664 153.818ZM7.55558 154.557C7.38039 154.557 7.23005 154.494 7.10458 154.369C6.97911 154.243 6.91637 154.093 6.91637 153.918C6.91637 153.742 6.97911 153.592 7.10458 153.467C7.23005 153.341 7.38039 153.278 7.55558 153.278C7.73076 153.278 7.8811 153.341 8.00657 153.467C8.13204 153.592 8.19478 153.742 8.19478 153.918C8.19478 154.034 8.16519 154.14 8.106 154.237C8.04918 154.334 7.97224 154.412 7.87518 154.472C7.78048 154.528 7.67395 154.557 7.55558 154.557ZM11.9315 147.128C12.2298 147.13 12.5281 147.187 12.8263 147.298C13.1246 147.41 13.3969 147.594 13.6431 147.852C13.8893 148.108 14.087 148.457 14.2362 148.9C14.3853 149.343 14.4599 149.898 14.4599 150.565C14.4599 151.212 14.3983 151.786 14.2752 152.288C14.1545 152.787 13.9793 153.209 13.7496 153.552C13.5224 153.895 13.2454 154.156 12.9187 154.333C12.5943 154.511 12.2274 154.599 11.8178 154.599C11.4106 154.599 11.0472 154.519 10.7276 154.358C10.4104 154.195 10.15 153.969 9.94638 153.68C9.74515 153.388 9.61612 153.051 9.5593 152.668H10.4258C10.5039 153.001 10.659 153.277 10.891 153.495C11.1254 153.71 11.4343 153.818 11.8178 153.818C12.3789 153.818 12.8216 153.573 13.146 153.083C13.4727 152.593 13.636 151.901 13.636 151.006H13.5792C13.4466 151.205 13.2892 151.376 13.1069 151.521C12.9246 151.665 12.7222 151.776 12.4996 151.854C12.2771 151.933 12.0404 151.972 11.7894 151.972C11.3728 151.972 10.9904 151.869 10.6424 151.663C10.2968 151.454 10.0198 151.169 9.81143 150.807C9.60547 150.442 9.50249 150.026 9.50249 149.557C9.50249 149.112 9.60192 148.705 9.80078 148.335C10.002 147.964 10.2837 147.668 10.646 147.447C11.0105 147.227 11.439 147.121 11.9315 147.128ZM11.9315 147.909C11.6332 147.909 11.3645 147.984 11.1254 148.133C10.8886 148.28 10.7004 148.478 10.5607 148.729C10.4234 148.978 10.3548 149.254 10.3548 149.557C10.3548 149.86 10.421 150.136 10.5536 150.384C10.6886 150.63 10.872 150.827 11.104 150.974C11.3384 151.118 11.6048 151.19 11.9031 151.19C12.128 151.19 12.3375 151.147 12.5316 151.059C12.7257 150.969 12.895 150.847 13.0394 150.693C13.1862 150.537 13.301 150.361 13.3839 150.164C13.4667 149.965 13.5082 149.758 13.5082 149.543C13.5082 149.259 13.4395 148.992 13.3022 148.744C13.1673 148.495 12.9802 148.294 12.7411 148.14C12.5044 147.986 12.2345 147.909 11.9315 147.909ZM15.9842 147.227H17.0353L19.5069 153.264H19.5922L22.0637 147.227H23.1149V154.5H22.291V148.974H22.22L19.9473 154.5H19.1518L16.8791 148.974H16.8081V154.5H15.9842V147.227Z" fill="#666666"/>
<path d="M26 101.95H32" stroke="#666666"/>
<path d="M5.26864 98.2273V105.5H4.38796V99.1506H4.34535L2.56978 100.33V99.4347L4.38796 98.2273H5.26864ZM7.55558 105.557C7.38039 105.557 7.23005 105.494 7.10458 105.369C6.97911 105.243 6.91637 105.093 6.91637 104.918C6.91637 104.742 6.97911 104.592 7.10458 104.467C7.23005 104.341 7.38039 104.278 7.55558 104.278C7.73076 104.278 7.8811 104.341 8.00657 104.467C8.13204 104.592 8.19478 104.742 8.19478 104.918C8.19478 105.034 8.16519 105.14 8.106 105.237C8.04918 105.334 7.97224 105.412 7.87518 105.472C7.78048 105.528 7.67395 105.557 7.55558 105.557ZM11.9315 98.1278C12.2298 98.1302 12.5281 98.187 12.8263 98.2983C13.1246 98.4096 13.3969 98.5942 13.6431 98.8523C13.8893 99.108 14.087 99.4571 14.2362 99.8999C14.3853 100.343 14.4599 100.898 14.4599 101.565C14.4599 102.212 14.3983 102.786 14.2752 103.288C14.1545 103.787 13.9793 104.209 13.7496 104.552C13.5224 104.895 13.2454 105.156 12.9187 105.333C12.5943 105.511 12.2274 105.599 11.8178 105.599C11.4106 105.599 11.0472 105.519 10.7276 105.358C10.4104 105.195 10.15 104.969 9.94638 104.68C9.74515 104.388 9.61612 104.051 9.5593 103.668H10.4258C10.5039 104.001 10.659 104.277 10.891 104.495C11.1254 104.71 11.4343 104.818 11.8178 104.818C12.3789 104.818 12.8216 104.573 13.146 104.083C13.4727 103.593 13.636 102.901 13.636 102.006H13.5792C13.4466 102.205 13.2892 102.376 13.1069 102.521C12.9246 102.665 12.7222 102.776 12.4996 102.854C12.2771 102.933 12.0404 102.972 11.7894 102.972C11.3728 102.972 10.9904 102.869 10.6424 102.663C10.2968 102.454 10.0198 102.169 9.81143 101.807C9.60547 101.442 9.50249 101.026 9.50249 100.557C9.50249 100.112 9.60192 99.7045 9.80078 99.3352C10.002 98.9635 10.2837 98.6676 10.646 98.4474C11.0105 98.2273 11.439 98.1207 11.9315 98.1278ZM11.9315 98.9091C11.6332 98.9091 11.3645 98.9837 11.1254 99.1328C10.8886 99.2796 10.7004 99.4785 10.5607 99.7294C10.4234 99.978 10.3548 100.254 10.3548 100.557C10.3548 100.86 10.421 101.136 10.5536 101.384C10.6886 101.63 10.872 101.827 11.104 101.974C11.3384 102.118 11.6048 102.19 11.9031 102.19C12.128 102.19 12.3375 102.147 12.5316 102.059C12.7257 101.969 12.895 101.847 13.0394 101.693C13.1862 101.537 13.301 101.361 13.3839 101.164C13.4667 100.965 13.5082 100.758 13.5082 100.543C13.5082 100.259 13.4395 99.9922 13.3022 99.7436C13.1673 99.495 12.9802 99.2938 12.7411 99.1399C12.5044 98.986 12.2345 98.9091 11.9315 98.9091ZM15.9842 98.2273H17.0353L19.5069 104.264H19.5922L22.0637 98.2273H23.1149V105.5H22.291V99.9744H22.22L19.9473 105.5H19.1518L16.8791 99.9744H16.8081V105.5H15.9842V98.2273Z" fill="#666666"/>
<path d="M26 52.9502H32" stroke="#666666"/>
<path d="M0.875888 56.5V55.8608L3.27646 53.233C3.55818 52.9252 3.79019 52.6577 3.97248 52.4304C4.15477 52.2008 4.28971 51.9853 4.37731 51.7841C4.46727 51.5805 4.51225 51.3674 4.51225 51.1449C4.51225 50.8892 4.4507 50.6679 4.32759 50.4808C4.20685 50.2938 4.04113 50.1494 3.83043 50.0476C3.61973 49.9458 3.38299 49.8949 3.12021 49.8949C2.84085 49.8949 2.59701 49.9529 2.38867 50.0689C2.18271 50.1825 2.0229 50.3423 1.90927 50.5483C1.798 50.7543 1.74237 50.9957 1.74237 51.2727H0.904297C0.904297 50.8466 1.00254 50.4725 1.19904 50.1506C1.39554 49.8286 1.66306 49.5777 2.0016 49.3977C2.34251 49.2178 2.72485 49.1278 3.14862 49.1278C3.57475 49.1278 3.95236 49.2178 4.28143 49.3977C4.6105 49.5777 4.86855 49.8203 5.05558 50.1257C5.2426 50.4311 5.33612 50.7708 5.33612 51.1449C5.33612 51.4124 5.28758 51.674 5.19052 51.9297C5.09582 52.183 4.9301 52.4659 4.69336 52.7784C4.45898 53.0885 4.13346 53.4673 3.7168 53.9148L2.08327 55.6619V55.7188H5.46396V56.5H0.875888ZM7.55558 56.5568C7.38039 56.5568 7.23005 56.4941 7.10458 56.3686C6.97911 56.2431 6.91637 56.0928 6.91637 55.9176C6.91637 55.7424 6.97911 55.5921 7.10458 55.4666C7.23005 55.3411 7.38039 55.2784 7.55558 55.2784C7.73076 55.2784 7.8811 55.3411 8.00657 55.4666C8.13204 55.5921 8.19478 55.7424 8.19478 55.9176C8.19478 56.0336 8.16519 56.1402 8.106 56.2372C8.04918 56.3343 7.97224 56.4124 7.87518 56.4716C7.78048 56.5284 7.67395 56.5568 7.55558 56.5568ZM11.9315 49.1278C12.2298 49.1302 12.5281 49.187 12.8263 49.2983C13.1246 49.4096 13.3969 49.5942 13.6431 49.8523C13.8893 50.108 14.087 50.4571 14.2362 50.8999C14.3853 51.3426 14.4599 51.8977 14.4599 52.5653C14.4599 53.2116 14.3983 53.7857 14.2752 54.2876C14.1545 54.7872 13.9793 55.2086 13.7496 55.5518C13.5224 55.8951 13.2454 56.1555 12.9187 56.3331C12.5943 56.5107 12.2274 56.5994 11.8178 56.5994C11.4106 56.5994 11.0472 56.5189 10.7276 56.358C10.4104 56.1946 10.15 55.9685 9.94638 55.6797C9.74515 55.3885 9.61612 55.0511 9.5593 54.6676H10.4258C10.5039 55.0014 10.659 55.2772 10.891 55.495C11.1254 55.7105 11.4343 55.8182 11.8178 55.8182C12.3789 55.8182 12.8216 55.5732 13.146 55.0831C13.4727 54.593 13.636 53.9006 13.636 53.0057H13.5792C13.4466 53.2045 13.2892 53.3762 13.1069 53.5206C12.9246 53.665 12.7222 53.7763 12.4996 53.8544C12.2771 53.9325 12.0404 53.9716 11.7894 53.9716C11.3728 53.9716 10.9904 53.8686 10.6424 53.6626C10.2968 53.4543 10.0198 53.169 9.81143 52.8068C9.60547 52.4422 9.50249 52.0256 9.50249 51.5568C9.50249 51.1117 9.60192 50.7045 9.80078 50.3352C10.002 49.9635 10.2837 49.6676 10.646 49.4474C11.0105 49.2273 11.439 49.1207 11.9315 49.1278ZM11.9315 49.9091C11.6332 49.9091 11.3645 49.9837 11.1254 50.1328C10.8886 50.2796 10.7004 50.4785 10.5607 50.7294C10.4234 50.978 10.3548 51.2538 10.3548 51.5568C10.3548 51.8598 10.421 52.1357 10.5536 52.3842C10.6886 52.6304 10.872 52.8269 11.104 52.9737C11.3384 53.1181 11.6048 53.1903 11.9031 53.1903C12.128 53.1903 12.3375 53.1465 12.5316 53.0589C12.7257 52.969 12.895 52.8471 13.0394 52.6932C13.1862 52.5369 13.301 52.3606 13.3839 52.1641C13.4667 51.9652 13.5082 51.758 13.5082 51.5426C13.5082 51.2585 13.4395 50.9922 13.3022 50.7436C13.1673 50.495 12.9802 50.2938 12.7411 50.1399C12.5044 49.986 12.2345 49.9091 11.9315 49.9091ZM15.9842 49.2273H17.0353L19.5069 55.2642H19.5922L22.0637 49.2273H23.1149V56.5H22.291V50.9744H22.22L19.9473 56.5H19.1518L16.8791 50.9744H16.8081V56.5H15.9842V49.2273Z" fill="#666666"/>
<path d="M26 3.9502H32" stroke="#666666"/>
<path d="M3.47976 10.0994C3.01101 10.0994 2.59316 10.0189 2.22621 9.85795C1.86162 9.69697 1.57161 9.47325 1.35618 9.18679C1.14311 8.89796 1.02711 8.56297 1.00817 8.18182H1.90305C1.92199 8.41619 2.00249 8.61861 2.14453 8.78906C2.28658 8.95715 2.47242 9.08736 2.70206 9.17969C2.9317 9.27202 3.1862 9.31818 3.46555 9.31818C3.77805 9.31818 4.05504 9.26373 4.29652 9.15483C4.538 9.04593 4.72739 8.89441 4.8647 8.70028C5.00201 8.50616 5.07067 8.28125 5.07067 8.02557C5.07067 7.75805 5.00438 7.52249 4.8718 7.31889C4.73923 7.11293 4.5451 6.95194 4.28942 6.83594C4.03374 6.71993 3.72124 6.66193 3.35192 6.66193H2.76953V5.88068H3.35192C3.64074 5.88068 3.89406 5.8286 4.11186 5.72443C4.33203 5.62026 4.50367 5.47348 4.62678 5.28409C4.75225 5.0947 4.81499 4.87216 4.81499 4.61648C4.81499 4.37026 4.76054 4.15601 4.65163 3.97372C4.54273 3.79143 4.38885 3.64938 4.18999 3.54759C3.99349 3.44579 3.76148 3.39489 3.49396 3.39489C3.24302 3.39489 3.00627 3.44105 2.78374 3.53338C2.56357 3.62334 2.38364 3.75473 2.24396 3.92756C2.10429 4.09801 2.02853 4.30398 2.01669 4.54545H1.16442C1.17862 4.1643 1.29344 3.83049 1.50888 3.54403C1.72431 3.25521 2.00604 3.0303 2.35405 2.86932C2.70443 2.70833 3.08913 2.62784 3.50817 2.62784C3.95798 2.62784 4.34387 2.71899 4.66584 2.90128C4.98781 3.0812 5.2352 3.31913 5.40803 3.61506C5.58085 3.91098 5.66726 4.23059 5.66726 4.57386C5.66726 4.98343 5.55954 5.33262 5.34411 5.62145C5.13104 5.91027 4.84103 6.11032 4.47408 6.22159V6.27841C4.93336 6.35417 5.29202 6.54948 5.55007 6.86435C5.80812 7.17685 5.93714 7.56392 5.93714 8.02557C5.93714 8.42093 5.82943 8.77604 5.61399 9.09091C5.40092 9.40341 5.10973 9.64962 4.74041 9.82955C4.37109 10.0095 3.95088 10.0994 3.47976 10.0994ZM7.78995 10.0568C7.61476 10.0568 7.46443 9.99408 7.33896 9.86861C7.21348 9.74313 7.15075 9.5928 7.15075 9.41761C7.15075 9.24242 7.21348 9.09209 7.33896 8.96662C7.46443 8.84115 7.61476 8.77841 7.78995 8.77841C7.96514 8.77841 8.11547 8.84115 8.24094 8.96662C8.36642 9.09209 8.42915 9.24242 8.42915 9.41761C8.42915 9.53362 8.39956 9.64015 8.34038 9.73722C8.28356 9.83428 8.20662 9.91241 8.10955 9.97159C8.01486 10.0284 7.90832 10.0568 7.78995 10.0568ZM12.0238 10.0994C11.5361 10.0994 11.1052 10.013 10.7312 9.8402C10.3595 9.66501 10.0695 9.42472 9.86115 9.11932C9.65282 8.81155 9.54983 8.46117 9.5522 8.06818C9.54983 7.76042 9.6102 7.47633 9.73331 7.21591C9.85642 6.95312 10.0245 6.73414 10.2376 6.55895C10.453 6.38139 10.6933 6.26894 10.9585 6.22159V6.17898C10.6104 6.08902 10.3335 5.8937 10.1275 5.59304C9.92152 5.29001 9.81972 4.94555 9.82209 4.55966C9.81972 4.19034 9.91323 3.86009 10.1026 3.56889C10.292 3.2777 10.5524 3.04806 10.8839 2.87997C11.2177 2.71188 11.5977 2.62784 12.0238 2.62784C12.4452 2.62784 12.8216 2.71188 13.1531 2.87997C13.4845 3.04806 13.7449 3.2777 13.9343 3.56889C14.1261 3.86009 14.2231 4.19034 14.2255 4.55966C14.2231 4.94555 14.1178 5.29001 13.9094 5.59304C13.7035 5.8937 13.43 6.08902 13.0891 6.17898V6.22159C13.3519 6.26894 13.5887 6.38139 13.7994 6.55895C14.0101 6.73414 14.1781 6.95312 14.3036 7.21591C14.4291 7.47633 14.493 7.76042 14.4954 8.06818C14.493 8.46117 14.3865 8.81155 14.1758 9.11932C13.9674 9.42472 13.6774 9.66501 13.3058 9.8402C12.9364 10.013 12.5091 10.0994 12.0238 10.0994ZM12.0238 9.31818C12.3529 9.31818 12.637 9.26491 12.8761 9.15838C13.1152 9.05185 13.2998 8.90152 13.43 8.70739C13.5603 8.51326 13.6265 8.28598 13.6289 8.02557C13.6265 7.75095 13.5555 7.50829 13.4158 7.29759C13.2762 7.08688 13.0856 6.92116 12.8441 6.80043C12.605 6.67969 12.3316 6.61932 12.0238 6.61932C11.7137 6.61932 11.4367 6.67969 11.1928 6.80043C10.9513 6.92116 10.7608 7.08688 10.6211 7.29759C10.4838 7.50829 10.4163 7.75095 10.4187 8.02557C10.4163 8.28598 10.479 8.51326 10.6069 8.70739C10.7371 8.90152 10.9229 9.05185 11.1644 9.15838C11.4059 9.26491 11.6924 9.31818 12.0238 9.31818ZM12.0238 5.86648C12.2842 5.86648 12.515 5.81439 12.7163 5.71023C12.9199 5.60606 13.0797 5.46046 13.1957 5.27344C13.3117 5.08641 13.3709 4.86742 13.3732 4.61648C13.3709 4.37026 13.3129 4.15601 13.1992 3.97372C13.0856 3.78906 12.9281 3.64702 12.7269 3.54759C12.5257 3.44579 12.2913 3.39489 12.0238 3.39489C11.7515 3.39489 11.5136 3.44579 11.31 3.54759C11.1064 3.64702 10.949 3.78906 10.8377 3.97372C10.7264 4.15601 10.672 4.37026 10.6744 4.61648C10.672 4.86742 10.7276 5.08641 10.8413 5.27344C10.9573 5.46046 11.1171 5.60606 11.3207 5.71023C11.5243 5.81439 11.7586 5.86648 12.0238 5.86648ZM15.9842 2.72727H17.0353L19.5069 8.7642H19.5922L22.0637 2.72727H23.1149V10H22.291V4.47443H22.22L19.9473 10H19.1518L16.8791 4.47443H16.8081V10H15.9842V2.72727Z" fill="#666666"/>
<path d="M32 70.1045C71.333 44.2085 110.667 18.3135 150 18.3135C189.333 18.3135 228.667 46.9495 268 46.9495C307.333 46.9495 346.667 30.8145 386 30.6365C425.333 30.4595 464.667 30.5485 504 30.3705C543.333 30.1925 582.667 24.8645 622 19.5365" stroke="#009189" stroke-width="2"/>
<path d="M150 22.313C152.209 22.313 154 20.5221 154 18.313C154 16.1039 152.209 14.313 150 14.313C147.791 14.313 146 16.1039 146 18.313C146 20.5221 147.791 22.313 150 22.313Z" fill="white" stroke="#009189" stroke-width="2"/>
<path d="M268 50.9487C270.209 50.9487 272 49.1579 272 46.9487C272 44.7396 270.209 42.9487 268 42.9487C265.791 42.9487 264 44.7396 264 46.9487C264 49.1579 265.791 50.9487 268 50.9487Z" fill="white" stroke="#009189" stroke-width="2"/>
<path d="M386 34.6367C388.209 34.6367 390 32.8459 390 30.6367C390 28.4276 388.209 26.6367 386 26.6367C383.791 26.6367 382 28.4276 382 30.6367C382 32.8459 383.791 34.6367 386 34.6367Z" fill="white" stroke="#009189" stroke-width="2"/>
<path d="M504 34.3701C506.209 34.3701 508 32.5793 508 30.3701C508 28.161 506.209 26.3701 504 26.3701C501.791 26.3701 500 28.161 500 30.3701C500 32.5793 501.791 34.3701 504 34.3701Z" fill="white" stroke="#009189" stroke-width="2"/>
<path d="M622 23.5356C624.209 23.5356 626 21.7448 626 19.5356C626 17.3265 624.209 15.5356 622 15.5356C619.791 15.5356 618 17.3265 618 19.5356C618 21.7448 619.791 23.5356 622 23.5356Z" fill="white" stroke="#009189" stroke-width="2"/>
<path d="M32 70.1045C71.333 44.2085 110.667 18.3135 150 18.3135C189.333 18.3135 228.667 46.9495 268 46.9495C307.333 46.9495 346.667 30.8145 386 30.6365C425.333 30.4595 464.667 30.5485 504 30.3705C543.333 30.1925 582.667 24.8645 622 19.5365" stroke="#343741" stroke-width="2" stroke-dasharray="4 2 4 2 4 2 4 2"/>
<g filter="url(#filter0_d_6_2)">
<path d="M32 74.104C34.2091 74.104 36 72.3131 36 70.104C36 67.8949 34.2091 66.104 32 66.104C29.7909 66.104 28 67.8949 28 70.104C28 72.3131 29.7909 74.104 32 74.104Z" fill="white" stroke="#009189" stroke-width="2"/>
<path d="M32 74.104C34.2091 74.104 36 72.3131 36 70.104C36 67.8949 34.2091 66.104 32 66.104C29.7909 66.104 28 67.8949 28 70.104C28 72.3131 29.7909 74.104 32 74.104Z" fill="white" stroke="#343741" stroke-width="2" stroke-dasharray="4 2"/>
</g>
<path d="M150 22.313C152.209 22.313 154 20.5221 154 18.313C154 16.1039 152.209 14.313 150 14.313C147.791 14.313 146 16.1039 146 18.313C146 20.5221 147.791 22.313 150 22.313Z" fill="white" stroke="#343741" stroke-width="2" stroke-dasharray="4 2"/>
<path d="M268 50.9487C270.209 50.9487 272 49.1579 272 46.9487C272 44.7396 270.209 42.9487 268 42.9487C265.791 42.9487 264 44.7396 264 46.9487C264 49.1579 265.791 50.9487 268 50.9487Z" fill="white" stroke="#343741" stroke-width="2" stroke-dasharray="4 2"/>
<path d="M386 34.6367C388.209 34.6367 390 32.8459 390 30.6367C390 28.4276 388.209 26.6367 386 26.6367C383.791 26.6367 382 28.4276 382 30.6367C382 32.8459 383.791 34.6367 386 34.6367Z" fill="white" stroke="#343741" stroke-width="2" stroke-dasharray="4 2"/>
<path d="M504 34.3701C506.209 34.3701 508 32.5793 508 30.3701C508 28.161 506.209 26.3701 504 26.3701C501.791 26.3701 500 28.161 500 30.3701C500 32.5793 501.791 34.3701 504 34.3701Z" fill="white" stroke="#343741" stroke-width="2" stroke-dasharray="4 2"/>
<path d="M622 23.5356C624.209 23.5356 626 21.7448 626 19.5356C626 17.3265 624.209 15.5356 622 15.5356C619.791 15.5356 618 17.3265 618 19.5356C618 21.7448 619.791 23.5356 622 23.5356Z" fill="white" stroke="#343741" stroke-width="2" stroke-dasharray="4 2"/>
<defs>
<filter id="filter0_d_6_2" x="23" y="65.104" width="18" height="18" filterUnits="userSpaceOnUse" color-interpolation-filters="sRGB">
<feFlood flood-opacity="0" result="BackgroundImageFix"/>
<feColorMatrix in="SourceAlpha" type="matrix" values="0 0 0 0 0 0 0 0 0 0 0 0 0 0 0 0 0 0 127 0" result="hardAlpha"/>
<feOffset dy="4"/>
<feGaussianBlur stdDeviation="2"/>
<feComposite in2="hardAlpha" operator="out"/>
<feColorMatrix type="matrix" values="0 0 0 0 0 0 0 0 0 0 0 0 0 0 0 0 0 0 0.25 0"/>
<feBlend mode="normal" in2="BackgroundImageFix" result="effect1_dropShadow_6_2"/>
<feBlend mode="normal" in="SourceGraphic" in2="effect1_dropShadow_6_2" result="shape"/>
</filter>
</defs>
</svg>
