<svg width="14" height="14" viewBox="0 0 14 14" fill="none" xmlns="http://www.w3.org/2000/svg">
<path d="M6.41669 11.6666C5.3924 11.6697 4.40434 11.2878 3.6485 10.5965C2.89265 9.90515 2.42423 8.95503 2.33612 7.93452C2.24802 6.91402 2.54668 5.89767 3.17287 5.08706C3.79905 4.27645 4.70702 3.73078 5.7167 3.55829C9.04169 2.91663 9.91669 2.61329 11.0834 1.16663C11.6667 2.33329 12.25 3.60496 12.25 5.83329C12.25 9.04163 9.46169 11.6666 6.41669 11.6666Z" stroke="white" stroke-width="1.16667" stroke-linecap="round" stroke-linejoin="round"/>
<path d="M1.16669 12.25C1.16669 10.5 2.24585 9.12333 4.13002 8.75C5.54169 8.47 7.00002 7.58333 7.58335 7" stroke="white" stroke-width="1.16667" stroke-linecap="round" stroke-linejoin="round"/>
</svg>
