<svg width="21" height="24" viewBox="0 0 21 24" fill="none" xmlns="http://www.w3.org/2000/svg">
<path fill-rule="evenodd" clip-rule="evenodd" d="M21 19.1738C20.8612 20.296 20.7995 20.7821 20.2812 21.876L12.3232 23.5195C12.5062 22.3371 12.7501 21.425 13.1465 20.8779L21 19.1738ZM9.91504 11.4336L12.293 10.918V3.40332C13.179 2.40871 13.7235 1.96199 14.793 1.39746V10.376L21 9.02832C20.8612 10.1504 20.7995 10.6365 20.2812 11.7305L14.793 12.8906V15.415L21 14.1016C20.8612 15.2237 20.7995 15.7098 20.2812 16.8037L14.793 17.9365V17.9609L12.293 18.4775V13.4189L9.91504 13.9209V17.1094L9.875 17.1172C9.32802 18.0764 8.55496 19.2293 7.81055 20.1494L0 21.6357C0.0700434 20.6309 0.216468 20.065 0.670898 19.0527L7.41504 17.5898V14.4502L1.16406 15.7725C1.2341 14.7676 1.38053 14.2017 1.83496 13.1895L7.41504 11.9766V2.00586C8.30113 1.01119 8.84548 0.564576 9.91504 0V11.4336Z" fill="#009189"/>
</svg>
