<svg width="14" height="14" viewBox="0 0 14 14" fill="none" xmlns="http://www.w3.org/2000/svg">
<g clip-path="url(#clip0_2_3943)">
<path d="M0 6.99996H4.66667M4.66667 6.99996C4.66667 6.38112 4.9125 5.78763 5.35008 5.35004C5.78767 4.91246 6.38116 4.66663 7 4.66663C7.61884 4.66663 8.21233 4.91246 8.64992 5.35004C9.0875 5.78763 9.33333 6.38112 9.33333 6.99996M4.66667 6.99996C4.66667 7.6188 4.9125 8.21229 5.35008 8.64988C5.78767 9.08746 6.38116 9.33329 7 9.33329C7.61884 9.33329 8.21233 9.08746 8.64992 8.64988C9.0875 8.21229 9.33333 7.6188 9.33333 6.99996M9.33333 6.99996H14" stroke="#EF373E" stroke-width="1.75"/>
</g>
<defs>
<clipPath id="clip0_2_3943">
<rect width="14" height="14" fill="white"/>
</clipPath>
</defs>
</svg>
