<svg width="660" height="260" viewBox="0 0 660 260" fill="none" xmlns="http://www.w3.org/2000/svg">
<g clip-path="url(#clip0_9_83)">
<path d="M65 201H655" stroke="#F0F0F0" stroke-dasharray="3 3"/>
<path d="M65 152H655" stroke="#F0F0F0" stroke-dasharray="3 3"/>
<path d="M65 103H655" stroke="#F0F0F0" stroke-dasharray="3 3"/>
<path d="M65 54H655" stroke="#F0F0F0" stroke-dasharray="3 3"/>
<path d="M65 5H655" stroke="#F0F0F0" stroke-dasharray="3 3"/>
<path d="M65 5V201" stroke="#F0F0F0" stroke-dasharray="3 3"/>
<path d="M183 5V201" stroke="#F0F0F0" stroke-dasharray="3 3"/>
<path d="M301 5V201" stroke="#F0F0F0" stroke-dasharray="3 3"/>
<path d="M419 5V201" stroke="#F0F0F0" stroke-dasharray="3 3"/>
<path d="M537 5V201" stroke="#F0F0F0" stroke-dasharray="3 3"/>
<path d="M655 5V201" stroke="#F0F0F0" stroke-dasharray="3 3"/>
<path d="M65 201H655" stroke="#666666"/>
<path d="M65 207V201" stroke="#666666"/>
<path d="M52.293 216.81V216.107L54.9336 213.216C55.2435 212.878 55.4987 212.583 55.6992 212.333C55.8997 212.081 56.0482 211.844 56.1445 211.623C56.2435 211.399 56.293 211.164 56.293 210.919C56.293 210.638 56.2253 210.395 56.0898 210.189C55.957 209.983 55.7747 209.824 55.543 209.712C55.3112 209.6 55.0508 209.544 54.7617 209.544C54.4544 209.544 54.1862 209.608 53.957 209.736C53.7305 209.861 53.5547 210.037 53.4297 210.263C53.3073 210.49 53.2461 210.755 53.2461 211.06H52.3242C52.3242 210.591 52.4323 210.18 52.6484 209.826C52.8646 209.472 53.1589 209.195 53.5313 208.998C53.9063 208.8 54.3268 208.701 54.793 208.701C55.2617 208.701 55.6771 208.8 56.0391 208.998C56.401 209.195 56.6849 209.462 56.8906 209.798C57.0964 210.134 57.1992 210.508 57.1992 210.919C57.1992 211.214 57.1458 211.501 57.0391 211.783C56.9349 212.061 56.7526 212.373 56.4922 212.716C56.2344 213.057 55.8763 213.474 55.418 213.966L53.6211 215.888V215.951H57.3398V216.81H52.293ZM61.5625 216.919C60.974 216.919 60.4727 216.759 60.0586 216.439C59.6445 216.116 59.3281 215.649 59.1094 215.037C58.8906 214.422 58.7813 213.68 58.7813 212.81C58.7813 211.945 58.8906 211.207 59.1094 210.595C59.3307 209.981 59.6484 209.512 60.0625 209.189C60.4792 208.863 60.9792 208.701 61.5625 208.701C62.1458 208.701 62.6445 208.863 63.0586 209.189C63.4753 209.512 63.793 209.981 64.0117 210.595C64.2331 211.207 64.3438 211.945 64.3438 212.81C64.3438 213.68 64.2344 214.422 64.0156 215.037C63.7969 215.649 63.4805 216.116 63.0664 216.439C62.6523 216.759 62.151 216.919 61.5625 216.919ZM61.5625 216.06C62.1458 216.06 62.599 215.779 62.9219 215.216C63.2448 214.654 63.4063 213.852 63.4063 212.81C63.4063 212.117 63.332 211.528 63.1836 211.041C63.0378 210.554 62.8268 210.182 62.5508 209.927C62.2773 209.672 61.9479 209.544 61.5625 209.544C60.9844 209.544 60.5326 209.83 60.207 210.4C59.8815 210.968 59.7188 211.771 59.7188 212.81C59.7188 213.503 59.7917 214.091 59.9375 214.576C60.0833 215.06 60.293 215.429 60.5664 215.681C60.8424 215.934 61.1745 216.06 61.5625 216.06ZM65.8281 216.81V216.107L68.4687 213.216C68.7786 212.878 69.0339 212.583 69.2344 212.333C69.4349 212.081 69.5833 211.844 69.6797 211.623C69.7786 211.399 69.8281 211.164 69.8281 210.919C69.8281 210.638 69.7604 210.395 69.625 210.189C69.4922 209.983 69.3099 209.824 69.0781 209.712C68.8464 209.6 68.5859 209.544 68.2969 209.544C67.9896 209.544 67.7214 209.608 67.4922 209.736C67.2656 209.861 67.0898 210.037 66.9648 210.263C66.8424 210.49 66.7813 210.755 66.7813 211.06H65.8594C65.8594 210.591 65.9674 210.18 66.1836 209.826C66.3997 209.472 66.694 209.195 67.0664 208.998C67.4414 208.8 67.862 208.701 68.3281 208.701C68.7969 208.701 69.2122 208.8 69.5742 208.998C69.9362 209.195 70.2201 209.462 70.4258 209.798C70.6315 210.134 70.7344 210.508 70.7344 210.919C70.7344 211.214 70.681 211.501 70.5742 211.783C70.4701 212.061 70.2878 212.373 70.0273 212.716C69.7695 213.057 69.4115 213.474 68.9531 213.966L67.1563 215.888V215.951H70.875V216.81H65.8281ZM75.0977 216.919C74.5091 216.919 74.0078 216.759 73.5938 216.439C73.1797 216.116 72.8633 215.649 72.6445 215.037C72.4258 214.422 72.3164 213.68 72.3164 212.81C72.3164 211.945 72.4258 211.207 72.6445 210.595C72.8659 209.981 73.1836 209.512 73.5977 209.189C74.0143 208.863 74.5143 208.701 75.0977 208.701C75.681 208.701 76.1797 208.863 76.5938 209.189C77.0104 209.512 77.3281 209.981 77.5469 210.595C77.7682 211.207 77.8789 211.945 77.8789 212.81C77.8789 213.68 77.7695 214.422 77.5508 215.037C77.332 215.649 77.0156 216.116 76.6016 216.439C76.1875 216.759 75.6862 216.919 75.0977 216.919ZM75.0977 216.06C75.681 216.06 76.1341 215.779 76.457 215.216C76.7799 214.654 76.9414 213.852 76.9414 212.81C76.9414 212.117 76.8672 211.528 76.7188 211.041C76.5729 210.554 76.362 210.182 76.0859 209.927C75.8125 209.672 75.4831 209.544 75.0977 209.544C74.5195 209.544 74.0677 209.83 73.7422 210.4C73.4167 210.968 73.2539 211.771 73.2539 212.81C73.2539 213.503 73.3268 214.091 73.4727 214.576C73.6185 215.06 73.8281 215.429 74.1016 215.681C74.3776 215.934 74.7096 216.06 75.0977 216.06Z" fill="#666666"/>
<path d="M183 207V201" stroke="#666666"/>
<path d="M171.174 216.81V216.107L173.814 213.216C174.124 212.878 174.38 212.583 174.58 212.333C174.781 212.081 174.929 211.844 175.025 211.623C175.124 211.399 175.174 211.164 175.174 210.919C175.174 210.638 175.106 210.395 174.971 210.189C174.838 209.983 174.656 209.824 174.424 209.712C174.192 209.6 173.932 209.544 173.643 209.544C173.335 209.544 173.067 209.608 172.838 209.736C172.611 209.861 172.436 210.037 172.311 210.263C172.188 210.49 172.127 210.755 172.127 211.06H171.205C171.205 210.591 171.313 210.18 171.529 209.826C171.745 209.472 172.04 209.195 172.412 208.998C172.787 208.8 173.208 208.701 173.674 208.701C174.143 208.701 174.558 208.8 174.92 208.998C175.282 209.195 175.566 209.462 175.771 209.798C175.977 210.134 176.08 210.508 176.08 210.919C176.08 211.214 176.027 211.501 175.92 211.783C175.816 212.061 175.633 212.373 175.373 212.716C175.115 213.057 174.757 213.474 174.299 213.966L172.502 215.888V215.951H176.221V216.81H171.174ZM180.443 216.919C179.855 216.919 179.354 216.759 178.939 216.439C178.525 216.116 178.209 215.649 177.99 215.037C177.771 214.422 177.662 213.68 177.662 212.81C177.662 211.945 177.771 211.207 177.99 210.595C178.212 209.981 178.529 209.512 178.943 209.189C179.36 208.863 179.86 208.701 180.443 208.701C181.027 208.701 181.525 208.863 181.939 209.189C182.356 209.512 182.674 209.981 182.893 210.595C183.114 211.207 183.225 211.945 183.225 212.81C183.225 213.68 183.115 214.422 182.896 215.037C182.678 215.649 182.361 216.116 181.947 216.439C181.533 216.759 181.032 216.919 180.443 216.919ZM180.443 216.06C181.027 216.06 181.48 215.779 181.803 215.216C182.126 214.654 182.287 213.852 182.287 212.81C182.287 212.117 182.213 211.528 182.064 211.041C181.919 210.554 181.708 210.182 181.432 209.927C181.158 209.672 180.829 209.544 180.443 209.544C179.865 209.544 179.413 209.83 179.088 210.4C178.762 210.968 178.6 211.771 178.6 212.81C178.6 213.503 178.673 214.091 178.818 214.576C178.964 215.06 179.174 215.429 179.447 215.681C179.723 215.934 180.055 216.06 180.443 216.06ZM184.709 216.81V216.107L187.35 213.216C187.66 212.878 187.915 212.583 188.115 212.333C188.316 212.081 188.464 211.844 188.561 211.623C188.66 211.399 188.709 211.164 188.709 210.919C188.709 210.638 188.641 210.395 188.506 210.189C188.373 209.983 188.191 209.824 187.959 209.712C187.727 209.6 187.467 209.544 187.178 209.544C186.87 209.544 186.602 209.608 186.373 209.736C186.146 209.861 185.971 210.037 185.846 210.263C185.723 210.49 185.662 210.755 185.662 211.06H184.74C184.74 210.591 184.848 210.18 185.064 209.826C185.281 209.472 185.575 209.195 185.947 208.998C186.322 208.8 186.743 208.701 187.209 208.701C187.678 208.701 188.093 208.8 188.455 208.998C188.817 209.195 189.101 209.462 189.307 209.798C189.512 210.134 189.615 210.508 189.615 210.919C189.615 211.214 189.562 211.501 189.455 211.783C189.351 212.061 189.169 212.373 188.908 212.716C188.65 213.057 188.292 213.474 187.834 213.966L186.037 215.888V215.951H189.756V216.81H184.709ZM194.182 208.81V216.81H193.213V209.826H193.166L191.213 211.123V210.138L193.213 208.81H194.182Z" fill="#666666"/>
<path d="M301 207V201" stroke="#666666"/>
<path d="M288.4 216.81V216.107L291.041 213.216C291.351 212.878 291.606 212.583 291.807 212.333C292.007 212.081 292.156 211.844 292.252 211.623C292.351 211.399 292.4 211.164 292.4 210.919C292.4 210.638 292.333 210.395 292.197 210.189C292.064 209.983 291.882 209.824 291.65 209.712C291.419 209.6 291.158 209.544 290.869 209.544C290.562 209.544 290.294 209.608 290.064 209.736C289.838 209.861 289.662 210.037 289.537 210.263C289.415 210.49 289.354 210.755 289.354 211.06H288.432C288.432 210.591 288.54 210.18 288.756 209.826C288.972 209.472 289.266 209.195 289.639 208.998C290.014 208.8 290.434 208.701 290.9 208.701C291.369 208.701 291.785 208.8 292.146 208.998C292.508 209.195 292.792 209.462 292.998 209.798C293.204 210.134 293.307 210.508 293.307 210.919C293.307 211.214 293.253 211.501 293.146 211.783C293.042 212.061 292.86 212.373 292.6 212.716C292.342 213.057 291.984 213.474 291.525 213.966L289.729 215.888V215.951H293.447V216.81H288.4ZM297.67 216.919C297.081 216.919 296.58 216.759 296.166 216.439C295.752 216.116 295.436 215.649 295.217 215.037C294.998 214.422 294.889 213.68 294.889 212.81C294.889 211.945 294.998 211.207 295.217 210.595C295.438 209.981 295.756 209.512 296.17 209.189C296.587 208.863 297.087 208.701 297.67 208.701C298.253 208.701 298.752 208.863 299.166 209.189C299.583 209.512 299.9 209.981 300.119 210.595C300.34 211.207 300.451 211.945 300.451 212.81C300.451 213.68 300.342 214.422 300.123 215.037C299.904 215.649 299.588 216.116 299.174 216.439C298.76 216.759 298.258 216.919 297.67 216.919ZM297.67 216.06C298.253 216.06 298.706 215.779 299.029 215.216C299.352 214.654 299.514 213.852 299.514 212.81C299.514 212.117 299.439 211.528 299.291 211.041C299.145 210.554 298.934 210.182 298.658 209.927C298.385 209.672 298.055 209.544 297.67 209.544C297.092 209.544 296.64 209.83 296.314 210.4C295.989 210.968 295.826 211.771 295.826 212.81C295.826 213.503 295.899 214.091 296.045 214.576C296.191 215.06 296.4 215.429 296.674 215.681C296.95 215.934 297.282 216.06 297.67 216.06ZM301.936 216.81V216.107L304.576 213.216C304.886 212.878 305.141 212.583 305.342 212.333C305.542 212.081 305.691 211.844 305.787 211.623C305.886 211.399 305.936 211.164 305.936 210.919C305.936 210.638 305.868 210.395 305.732 210.189C305.6 209.983 305.417 209.824 305.186 209.712C304.954 209.6 304.693 209.544 304.404 209.544C304.097 209.544 303.829 209.608 303.6 209.736C303.373 209.861 303.197 210.037 303.072 210.263C302.95 210.49 302.889 210.755 302.889 211.06H301.967C301.967 210.591 302.075 210.18 302.291 209.826C302.507 209.472 302.801 209.195 303.174 208.998C303.549 208.8 303.969 208.701 304.436 208.701C304.904 208.701 305.32 208.8 305.682 208.998C306.044 209.195 306.327 209.462 306.533 209.798C306.739 210.134 306.842 210.508 306.842 210.919C306.842 211.214 306.788 211.501 306.682 211.783C306.577 212.061 306.395 212.373 306.135 212.716C305.877 213.057 305.519 213.474 305.061 213.966L303.264 215.888V215.951H306.982V216.81H301.936ZM308.596 216.81V216.107L311.236 213.216C311.546 212.878 311.801 212.583 312.002 212.333C312.202 212.081 312.351 211.844 312.447 211.623C312.546 211.399 312.596 211.164 312.596 210.919C312.596 210.638 312.528 210.395 312.393 210.189C312.26 209.983 312.077 209.824 311.846 209.712C311.614 209.6 311.354 209.544 311.064 209.544C310.757 209.544 310.489 209.608 310.26 209.736C310.033 209.861 309.857 210.037 309.732 210.263C309.61 210.49 309.549 210.755 309.549 211.06H308.627C308.627 210.591 308.735 210.18 308.951 209.826C309.167 209.472 309.462 209.195 309.834 208.998C310.209 208.8 310.63 208.701 311.096 208.701C311.564 208.701 311.98 208.8 312.342 208.998C312.704 209.195 312.988 209.462 313.193 209.798C313.399 210.134 313.502 210.508 313.502 210.919C313.502 211.214 313.449 211.501 313.342 211.783C313.238 212.061 313.055 212.373 312.795 212.716C312.537 213.057 312.179 213.474 311.721 213.966L309.924 215.888V215.951H313.643V216.81H308.596Z" fill="#666666"/>
<path d="M419 207V201" stroke="#666666"/>
<path d="M406.229 216.81V216.107L408.869 213.216C409.179 212.878 409.434 212.583 409.635 212.333C409.835 212.081 409.984 211.844 410.08 211.623C410.179 211.399 410.229 211.164 410.229 210.919C410.229 210.638 410.161 210.395 410.025 210.189C409.893 209.983 409.71 209.824 409.479 209.712C409.247 209.6 408.986 209.544 408.697 209.544C408.39 209.544 408.122 209.608 407.893 209.736C407.666 209.861 407.49 210.037 407.365 210.263C407.243 210.49 407.182 210.755 407.182 211.06H406.26C406.26 210.591 406.368 210.18 406.584 209.826C406.8 209.472 407.094 209.195 407.467 208.998C407.842 208.8 408.262 208.701 408.729 208.701C409.197 208.701 409.613 208.8 409.975 208.998C410.337 209.195 410.62 209.462 410.826 209.798C411.032 210.134 411.135 210.508 411.135 210.919C411.135 211.214 411.081 211.501 410.975 211.783C410.87 212.061 410.688 212.373 410.428 212.716C410.17 213.057 409.812 213.474 409.354 213.966L407.557 215.888V215.951H411.275V216.81H406.229ZM415.498 216.919C414.91 216.919 414.408 216.759 413.994 216.439C413.58 216.116 413.264 215.649 413.045 215.037C412.826 214.422 412.717 213.68 412.717 212.81C412.717 211.945 412.826 211.207 413.045 210.595C413.266 209.981 413.584 209.512 413.998 209.189C414.415 208.863 414.915 208.701 415.498 208.701C416.081 208.701 416.58 208.863 416.994 209.189C417.411 209.512 417.729 209.981 417.947 210.595C418.169 211.207 418.279 211.945 418.279 212.81C418.279 213.68 418.17 214.422 417.951 215.037C417.732 215.649 417.416 216.116 417.002 216.439C416.588 216.759 416.087 216.919 415.498 216.919ZM415.498 216.06C416.081 216.06 416.535 215.779 416.857 215.216C417.18 214.654 417.342 213.852 417.342 212.81C417.342 212.117 417.268 211.528 417.119 211.041C416.973 210.554 416.762 210.182 416.486 209.927C416.213 209.672 415.883 209.544 415.498 209.544C414.92 209.544 414.468 209.83 414.143 210.4C413.817 210.968 413.654 211.771 413.654 212.81C413.654 213.503 413.727 214.091 413.873 214.576C414.019 215.06 414.229 215.429 414.502 215.681C414.778 215.934 415.11 216.06 415.498 216.06ZM419.764 216.81V216.107L422.404 213.216C422.714 212.878 422.969 212.583 423.17 212.333C423.37 212.081 423.519 211.844 423.615 211.623C423.714 211.399 423.764 211.164 423.764 210.919C423.764 210.638 423.696 210.395 423.561 210.189C423.428 209.983 423.245 209.824 423.014 209.712C422.782 209.6 422.521 209.544 422.232 209.544C421.925 209.544 421.657 209.608 421.428 209.736C421.201 209.861 421.025 210.037 420.9 210.263C420.778 210.49 420.717 210.755 420.717 211.06H419.795C419.795 210.591 419.903 210.18 420.119 209.826C420.335 209.472 420.63 209.195 421.002 208.998C421.377 208.8 421.798 208.701 422.264 208.701C422.732 208.701 423.148 208.8 423.51 208.998C423.872 209.195 424.156 209.462 424.361 209.798C424.567 210.134 424.67 210.508 424.67 210.919C424.67 211.214 424.617 211.501 424.51 211.783C424.406 212.061 424.223 212.373 423.963 212.716C423.705 213.057 423.347 213.474 422.889 213.966L421.092 215.888V215.951H424.811V216.81H419.764ZM429.127 216.919C428.611 216.919 428.152 216.831 427.748 216.654C427.347 216.477 427.028 216.231 426.791 215.916C426.557 215.598 426.429 215.229 426.408 214.81H427.393C427.413 215.068 427.502 215.291 427.658 215.478C427.814 215.663 428.019 215.806 428.271 215.908C428.524 216.009 428.804 216.06 429.111 216.06C429.455 216.06 429.76 216 430.025 215.88C430.291 215.761 430.499 215.594 430.65 215.38C430.801 215.167 430.877 214.919 430.877 214.638C430.877 214.344 430.804 214.085 430.658 213.861C430.512 213.634 430.299 213.457 430.018 213.33C429.736 213.202 429.393 213.138 428.986 213.138H428.346V212.279H428.986C429.304 212.279 429.583 212.222 429.822 212.107C430.064 211.992 430.253 211.831 430.389 211.623C430.527 211.414 430.596 211.169 430.596 210.888C430.596 210.617 430.536 210.382 430.416 210.181C430.296 209.981 430.127 209.824 429.908 209.712C429.692 209.6 429.437 209.544 429.143 209.544C428.867 209.544 428.606 209.595 428.361 209.697C428.119 209.796 427.921 209.94 427.768 210.13C427.614 210.318 427.531 210.544 427.518 210.81H426.58C426.596 210.391 426.722 210.024 426.959 209.708C427.196 209.391 427.506 209.143 427.889 208.966C428.274 208.789 428.697 208.701 429.158 208.701C429.653 208.701 430.077 208.801 430.432 209.001C430.786 209.199 431.058 209.461 431.248 209.787C431.438 210.112 431.533 210.464 431.533 210.841C431.533 211.292 431.415 211.676 431.178 211.994C430.943 212.311 430.624 212.531 430.221 212.654V212.716C430.726 212.8 431.12 213.014 431.404 213.361C431.688 213.705 431.83 214.13 431.83 214.638C431.83 215.073 431.712 215.464 431.475 215.81C431.24 216.154 430.92 216.425 430.514 216.623C430.107 216.82 429.645 216.919 429.127 216.919Z" fill="#666666"/>
<path d="M537 207V201" stroke="#666666"/>
<path d="M524.288 216.81V216.107L526.928 213.216C527.238 212.878 527.493 212.583 527.694 212.333C527.894 212.081 528.043 211.844 528.139 211.623C528.238 211.399 528.288 211.164 528.288 210.919C528.288 210.638 528.22 210.395 528.084 210.189C527.952 209.983 527.769 209.824 527.538 209.712C527.306 209.6 527.045 209.544 526.756 209.544C526.449 209.544 526.181 209.608 525.952 209.736C525.725 209.861 525.549 210.037 525.424 210.263C525.302 210.49 525.241 210.755 525.241 211.06H524.319C524.319 210.591 524.427 210.18 524.643 209.826C524.859 209.472 525.153 209.195 525.526 208.998C525.901 208.8 526.321 208.701 526.788 208.701C527.256 208.701 527.672 208.8 528.034 208.998C528.396 209.195 528.68 209.462 528.885 209.798C529.091 210.134 529.194 210.508 529.194 210.919C529.194 211.214 529.14 211.501 529.034 211.783C528.93 212.061 528.747 212.373 528.487 212.716C528.229 213.057 527.871 213.474 527.413 213.966L525.616 215.888V215.951H529.334V216.81H524.288ZM533.557 216.919C532.969 216.919 532.467 216.759 532.053 216.439C531.639 216.116 531.323 215.649 531.104 215.037C530.885 214.422 530.776 213.68 530.776 212.81C530.776 211.945 530.885 211.207 531.104 210.595C531.325 209.981 531.643 209.512 532.057 209.189C532.474 208.863 532.974 208.701 533.557 208.701C534.14 208.701 534.639 208.863 535.053 209.189C535.47 209.512 535.788 209.981 536.006 210.595C536.228 211.207 536.338 211.945 536.338 212.81C536.338 213.68 536.229 214.422 536.01 215.037C535.792 215.649 535.475 216.116 535.061 216.439C534.647 216.759 534.146 216.919 533.557 216.919ZM533.557 216.06C534.14 216.06 534.594 215.779 534.917 215.216C535.239 214.654 535.401 213.852 535.401 212.81C535.401 212.117 535.327 211.528 535.178 211.041C535.032 210.554 534.821 210.182 534.545 209.927C534.272 209.672 533.943 209.544 533.557 209.544C532.979 209.544 532.527 209.83 532.202 210.4C531.876 210.968 531.713 211.771 531.713 212.81C531.713 213.503 531.786 214.091 531.932 214.576C532.078 215.06 532.288 215.429 532.561 215.681C532.837 215.934 533.169 216.06 533.557 216.06ZM537.823 216.81V216.107L540.463 213.216C540.773 212.878 541.028 212.583 541.229 212.333C541.43 212.081 541.578 211.844 541.674 211.623C541.773 211.399 541.823 211.164 541.823 210.919C541.823 210.638 541.755 210.395 541.62 210.189C541.487 209.983 541.305 209.824 541.073 209.712C540.841 209.6 540.581 209.544 540.292 209.544C539.984 209.544 539.716 209.608 539.487 209.736C539.26 209.861 539.084 210.037 538.959 210.263C538.837 210.49 538.776 210.755 538.776 211.06H537.854C537.854 210.591 537.962 210.18 538.178 209.826C538.394 209.472 538.689 209.195 539.061 208.998C539.436 208.8 539.857 208.701 540.323 208.701C540.792 208.701 541.207 208.8 541.569 208.998C541.931 209.195 542.215 209.462 542.42 209.798C542.626 210.134 542.729 210.508 542.729 210.919C542.729 211.214 542.676 211.501 542.569 211.783C542.465 212.061 542.282 212.373 542.022 212.716C541.764 213.057 541.406 213.474 540.948 213.966L539.151 215.888V215.951H542.87V216.81H537.823ZM544.124 215.169V214.373L547.639 208.81H548.217V210.044H547.827L545.17 214.248V214.31H549.905V215.169H544.124ZM547.889 216.81V214.927V214.556V208.81H548.811V216.81H547.889Z" fill="#666666"/>
<path d="M655 207V201" stroke="#666666"/>
<path d="M634.392 216.81V216.107L637.033 213.216C637.343 212.878 637.598 212.583 637.798 212.333C637.999 212.081 638.147 211.844 638.244 211.623C638.343 211.399 638.392 211.164 638.392 210.919C638.392 210.638 638.324 210.395 638.189 210.189C638.056 209.983 637.874 209.824 637.642 209.712C637.41 209.6 637.15 209.544 636.861 209.544C636.554 209.544 636.285 209.608 636.056 209.736C635.83 209.861 635.654 210.037 635.529 210.263C635.406 210.49 635.345 210.755 635.345 211.06H634.423C634.423 210.591 634.531 210.18 634.748 209.826C634.964 209.472 635.258 209.195 635.63 208.998C636.005 208.8 636.426 208.701 636.892 208.701C637.361 208.701 637.776 208.8 638.138 208.998C638.5 209.195 638.784 209.462 638.99 209.798C639.195 210.134 639.298 210.508 639.298 210.919C639.298 211.214 639.245 211.501 639.138 211.783C639.034 212.061 638.852 212.373 638.591 212.716C638.333 213.057 637.975 213.474 637.517 213.966L635.72 215.888V215.951H639.439V216.81H634.392ZM643.662 216.919C643.073 216.919 642.572 216.759 642.158 216.439C641.744 216.116 641.427 215.649 641.208 215.037C640.99 214.422 640.88 213.68 640.88 212.81C640.88 211.945 640.99 211.207 641.208 210.595C641.43 209.981 641.748 209.512 642.162 209.189C642.578 208.863 643.078 208.701 643.662 208.701C644.245 208.701 644.744 208.863 645.158 209.189C645.574 209.512 645.892 209.981 646.111 210.595C646.332 211.207 646.443 211.945 646.443 212.81C646.443 213.68 646.333 214.422 646.115 215.037C645.896 215.649 645.58 216.116 645.166 216.439C644.751 216.759 644.25 216.919 643.662 216.919ZM643.662 216.06C644.245 216.06 644.698 215.779 645.021 215.216C645.344 214.654 645.505 213.852 645.505 212.81C645.505 212.117 645.431 211.528 645.283 211.041C645.137 210.554 644.926 210.182 644.65 209.927C644.376 209.672 644.047 209.544 643.662 209.544C643.083 209.544 642.632 209.83 642.306 210.4C641.981 210.968 641.818 211.771 641.818 212.81C641.818 213.503 641.891 214.091 642.037 214.576C642.182 215.06 642.392 215.429 642.666 215.681C642.942 215.934 643.274 216.06 643.662 216.06ZM647.927 216.81V216.107L650.568 213.216C650.878 212.878 651.133 212.583 651.333 212.333C651.534 212.081 651.682 211.844 651.779 211.623C651.878 211.399 651.927 211.164 651.927 210.919C651.927 210.638 651.86 210.395 651.724 210.189C651.591 209.983 651.409 209.824 651.177 209.712C650.945 209.6 650.685 209.544 650.396 209.544C650.089 209.544 649.82 209.608 649.591 209.736C649.365 209.861 649.189 210.037 649.064 210.263C648.942 210.49 648.88 210.755 648.88 211.06H647.958C647.958 210.591 648.067 210.18 648.283 209.826C648.499 209.472 648.793 209.195 649.166 208.998C649.541 208.8 649.961 208.701 650.427 208.701C650.896 208.701 651.311 208.8 651.673 208.998C652.035 209.195 652.319 209.462 652.525 209.798C652.731 210.134 652.833 210.508 652.833 210.919C652.833 211.214 652.78 211.501 652.673 211.783C652.569 212.061 652.387 212.373 652.126 212.716C651.869 213.057 651.511 213.474 651.052 213.966L649.255 215.888V215.951H652.974V216.81H647.927ZM657.087 216.919C656.629 216.919 656.216 216.828 655.849 216.646C655.482 216.464 655.188 216.214 654.966 215.896C654.745 215.578 654.624 215.216 654.603 214.81H655.541C655.577 215.172 655.741 215.472 656.033 215.708C656.327 215.943 656.679 216.06 657.087 216.06C657.416 216.06 657.707 215.983 657.962 215.83C658.22 215.676 658.422 215.465 658.568 215.197C658.716 214.926 658.791 214.62 658.791 214.279C658.791 213.93 658.714 213.619 658.56 213.345C658.409 213.069 658.201 212.852 657.935 212.693C657.669 212.534 657.366 212.453 657.025 212.451C656.78 212.448 656.529 212.486 656.271 212.564C656.013 212.639 655.801 212.737 655.634 212.857L654.728 212.748L655.212 208.81H659.369V209.669H656.025L655.744 212.029H655.791C655.955 211.899 656.16 211.791 656.408 211.705C656.655 211.619 656.913 211.576 657.181 211.576C657.671 211.576 658.107 211.693 658.49 211.927C658.875 212.159 659.177 212.477 659.396 212.88C659.617 213.284 659.728 213.745 659.728 214.263C659.728 214.774 659.613 215.229 659.384 215.63C659.158 216.029 658.845 216.344 658.447 216.576C658.048 216.805 657.595 216.919 657.087 216.919Z" fill="#666666"/>
<path d="M65 5V201" stroke="#666666"/>
<path d="M59 201H65" stroke="#666666"/>
<path d="M48.4355 204.649C47.9005 204.649 47.4448 204.504 47.0684 204.212C46.6919 203.919 46.4043 203.494 46.2054 202.938C46.0066 202.379 45.9071 201.704 45.9071 200.913C45.9071 200.127 46.0066 199.456 46.2054 198.9C46.4067 198.341 46.6955 197.915 47.0719 197.622C47.4507 197.326 47.9052 197.178 48.4355 197.178C48.9658 197.178 49.4192 197.326 49.7956 197.622C50.1744 197.915 50.4632 198.341 50.6621 198.9C50.8633 199.456 50.964 200.127 50.964 200.913C50.964 201.704 50.8645 202.379 50.6657 202.938C50.4668 203.494 50.1792 203.919 49.8027 204.212C49.4263 204.504 48.9706 204.649 48.4355 204.649ZM48.4355 203.868C48.9658 203.868 49.3778 203.612 49.6713 203.101C49.9649 202.59 50.1117 201.86 50.1117 200.913C50.1117 200.284 50.0442 199.747 49.9093 199.305C49.7767 198.862 49.5849 198.525 49.334 198.293C49.0854 198.061 48.7859 197.945 48.4355 197.945C47.91 197.945 47.4992 198.204 47.2033 198.722C46.9074 199.238 46.7594 199.969 46.7594 200.913C46.7594 201.543 46.8257 202.078 46.9583 202.519C47.0908 202.959 47.2814 203.294 47.53 203.524C47.781 203.753 48.0828 203.868 48.4355 203.868ZM53.1088 202.561L53.0946 201.524H53.2651L55.6515 199.095H56.6884L54.1458 201.666H54.0748L53.1088 202.561ZM52.3276 204.55V197.277H53.1657V204.55H52.3276ZM55.7935 204.55L53.6628 201.851L54.2594 201.269L56.8588 204.55H55.7935Z" fill="#666666"/>
<path d="M59 152H65" stroke="#666666"/>
<path d="M37.8878 148.277V155.55H37.0071V149.2H36.9645L35.1889 150.379V149.484L37.0071 148.277H37.8878ZM42.2521 155.649C41.8355 155.649 41.4602 155.566 41.1264 155.401C40.7926 155.235 40.5251 155.008 40.3239 154.719C40.1226 154.43 40.0125 154.101 39.9936 153.732H40.8459C40.879 154.061 41.0282 154.333 41.2933 154.548C41.5608 154.761 41.8804 154.868 42.2521 154.868C42.5504 154.868 42.8156 154.798 43.0476 154.658C43.282 154.519 43.4654 154.327 43.598 154.083C43.733 153.837 43.8004 153.559 43.8004 153.249C43.8004 152.931 43.7306 152.649 43.5909 152.4C43.4536 152.149 43.2642 151.951 43.0227 151.807C42.7813 151.662 42.5054 151.589 42.1953 151.587C41.9728 151.584 41.7443 151.619 41.5099 151.69C41.2756 151.758 41.0826 151.847 40.9311 151.956L40.1072 151.857L40.5476 148.277H44.326V149.058H41.2862L41.0305 151.203H41.0732C41.2223 151.085 41.4093 150.987 41.6342 150.908C41.8591 150.83 42.0935 150.791 42.3374 150.791C42.7824 150.791 43.179 150.898 43.527 151.111C43.8774 151.322 44.152 151.61 44.3509 151.977C44.5521 152.344 44.6527 152.763 44.6527 153.234C44.6527 153.698 44.5485 154.113 44.3402 154.477C44.1342 154.84 43.8501 155.126 43.4879 155.337C43.1257 155.545 42.7138 155.649 42.2521 155.649ZM48.4355 155.649C47.9005 155.649 47.4448 155.504 47.0684 155.212C46.6919 154.919 46.4043 154.494 46.2054 153.938C46.0066 153.379 45.9071 152.704 45.9071 151.913C45.9071 151.127 46.0066 150.456 46.2054 149.9C46.4067 149.341 46.6955 148.915 47.0719 148.622C47.4507 148.326 47.9052 148.178 48.4355 148.178C48.9658 148.178 49.4192 148.326 49.7956 148.622C50.1744 148.915 50.4632 149.341 50.6621 149.9C50.8633 150.456 50.964 151.127 50.964 151.913C50.964 152.704 50.8645 153.379 50.6657 153.938C50.4668 154.494 50.1792 154.919 49.8027 155.212C49.4263 155.504 48.9706 155.649 48.4355 155.649ZM48.4355 154.868C48.9658 154.868 49.3778 154.612 49.6713 154.101C49.9649 153.59 50.1117 152.86 50.1117 151.913C50.1117 151.284 50.0442 150.747 49.9093 150.305C49.7767 149.862 49.5849 149.525 49.334 149.293C49.0854 149.061 48.7859 148.945 48.4355 148.945C47.91 148.945 47.4992 149.204 47.2033 149.722C46.9074 150.238 46.7594 150.969 46.7594 151.913C46.7594 152.543 46.8257 153.078 46.9583 153.519C47.0908 153.959 47.2814 154.294 47.53 154.524C47.781 154.753 48.0828 154.868 48.4355 154.868ZM53.1088 153.561L53.0946 152.524H53.2651L55.6515 150.095H56.6884L54.1458 152.666H54.0748L53.1088 153.561ZM52.3276 155.55V148.277H53.1657V155.55H52.3276ZM55.7935 155.55L53.6628 152.851L54.2594 152.269L56.8588 155.55H55.7935Z" fill="#666666"/>
<path d="M59 103H65" stroke="#666666"/>
<path d="M35.9036 106.649C35.4348 106.649 35.017 106.569 34.65 106.408C34.2855 106.247 33.9954 106.023 33.78 105.737C33.5669 105.448 33.4509 105.113 33.432 104.732H34.3269C34.3458 104.966 34.4263 105.168 34.5684 105.339C34.7104 105.507 34.8962 105.637 35.1259 105.729C35.3555 105.822 35.61 105.868 35.8894 105.868C36.2019 105.868 36.4789 105.814 36.7203 105.705C36.9618 105.596 37.1512 105.444 37.2885 105.25C37.4258 105.056 37.4945 104.831 37.4945 104.575C37.4945 104.308 37.4282 104.072 37.2956 103.869C37.1631 103.663 36.9689 103.502 36.7132 103.386C36.4576 103.27 36.1451 103.212 35.7757 103.212H35.1934V102.43H35.7757C36.0646 102.43 36.3179 102.378 36.5357 102.274C36.7559 102.17 36.9275 102.023 37.0506 101.834C37.1761 101.645 37.2388 101.422 37.2388 101.166C37.2388 100.92 37.1844 100.706 37.0755 100.524C36.9666 100.341 36.8127 100.199 36.6138 100.097C36.4173 99.9956 36.1853 99.9447 35.9178 99.9447C35.6668 99.9447 35.4301 99.9909 35.2076 100.083C34.9874 100.173 34.8075 100.305 34.6678 100.477C34.5281 100.648 34.4524 100.854 34.4405 101.095H33.5882C33.6025 100.714 33.7173 100.38 33.9327 100.094C34.1481 99.805 34.4299 99.5801 34.7779 99.4191C35.1283 99.2581 35.513 99.1776 35.932 99.1776C36.3818 99.1776 36.7677 99.2688 37.0897 99.4511C37.4116 99.631 37.659 99.8689 37.8319 100.165C38.0047 100.461 38.0911 100.78 38.0911 101.124C38.0911 101.533 37.9834 101.882 37.7679 102.171C37.5549 102.46 37.2649 102.66 36.8979 102.771V102.828C37.3572 102.904 37.7158 103.099 37.9739 103.414C38.2319 103.727 38.361 104.114 38.361 104.575C38.361 104.971 38.2533 105.326 38.0378 105.641C37.8248 105.953 37.5336 106.199 37.1642 106.379C36.7949 106.559 36.3747 106.649 35.9036 106.649ZM42.1855 106.649C41.6505 106.649 41.1948 106.504 40.8184 106.212C40.4419 105.919 40.1543 105.494 39.9554 104.938C39.7566 104.379 39.6571 103.704 39.6571 102.913C39.6571 102.127 39.7566 101.456 39.9554 100.9C40.1567 100.341 40.4455 99.9151 40.8219 99.6215C41.2007 99.3256 41.6552 99.1776 42.1855 99.1776C42.7158 99.1776 43.1692 99.3256 43.5456 99.6215C43.9244 99.9151 44.2132 100.341 44.4121 100.9C44.6133 101.456 44.714 102.127 44.714 102.913C44.714 103.704 44.6145 104.379 44.4157 104.938C44.2168 105.494 43.9292 105.919 43.5527 106.212C43.1763 106.504 42.7206 106.649 42.1855 106.649ZM42.1855 105.868C42.7158 105.868 43.1278 105.612 43.4213 105.101C43.7149 104.59 43.8617 103.86 43.8617 102.913C43.8617 102.284 43.7942 101.747 43.6593 101.305C43.5267 100.862 43.3349 100.525 43.084 100.293C42.8354 100.061 42.5359 99.9447 42.1855 99.9447C41.66 99.9447 41.2492 100.204 40.9533 100.722C40.6574 101.238 40.5094 101.969 40.5094 102.913C40.5094 103.543 40.5757 104.078 40.7083 104.519C40.8408 104.959 41.0314 105.294 41.28 105.524C41.531 105.753 41.8328 105.868 42.1855 105.868ZM48.4355 106.649C47.9005 106.649 47.4448 106.504 47.0684 106.212C46.6919 105.919 46.4043 105.494 46.2054 104.938C46.0066 104.379 45.9071 103.704 45.9071 102.913C45.9071 102.127 46.0066 101.456 46.2054 100.9C46.4067 100.341 46.6955 99.9151 47.0719 99.6215C47.4507 99.3256 47.9052 99.1776 48.4355 99.1776C48.9658 99.1776 49.4192 99.3256 49.7956 99.6215C50.1744 99.9151 50.4632 100.341 50.6621 100.9C50.8633 101.456 50.964 102.127 50.964 102.913C50.964 103.704 50.8645 104.379 50.6657 104.938C50.4668 105.494 50.1792 105.919 49.8027 106.212C49.4263 106.504 48.9706 106.649 48.4355 106.649ZM48.4355 105.868C48.9658 105.868 49.3778 105.612 49.6713 105.101C49.9649 104.59 50.1117 103.86 50.1117 102.913C50.1117 102.284 50.0442 101.747 49.9093 101.305C49.7767 100.862 49.5849 100.525 49.334 100.293C49.0854 100.061 48.7859 99.9447 48.4355 99.9447C47.91 99.9447 47.4992 100.204 47.2033 100.722C46.9074 101.238 46.7594 101.969 46.7594 102.913C46.7594 103.543 46.8257 104.078 46.9583 104.519C47.0908 104.959 47.2814 105.294 47.53 105.524C47.781 105.753 48.0828 105.868 48.4355 105.868ZM53.1088 104.561L53.0946 103.524H53.2651L55.6515 101.095H56.6884L54.1458 103.666H54.0748L53.1088 104.561ZM52.3276 106.55V99.2771H53.1657V106.55H52.3276ZM55.7935 106.55L53.6628 103.851L54.2594 103.269L56.8588 106.55H55.7935Z" fill="#666666"/>
<path d="M59 54H65" stroke="#666666"/>
<path d="M33.3929 56.0583V55.3339L36.589 50.2771H37.1145V51.3992H36.7594L34.3446 55.2203V55.2771H38.6486V56.0583H33.3929ZM36.8162 57.5498V55.8382V55.5008V50.2771H37.6543V57.5498H36.8162ZM42.2521 57.6492C41.8355 57.6492 41.4602 57.5664 41.1264 57.4007C40.7926 57.2349 40.5251 57.0077 40.3239 56.7188C40.1226 56.43 40.0125 56.1009 39.9936 55.7316H40.8459C40.879 56.0607 41.0282 56.3329 41.2933 56.5484C41.5608 56.7615 41.8804 56.868 42.2521 56.868C42.5504 56.868 42.8156 56.7981 43.0476 56.6585C43.282 56.5188 43.4654 56.327 43.598 56.0832C43.733 55.837 43.8004 55.5588 43.8004 55.2487C43.8004 54.9314 43.7306 54.6485 43.5909 54.3999C43.4536 54.149 43.2642 53.9513 43.0227 53.8069C42.7813 53.6625 42.5054 53.5891 42.1953 53.5867C41.9728 53.5844 41.7443 53.6187 41.5099 53.6897C41.2756 53.7584 41.0826 53.8472 40.9311 53.9561L40.1072 53.8566L40.5476 50.2771H44.326V51.0583H41.2862L41.0305 53.2032H41.0732C41.2223 53.0848 41.4093 52.9866 41.6342 52.9085C41.8591 52.8303 42.0935 52.7913 42.3374 52.7913C42.7824 52.7913 43.179 52.8978 43.527 53.1109C43.8774 53.3216 44.152 53.6104 44.3509 53.9774C44.5521 54.3443 44.6527 54.7633 44.6527 55.2345C44.6527 55.6985 44.5485 56.1128 44.3402 56.4774C44.1342 56.8396 43.8501 57.126 43.4879 57.3367C43.1257 57.5451 42.7138 57.6492 42.2521 57.6492ZM48.4355 57.6492C47.9005 57.6492 47.4448 57.5036 47.0684 57.2124C46.6919 56.9189 46.4043 56.4939 46.2054 55.9376C46.0066 55.3789 45.9071 54.7042 45.9071 53.9134C45.9071 53.1275 46.0066 52.4563 46.2054 51.8999C46.4067 51.3412 46.6955 50.9151 47.0719 50.6215C47.4507 50.3256 47.9052 50.1776 48.4355 50.1776C48.9658 50.1776 49.4192 50.3256 49.7956 50.6215C50.1744 50.9151 50.4632 51.3412 50.6621 51.8999C50.8633 52.4563 50.964 53.1275 50.964 53.9134C50.964 54.7042 50.8645 55.3789 50.6657 55.9376C50.4668 56.4939 50.1792 56.9189 49.8027 57.2124C49.4263 57.5036 48.9706 57.6492 48.4355 57.6492ZM48.4355 56.868C48.9658 56.868 49.3778 56.6123 49.6713 56.1009C49.9649 55.5896 50.1117 54.8604 50.1117 53.9134C50.1117 53.2837 50.0442 52.7475 49.9093 52.3048C49.7767 51.8621 49.5849 51.5247 49.334 51.2927C49.0854 51.0607 48.7859 50.9447 48.4355 50.9447C47.91 50.9447 47.4992 51.2039 47.2033 51.7224C46.9074 52.2385 46.7594 52.9688 46.7594 53.9134C46.7594 54.5432 46.8257 55.0782 46.9583 55.5186C47.0908 55.9589 47.2814 56.2939 47.53 56.5235C47.781 56.7532 48.0828 56.868 48.4355 56.868ZM53.1088 55.5612L53.0946 54.5242H53.2651L55.6515 52.0953H56.6884L54.1458 54.6663H54.0748L53.1088 55.5612ZM52.3276 57.5498V50.2771H53.1657V57.5498H52.3276ZM55.7935 57.5498L53.6628 54.8509L54.2594 54.2686L56.8588 57.5498H55.7935Z" fill="#666666"/>
<path d="M59 5H65" stroke="#666666"/>
<path d="M35.9879 11.1492C35.6896 11.1445 35.3913 11.0877 35.093 10.9788C34.7947 10.8699 34.5225 10.6864 34.2763 10.4284C34.0301 10.1679 33.8324 9.81638 33.6832 9.37367C33.5341 8.92859 33.4595 8.36988 33.4595 7.69753C33.4595 7.05359 33.5199 6.48304 33.6406 5.98588C33.7614 5.48636 33.9366 5.06614 34.1662 4.72523C34.3958 4.38195 34.6728 4.12154 34.9972 3.94398C35.3239 3.76642 35.692 3.67765 36.1016 3.67765C36.5088 3.67765 36.871 3.75932 37.1882 3.92267C37.5078 4.08366 37.7682 4.30856 37.9695 4.59739C38.1707 4.88622 38.3009 5.21884 38.3601 5.59526H37.4936C37.4131 5.26855 37.2569 4.99748 37.0249 4.78205C36.7929 4.56661 36.4851 4.4589 36.1016 4.4589C35.5381 4.4589 35.0942 4.70392 34.7699 5.19398C34.4479 5.68404 34.2857 6.37177 34.2834 7.25719H34.3402C34.4728 7.05596 34.6302 6.88432 34.8125 6.74228C34.9972 6.59786 35.2008 6.48659 35.4233 6.40847C35.6458 6.33034 35.8814 6.29128 36.13 6.29128C36.5466 6.29128 36.9278 6.39545 37.2734 6.60378C37.6191 6.80975 37.8961 7.09502 38.1044 7.45961C38.3127 7.82182 38.4169 8.2373 38.4169 8.70605C38.4169 9.15587 38.3163 9.5678 38.1151 9.94185C37.9138 10.3135 37.6309 10.6095 37.2663 10.8296C36.9041 11.0474 36.478 11.154 35.9879 11.1492ZM35.9879 10.368C36.2862 10.368 36.5537 10.2934 36.7905 10.1443C37.0296 9.99512 37.2178 9.79507 37.3551 9.54412C37.4948 9.29318 37.5646 9.01382 37.5646 8.70605C37.5646 8.40539 37.4972 8.13195 37.3622 7.88574C37.2296 7.63716 37.0462 7.43948 36.8118 7.2927C36.5798 7.14592 36.3146 7.07253 36.0163 7.07253C35.7914 7.07253 35.5819 7.11751 35.3878 7.20748C35.1937 7.29507 35.0232 7.41581 34.8764 7.56969C34.732 7.72357 34.6184 7.89995 34.5355 8.09881C34.4527 8.29531 34.4112 8.50246 34.4112 8.72026C34.4112 9.00908 34.4787 9.27897 34.6136 9.52992C34.7509 9.78087 34.938 9.98328 35.1747 10.1372C35.4138 10.291 35.6849 10.368 35.9879 10.368ZM42.1855 11.1492C41.6505 11.1492 41.1948 11.0036 40.8184 10.7124C40.4419 10.4189 40.1543 9.99393 39.9554 9.43759C39.7566 8.87888 39.6571 8.20416 39.6571 7.41344C39.6571 6.62746 39.7566 5.95629 39.9554 5.39995C40.1567 4.84123 40.4455 4.4151 40.8219 4.12154C41.2007 3.82561 41.6552 3.67765 42.1855 3.67765C42.7158 3.67765 43.1692 3.82561 43.5456 4.12154C43.9244 4.4151 44.2132 4.84123 44.4121 5.39995C44.6133 5.95629 44.714 6.62746 44.714 7.41344C44.714 8.20416 44.6145 8.87888 44.4157 9.43759C44.2168 9.99393 43.9292 10.4189 43.5527 10.7124C43.1763 11.0036 42.7206 11.1492 42.1855 11.1492ZM42.1855 10.368C42.7158 10.368 43.1278 10.1123 43.4213 9.60094C43.7149 9.08958 43.8617 8.36041 43.8617 7.41344C43.8617 6.78371 43.7942 6.24748 43.6593 5.80478C43.5267 5.36207 43.3349 5.02471 43.084 4.7927C42.8354 4.56069 42.5359 4.44469 42.1855 4.44469C41.66 4.44469 41.2492 4.70392 40.9533 5.22239C40.6574 5.73849 40.5094 6.46884 40.5094 7.41344C40.5094 8.04318 40.5757 8.57821 40.7083 9.01855C40.8408 9.4589 41.0314 9.79389 41.28 10.0235C41.531 10.2532 41.8328 10.368 42.1855 10.368ZM48.4355 11.1492C47.9005 11.1492 47.4448 11.0036 47.0684 10.7124C46.6919 10.4189 46.4043 9.99393 46.2054 9.43759C46.0066 8.87888 45.9071 8.20416 45.9071 7.41344C45.9071 6.62746 46.0066 5.95629 46.2054 5.39995C46.4067 4.84123 46.6955 4.4151 47.0719 4.12154C47.4507 3.82561 47.9052 3.67765 48.4355 3.67765C48.9658 3.67765 49.4192 3.82561 49.7956 4.12154C50.1744 4.4151 50.4632 4.84123 50.6621 5.39995C50.8633 5.95629 50.964 6.62746 50.964 7.41344C50.964 8.20416 50.8645 8.87888 50.6657 9.43759C50.4668 9.99393 50.1792 10.4189 49.8027 10.7124C49.4263 11.0036 48.9706 11.1492 48.4355 11.1492ZM48.4355 10.368C48.9658 10.368 49.3778 10.1123 49.6713 9.60094C49.9649 9.08958 50.1117 8.36041 50.1117 7.41344C50.1117 6.78371 50.0442 6.24748 49.9093 5.80478C49.7767 5.36207 49.5849 5.02471 49.334 4.7927C49.0854 4.56069 48.7859 4.44469 48.4355 4.44469C47.91 4.44469 47.4992 4.70392 47.2033 5.22239C46.9074 5.73849 46.7594 6.46884 46.7594 7.41344C46.7594 8.04318 46.8257 8.57821 46.9583 9.01855C47.0908 9.4589 47.2814 9.79389 47.53 10.0235C47.781 10.2532 48.0828 10.368 48.4355 10.368ZM53.1088 9.06117L53.0946 8.02424H53.2651L55.6515 5.59526H56.6884L54.1458 8.16628H54.0748L53.1088 9.06117ZM52.3276 11.0498V3.77708H53.1657V11.0498H52.3276ZM55.7935 11.0498L53.6628 8.35094L54.2594 7.76855L56.8588 11.0498H55.7935Z" fill="#666666"/>
<path d="M65 96.0611C104.333 91.0101 143.667 85.9601 183 81.5671C222.333 77.1741 261.667 74.1631 301 69.7031C340.333 65.2441 379.667 54.8101 419 54.8101C458.333 54.8101 497.667 69.6191 537 70.7791C576.333 71.9381 615.667 72.2281 655 72.5181" stroke="#EF373E" stroke-width="2"/>
<path d="M65 100.061C67.2091 100.061 69 98.2702 69 96.061C69 93.8519 67.2091 92.061 65 92.061C62.7909 92.061 61 93.8519 61 96.061C61 98.2702 62.7909 100.061 65 100.061Z" fill="white" stroke="#EF373E" stroke-width="2"/>
<path d="M183 85.5674C185.209 85.5674 187 83.7765 187 81.5674C187 79.3582 185.209 77.5674 183 77.5674C180.791 77.5674 179 79.3582 179 81.5674C179 83.7765 180.791 85.5674 183 85.5674Z" fill="white" stroke="#EF373E" stroke-width="2"/>
<path d="M301 73.7031C303.209 73.7031 305 71.9123 305 69.7031C305 67.494 303.209 65.7031 301 65.7031C298.791 65.7031 297 67.494 297 69.7031C297 71.9123 298.791 73.7031 301 73.7031Z" fill="white" stroke="#EF373E" stroke-width="2"/>
<path d="M419 58.8105C421.209 58.8105 423 57.0197 423 54.8105C423 52.6014 421.209 50.8105 419 50.8105C416.791 50.8105 415 52.6014 415 54.8105C415 57.0197 416.791 58.8105 419 58.8105Z" fill="white" stroke="#EF373E" stroke-width="2"/>
<path d="M537 74.7788C539.209 74.7788 541 72.9879 541 70.7788C541 68.5697 539.209 66.7788 537 66.7788C534.791 66.7788 533 68.5697 533 70.7788C533 72.9879 534.791 74.7788 537 74.7788Z" fill="white" stroke="#EF373E" stroke-width="2"/>
<path d="M655 76.5181C657.209 76.5181 659 74.7272 659 72.5181C659 70.3089 657.209 68.5181 655 68.5181C652.791 68.5181 651 70.3089 651 72.5181C651 74.7272 652.791 76.5181 655 76.5181Z" fill="white" stroke="#EF373E" stroke-width="2"/>
<path d="M65 96.0611C104.333 91.0101 143.667 85.9601 183 81.5671C222.333 77.1741 261.667 74.1631 301 69.7031C340.333 65.2441 379.667 54.8101 419 54.8101C458.333 54.8101 497.667 69.6191 537 70.7791C576.333 71.9381 615.667 72.2281 655 72.5181" stroke="#20419A" stroke-width="2" stroke-dasharray="4 2 4 2 4 2 4 2"/>
<path d="M65 100.061C67.2091 100.061 69 98.2702 69 96.061C69 93.8519 67.2091 92.061 65 92.061C62.7909 92.061 61 93.8519 61 96.061C61 98.2702 62.7909 100.061 65 100.061Z" fill="white" stroke="#20419A" stroke-width="2" stroke-dasharray="4 2"/>
<path d="M183 85.5674C185.209 85.5674 187 83.7765 187 81.5674C187 79.3582 185.209 77.5674 183 77.5674C180.791 77.5674 179 79.3582 179 81.5674C179 83.7765 180.791 85.5674 183 85.5674Z" fill="white" stroke="#20419A" stroke-width="2" stroke-dasharray="4 2"/>
<path d="M301 73.7031C303.209 73.7031 305 71.9123 305 69.7031C305 67.494 303.209 65.7031 301 65.7031C298.791 65.7031 297 67.494 297 69.7031C297 71.9123 298.791 73.7031 301 73.7031Z" fill="white" stroke="#20419A" stroke-width="2" stroke-dasharray="4 2"/>
<path d="M419 58.8105C421.209 58.8105 423 57.0197 423 54.8105C423 52.6014 421.209 50.8105 419 50.8105C416.791 50.8105 415 52.6014 415 54.8105C415 57.0197 416.791 58.8105 419 58.8105Z" fill="white" stroke="#20419A" stroke-width="2" stroke-dasharray="4 2"/>
<path d="M537 74.7788C539.209 74.7788 541 72.9879 541 70.7788C541 68.5697 539.209 66.7788 537 66.7788C534.791 66.7788 533 68.5697 533 70.7788C533 72.9879 534.791 74.7788 537 74.7788Z" fill="white" stroke="#20419A" stroke-width="2" stroke-dasharray="4 2"/>
<path d="M655 76.5181C657.209 76.5181 659 74.7272 659 72.5181C659 70.3089 657.209 68.5181 655 68.5181C652.791 68.5181 651 70.3089 651 72.5181C651 74.7272 652.791 76.5181 655 76.5181Z" fill="white" stroke="#20419A" stroke-width="2" stroke-dasharray="4 2"/>
</g>
<defs>
<clipPath id="clip0_9_83">
<rect width="660" height="260" fill="white"/>
</clipPath>
</defs>
</svg>
